G04*
G04 #@! TF.GenerationSoftware,Altium Limited,Altium Designer,25.8.1 (18)*
G04*
G04 Layer_Physical_Order=2*
G04 Layer_Color=4404530*
%FSLAX25Y25*%
%MOIN*%
G70*
G04*
G04 #@! TF.SameCoordinates,92740163-3DE7-4DEA-950A-142008FB6929*
G04*
G04*
G04 #@! TF.FilePolarity,Positive*
G04*
G01*
G75*
%ADD27R,0.04724X0.04724*%
%ADD64C,0.06181*%
%ADD65R,0.06181X0.06181*%
%ADD68C,0.04724*%
%ADD72C,0.06102*%
%ADD73C,0.05512*%
%ADD74R,0.07087X0.07087*%
%ADD75C,0.07087*%
%ADD76R,0.06102X0.06102*%
%ADD77R,0.05512X0.05512*%
%ADD78C,0.02400*%
G36*
X362500Y232500D02*
X116500D01*
Y365500D01*
X186973D01*
X187553Y364500D01*
X187307Y363906D01*
X187083Y362779D01*
Y361631D01*
X187307Y360504D01*
X187746Y359443D01*
X188384Y358488D01*
X189197Y357676D01*
X190152Y357038D01*
X191213Y356598D01*
X192339Y356374D01*
X193488D01*
X194614Y356598D01*
X195675Y357038D01*
X196630Y357676D01*
X197442Y358488D01*
X198081Y359443D01*
X198520Y360504D01*
X198744Y361631D01*
Y362779D01*
X198520Y363906D01*
X198274Y364500D01*
X198854Y365500D01*
X301146D01*
X301726Y364500D01*
X301480Y363906D01*
X301256Y362779D01*
Y361631D01*
X301480Y360504D01*
X301920Y359443D01*
X302558Y358488D01*
X303370Y357676D01*
X304325Y357038D01*
X305386Y356598D01*
X306512Y356374D01*
X307661D01*
X308787Y356598D01*
X309848Y357038D01*
X310804Y357676D01*
X311616Y358488D01*
X312254Y359443D01*
X312693Y360504D01*
X312917Y361631D01*
Y362779D01*
X312693Y363906D01*
X312447Y364500D01*
X313027Y365500D01*
X362500D01*
Y232500D01*
D02*
G37*
%LPC*%
G36*
X132550Y360156D02*
X128757D01*
Y356363D01*
X132550D01*
Y360156D01*
D02*
G37*
G36*
X126257D02*
X122463D01*
Y356363D01*
X126257D01*
Y360156D01*
D02*
G37*
G36*
X333060Y359098D02*
X331940D01*
X330857Y358808D01*
X329887Y358248D01*
X329094Y357456D01*
X328534Y356485D01*
X328244Y355403D01*
Y354282D01*
X328534Y353200D01*
X329094Y352229D01*
X329887Y351437D01*
X330857Y350877D01*
X331940Y350587D01*
X333060D01*
X334143Y350877D01*
X335113Y351437D01*
X335906Y352229D01*
X336466Y353200D01*
X336756Y354282D01*
Y355403D01*
X336466Y356485D01*
X335906Y357456D01*
X335113Y358248D01*
X334143Y358808D01*
X333060Y359098D01*
D02*
G37*
G36*
X132550Y353863D02*
X128757D01*
Y350070D01*
X132550D01*
Y353863D01*
D02*
G37*
G36*
X126257D02*
X122463D01*
Y350070D01*
X126257D01*
Y353863D01*
D02*
G37*
G36*
X294051Y346551D02*
X284949D01*
Y343113D01*
X283949Y342981D01*
X283741Y343757D01*
X283142Y344795D01*
X282295Y345642D01*
X281257Y346241D01*
X280099Y346551D01*
X278901D01*
X277743Y346241D01*
X276706Y345642D01*
X275858Y344795D01*
X275259Y343757D01*
X275016Y342850D01*
X273984D01*
X273741Y343757D01*
X273142Y344795D01*
X272294Y345642D01*
X271257Y346241D01*
X270099Y346551D01*
X268901D01*
X267743Y346241D01*
X266705Y345642D01*
X265858Y344795D01*
X265259Y343757D01*
X264949Y342599D01*
Y341401D01*
X265259Y340243D01*
X265858Y339206D01*
X266705Y338358D01*
X267743Y337759D01*
X268901Y337449D01*
X270099D01*
X271257Y337759D01*
X272294Y338358D01*
X273142Y339206D01*
X273741Y340243D01*
X273984Y341150D01*
X275016D01*
X275259Y340243D01*
X275858Y339206D01*
X276706Y338358D01*
X277743Y337759D01*
X278650Y337516D01*
Y336484D01*
X277743Y336241D01*
X276706Y335642D01*
X275858Y334794D01*
X275259Y333757D01*
X274949Y332599D01*
Y331401D01*
X275259Y330243D01*
X275858Y329205D01*
X276706Y328358D01*
X277743Y327759D01*
X278901Y327449D01*
X280099D01*
X281257Y327759D01*
X282295Y328358D01*
X283142Y329205D01*
X283741Y330243D01*
X283984Y331150D01*
X285016D01*
X285259Y330243D01*
X285858Y329205D01*
X286705Y328358D01*
X287743Y327759D01*
X288901Y327449D01*
X290099D01*
X291257Y327759D01*
X292295Y328358D01*
X293142Y329205D01*
X293741Y330243D01*
X294051Y331401D01*
Y332599D01*
X293741Y333757D01*
X293142Y334794D01*
X292295Y335642D01*
X291257Y336241D01*
X290481Y336449D01*
X290613Y337449D01*
X294051D01*
Y346551D01*
D02*
G37*
G36*
X336756Y349256D02*
X328244D01*
Y340744D01*
X336756D01*
Y349256D01*
D02*
G37*
G36*
X270007Y335851D02*
X270000D01*
Y332500D01*
X273351D01*
Y332507D01*
X273089Y333487D01*
X272582Y334365D01*
X271865Y335082D01*
X270987Y335589D01*
X270007Y335851D01*
D02*
G37*
G36*
X269000D02*
X268993D01*
X268014Y335589D01*
X267135Y335082D01*
X266418Y334365D01*
X265911Y333487D01*
X265649Y332507D01*
Y332500D01*
X269000D01*
Y335851D01*
D02*
G37*
G36*
X128171Y340157D02*
X126843D01*
X125560Y339813D01*
X124410Y339149D01*
X123471Y338210D01*
X122807Y337060D01*
X122463Y335777D01*
Y334449D01*
X122807Y333167D01*
X123471Y332017D01*
X124410Y331078D01*
X125560Y330414D01*
X126843Y330070D01*
X128171D01*
X129453Y330414D01*
X130603Y331078D01*
X131542Y332017D01*
X132206Y333167D01*
X132550Y334449D01*
Y335777D01*
X132206Y337060D01*
X131542Y338210D01*
X130603Y339149D01*
X129453Y339813D01*
X128171Y340157D01*
D02*
G37*
G36*
X273351Y331500D02*
X270000D01*
Y328149D01*
X270007D01*
X270987Y328411D01*
X271865Y328918D01*
X272582Y329635D01*
X273089Y330514D01*
X273351Y331493D01*
Y331500D01*
D02*
G37*
G36*
X269000D02*
X265649D01*
Y331493D01*
X265911Y330514D01*
X266418Y329635D01*
X267135Y328918D01*
X268014Y328411D01*
X268993Y328149D01*
X269000D01*
Y331500D01*
D02*
G37*
G36*
X243889Y326252D02*
X243178D01*
X242492Y326068D01*
X241876Y325713D01*
X241373Y325210D01*
X241018Y324594D01*
X240834Y323908D01*
Y323197D01*
X241018Y322510D01*
X241373Y321894D01*
X241876Y321392D01*
X242492Y321036D01*
X243178Y320852D01*
X243889D01*
X244576Y321036D01*
X245192Y321392D01*
X245694Y321894D01*
X246050Y322510D01*
X246234Y323197D01*
Y323908D01*
X246050Y324594D01*
X245694Y325210D01*
X245192Y325713D01*
X244576Y326068D01*
X243889Y326252D01*
D02*
G37*
G36*
X333060Y327677D02*
X331940D01*
X330857Y327387D01*
X329887Y326827D01*
X329094Y326034D01*
X328534Y325064D01*
X328244Y323982D01*
Y322861D01*
X328534Y321779D01*
X329094Y320808D01*
X329887Y320016D01*
X330857Y319455D01*
X331940Y319165D01*
X333060D01*
X334143Y319455D01*
X335113Y320016D01*
X335906Y320808D01*
X336466Y321779D01*
X336756Y322861D01*
Y323982D01*
X336466Y325064D01*
X335906Y326034D01*
X335113Y326827D01*
X334143Y327387D01*
X333060Y327677D01*
D02*
G37*
G36*
X292355Y320440D02*
X291645D01*
X290958Y320256D01*
X290342Y319901D01*
X289840Y319398D01*
X289484Y318782D01*
X289300Y318096D01*
Y317385D01*
X289484Y316698D01*
X289840Y316082D01*
X290342Y315580D01*
X290958Y315224D01*
X291645Y315040D01*
X292355D01*
X293042Y315224D01*
X293658Y315580D01*
X294161Y316082D01*
X294516Y316698D01*
X294700Y317385D01*
Y318096D01*
X294516Y318782D01*
X294161Y319398D01*
X293658Y319901D01*
X293042Y320256D01*
X292355Y320440D01*
D02*
G37*
G36*
X236946Y317771D02*
X236235D01*
X235548Y317587D01*
X234933Y317231D01*
X234430Y316729D01*
X234074Y316113D01*
X233891Y315426D01*
Y314715D01*
X234074Y314029D01*
X234430Y313413D01*
X234933Y312910D01*
X235548Y312555D01*
X236235Y312371D01*
X236946D01*
X237633Y312555D01*
X238248Y312910D01*
X238751Y313413D01*
X239106Y314029D01*
X239290Y314715D01*
Y315426D01*
X239106Y316113D01*
X238751Y316729D01*
X238248Y317231D01*
X237633Y317587D01*
X236946Y317771D01*
D02*
G37*
G36*
X336756Y317835D02*
X328244D01*
Y309323D01*
X336756D01*
Y317835D01*
D02*
G37*
G36*
X165241Y307480D02*
X164530D01*
X163843Y307296D01*
X163228Y306941D01*
X162725Y306438D01*
X162370Y305822D01*
X162186Y305136D01*
Y304425D01*
X162370Y303738D01*
X162725Y303122D01*
X163228Y302620D01*
X163843Y302264D01*
X164530Y302080D01*
X165241D01*
X165928Y302264D01*
X166543Y302620D01*
X167046Y303122D01*
X167402Y303738D01*
X167586Y304425D01*
Y305136D01*
X167402Y305822D01*
X167046Y306438D01*
X166543Y306941D01*
X165928Y307296D01*
X165241Y307480D01*
D02*
G37*
G36*
X146355Y314700D02*
X145644D01*
X144958Y314516D01*
X144342Y314160D01*
X143840Y313658D01*
X143484Y313042D01*
X143300Y312355D01*
Y311645D01*
X143484Y310958D01*
X143840Y310342D01*
X143932Y310250D01*
X143840Y310158D01*
X143484Y309542D01*
X143300Y308856D01*
Y308144D01*
X143484Y307458D01*
X143840Y306842D01*
X144182Y306500D01*
X143840Y306158D01*
X143484Y305542D01*
X143300Y304855D01*
Y304145D01*
X143484Y303458D01*
X143840Y302842D01*
X144342Y302340D01*
X144958Y301984D01*
X145644Y301800D01*
X146355D01*
X147042Y301984D01*
X147658Y302340D01*
X148161Y302842D01*
X148516Y303458D01*
X148700Y304145D01*
Y304855D01*
X148516Y305542D01*
X148161Y306158D01*
X147818Y306500D01*
X148161Y306842D01*
X148516Y307458D01*
X148700Y308144D01*
Y308856D01*
X148516Y309542D01*
X148161Y310158D01*
X148068Y310250D01*
X148161Y310342D01*
X148516Y310958D01*
X148700Y311645D01*
Y312355D01*
X148516Y313042D01*
X148161Y313658D01*
X147658Y314160D01*
X147042Y314516D01*
X146355Y314700D01*
D02*
G37*
G36*
X157449Y306826D02*
X156738D01*
X156051Y306642D01*
X155435Y306286D01*
X154933Y305784D01*
X154577Y305168D01*
X154393Y304481D01*
Y303770D01*
X154577Y303084D01*
X154933Y302468D01*
X155435Y301965D01*
X156051Y301610D01*
X156738Y301426D01*
X157449D01*
X158135Y301610D01*
X158751Y301965D01*
X159254Y302468D01*
X159609Y303084D01*
X159793Y303770D01*
Y304481D01*
X159609Y305168D01*
X159254Y305784D01*
X158751Y306286D01*
X158135Y306642D01*
X157449Y306826D01*
D02*
G37*
G36*
X201908Y305464D02*
X201197D01*
X200510Y305280D01*
X199894Y304925D01*
X199392Y304422D01*
X199036Y303806D01*
X198852Y303119D01*
Y302409D01*
X199036Y301722D01*
X199392Y301106D01*
X199894Y300603D01*
X200510Y300248D01*
X201197Y300064D01*
X201908D01*
X202594Y300248D01*
X203210Y300603D01*
X203713Y301106D01*
X204068Y301722D01*
X204252Y302409D01*
Y303119D01*
X204068Y303806D01*
X203713Y304422D01*
X203210Y304925D01*
X202594Y305280D01*
X201908Y305464D01*
D02*
G37*
G36*
X312343Y306276D02*
X304618D01*
Y298551D01*
X312343D01*
Y306276D01*
D02*
G37*
G36*
X332995Y295756D02*
X332006D01*
X331050Y295500D01*
X330194Y295005D01*
X329495Y294306D01*
X329000Y293450D01*
X328813Y292750D01*
X332500D01*
X336187D01*
X336000Y293450D01*
X335506Y294306D01*
X334806Y295005D01*
X333950Y295500D01*
X332995Y295756D01*
D02*
G37*
G36*
X308989Y296276D02*
X307972D01*
X306990Y296012D01*
X306109Y295504D01*
X305390Y294785D01*
X304881Y293904D01*
X304618Y292922D01*
Y291905D01*
X304881Y290923D01*
X305390Y290042D01*
X306109Y289323D01*
X306990Y288814D01*
X307972Y288551D01*
X308989D01*
X309971Y288814D01*
X310852Y289323D01*
X311571Y290042D01*
X312079Y290923D01*
X312343Y291905D01*
Y292922D01*
X312079Y293904D01*
X311571Y294785D01*
X310852Y295504D01*
X309971Y296012D01*
X308989Y296276D01*
D02*
G37*
G36*
X336187Y291250D02*
X332500D01*
X328813D01*
X329000Y290550D01*
X329495Y289694D01*
X330194Y288995D01*
X331050Y288500D01*
X332006Y288244D01*
X332995D01*
X333950Y288500D01*
X334806Y288995D01*
X335506Y289694D01*
X336000Y290550D01*
X336187Y291250D01*
D02*
G37*
G36*
X194549Y292200D02*
X193838D01*
X193152Y292016D01*
X192536Y291660D01*
X192033Y291158D01*
X191678Y290542D01*
X191494Y289856D01*
Y289144D01*
X191678Y288458D01*
X192033Y287842D01*
X192536Y287339D01*
X193152Y286984D01*
X193838Y286800D01*
X194549D01*
X195236Y286984D01*
X195852Y287339D01*
X196354Y287842D01*
X196710Y288458D01*
X196894Y289144D01*
Y289856D01*
X196710Y290542D01*
X196354Y291158D01*
X195852Y291660D01*
X195236Y292016D01*
X194549Y292200D01*
D02*
G37*
G36*
X233796Y284306D02*
X233085D01*
X232399Y284122D01*
X231783Y283767D01*
X231280Y283264D01*
X230925Y282648D01*
X230805Y282201D01*
X229778D01*
X229658Y282648D01*
X229302Y283264D01*
X228800Y283767D01*
X228184Y284122D01*
X227497Y284306D01*
X226786D01*
X226099Y284122D01*
X225484Y283767D01*
X224981Y283264D01*
X224626Y282648D01*
X224442Y281962D01*
Y281251D01*
X224626Y280564D01*
X224981Y279948D01*
X225484Y279446D01*
X226099Y279090D01*
X226786Y278906D01*
X227497D01*
X228184Y279090D01*
X228800Y279446D01*
X229302Y279948D01*
X229658Y280564D01*
X229778Y281011D01*
X230805D01*
X230925Y280564D01*
X231280Y279948D01*
X231783Y279446D01*
X232399Y279090D01*
X233085Y278906D01*
X233796D01*
X234483Y279090D01*
X235099Y279446D01*
X235601Y279948D01*
X235957Y280564D01*
X236141Y281251D01*
Y281962D01*
X235957Y282648D01*
X235601Y283264D01*
X235099Y283767D01*
X234483Y284122D01*
X233796Y284306D01*
D02*
G37*
G36*
X137074Y292331D02*
X135926D01*
X134799Y292107D01*
X133738Y291667D01*
X132783Y291029D01*
X131971Y290217D01*
X131333Y289262D01*
X130893Y288201D01*
X130669Y287074D01*
Y285926D01*
X130893Y284799D01*
X131333Y283738D01*
X131971Y282783D01*
X132783Y281971D01*
X133738Y281333D01*
X134799Y280893D01*
X135926Y280669D01*
X137074D01*
X138201Y280893D01*
X139262Y281333D01*
X140217Y281971D01*
X141029Y282783D01*
X141667Y283738D01*
X142107Y284799D01*
X142331Y285926D01*
Y287074D01*
X142107Y288201D01*
X141667Y289262D01*
X141029Y290217D01*
X140217Y291029D01*
X139262Y291667D01*
X138201Y292107D01*
X137074Y292331D01*
D02*
G37*
G36*
X277137Y285531D02*
X276426D01*
X275739Y285347D01*
X275124Y284992D01*
X274621Y284489D01*
X274265Y283873D01*
X274081Y283187D01*
Y282476D01*
X274265Y281789D01*
X274621Y281173D01*
X275124Y280671D01*
X275739Y280315D01*
X276426Y280131D01*
X277137D01*
X277824Y280315D01*
X278439Y280671D01*
X278942Y281173D01*
X279297Y281789D01*
X279481Y282476D01*
Y283187D01*
X279297Y283873D01*
X278942Y284489D01*
X278439Y284992D01*
X277824Y285347D01*
X277137Y285531D01*
D02*
G37*
G36*
X308989Y286276D02*
X307972D01*
X306990Y286012D01*
X306109Y285504D01*
X305390Y284785D01*
X304881Y283904D01*
X304618Y282922D01*
Y281905D01*
X304881Y280923D01*
X305390Y280042D01*
X306109Y279323D01*
X306990Y278814D01*
X307972Y278551D01*
X308989D01*
X309971Y278814D01*
X310852Y279323D01*
X311571Y280042D01*
X312079Y280923D01*
X312343Y281905D01*
Y282922D01*
X312079Y283904D01*
X311571Y284785D01*
X310852Y285504D01*
X309971Y286012D01*
X308989Y286276D01*
D02*
G37*
G36*
X336756Y286413D02*
X328244D01*
Y277902D01*
X336756D01*
Y286413D01*
D02*
G37*
G36*
X273855Y278940D02*
X273145D01*
X272458Y278756D01*
X271842Y278401D01*
X271340Y277898D01*
X270984Y277282D01*
X270800Y276596D01*
Y275885D01*
X270984Y275198D01*
X271340Y274582D01*
X271842Y274080D01*
X272458Y273724D01*
X273145Y273540D01*
X273855D01*
X274542Y273724D01*
X275158Y274080D01*
X275660Y274582D01*
X276016Y275198D01*
X276200Y275885D01*
Y276596D01*
X276016Y277282D01*
X275660Y277898D01*
X275158Y278401D01*
X274542Y278756D01*
X273855Y278940D01*
D02*
G37*
G36*
X255663Y277200D02*
X254953D01*
X254266Y277016D01*
X253650Y276660D01*
X253148Y276158D01*
X252792Y275542D01*
X252608Y274855D01*
Y274145D01*
X252792Y273458D01*
X253148Y272842D01*
X253650Y272340D01*
X254266Y271984D01*
X254953Y271800D01*
X255663D01*
X256350Y271984D01*
X256966Y272340D01*
X257469Y272842D01*
X257824Y273458D01*
X258008Y274145D01*
Y274855D01*
X257824Y275542D01*
X257469Y276158D01*
X256966Y276660D01*
X256350Y277016D01*
X255663Y277200D01*
D02*
G37*
G36*
X236096Y274200D02*
X235385D01*
X234698Y274016D01*
X234082Y273660D01*
X233580Y273158D01*
X233224Y272542D01*
X233040Y271855D01*
Y271145D01*
X233224Y270458D01*
X233580Y269842D01*
X234082Y269339D01*
X234698Y268984D01*
X235385Y268800D01*
X236096D01*
X236782Y268984D01*
X237398Y269339D01*
X237901Y269842D01*
X238256Y270458D01*
X238440Y271145D01*
Y271855D01*
X238256Y272542D01*
X237901Y273158D01*
X237398Y273660D01*
X236782Y274016D01*
X236096Y274200D01*
D02*
G37*
G36*
X224071D02*
X223360D01*
X222673Y274016D01*
X222058Y273660D01*
X221555Y273158D01*
X221199Y272542D01*
X221016Y271855D01*
Y271145D01*
X221199Y270458D01*
X221555Y269842D01*
X222058Y269339D01*
X222673Y268984D01*
X223360Y268800D01*
X224071D01*
X224758Y268984D01*
X225373Y269339D01*
X225876Y269842D01*
X226232Y270458D01*
X226415Y271145D01*
Y271855D01*
X226232Y272542D01*
X225876Y273158D01*
X225373Y273660D01*
X224758Y274016D01*
X224071Y274200D01*
D02*
G37*
G36*
X203591Y283350D02*
X194409D01*
Y274169D01*
X197588D01*
X197720Y273169D01*
X197228Y273038D01*
X196181Y272433D01*
X195327Y271579D01*
X194722Y270532D01*
X194409Y269364D01*
Y268156D01*
X194722Y266988D01*
X195327Y265941D01*
X196181Y265087D01*
X197228Y264482D01*
X198396Y264169D01*
X199604D01*
X200772Y264482D01*
X201819Y265087D01*
X202673Y265941D01*
X203278Y266988D01*
X203591Y268156D01*
Y269364D01*
X203278Y270532D01*
X202673Y271579D01*
X201819Y272433D01*
X200772Y273038D01*
X200280Y273169D01*
X200412Y274169D01*
X203591D01*
Y283350D01*
D02*
G37*
G36*
X131535Y268952D02*
X121449D01*
Y258866D01*
X131535D01*
Y268952D01*
D02*
G37*
G36*
X332995Y256756D02*
X332006D01*
X331050Y256500D01*
X330194Y256006D01*
X329495Y255306D01*
X329000Y254450D01*
X328813Y253750D01*
X332500D01*
X336187D01*
X336000Y254450D01*
X335506Y255306D01*
X334806Y256006D01*
X333950Y256500D01*
X332995Y256756D01*
D02*
G37*
G36*
X300096Y259129D02*
X299385D01*
X298698Y258945D01*
X298082Y258589D01*
X297580Y258087D01*
X297224Y257471D01*
X297040Y256784D01*
Y256073D01*
X297224Y255387D01*
X297580Y254771D01*
X298082Y254268D01*
X298698Y253913D01*
X299385Y253729D01*
X300096D01*
X300782Y253913D01*
X301398Y254268D01*
X301901Y254771D01*
X302256Y255387D01*
X302440Y256073D01*
Y256784D01*
X302256Y257471D01*
X301901Y258087D01*
X301398Y258589D01*
X300782Y258945D01*
X300096Y259129D01*
D02*
G37*
G36*
X149712Y255223D02*
X149001D01*
X148314Y255039D01*
X147698Y254683D01*
X147196Y254181D01*
X146840Y253565D01*
X146656Y252878D01*
Y252167D01*
X146840Y251481D01*
X147196Y250865D01*
X147698Y250362D01*
X148314Y250007D01*
X149001Y249823D01*
X149712D01*
X150398Y250007D01*
X151014Y250362D01*
X151517Y250865D01*
X151872Y251481D01*
X152056Y252167D01*
Y252878D01*
X151872Y253565D01*
X151517Y254181D01*
X151014Y254683D01*
X150398Y255039D01*
X149712Y255223D01*
D02*
G37*
G36*
X336187Y252250D02*
X332500D01*
X328813D01*
X329000Y251550D01*
X329495Y250694D01*
X330194Y249994D01*
X331050Y249500D01*
X332006Y249244D01*
X332995D01*
X333950Y249500D01*
X334806Y249994D01*
X335506Y250694D01*
X336000Y251550D01*
X336187Y252250D01*
D02*
G37*
G36*
X302163Y250647D02*
X301452D01*
X300765Y250464D01*
X300149Y250108D01*
X299646Y249605D01*
X299291Y248990D01*
X299107Y248303D01*
Y247592D01*
X299291Y246905D01*
X299646Y246290D01*
X300149Y245787D01*
X300765Y245431D01*
X301452Y245248D01*
X302163D01*
X302849Y245431D01*
X303465Y245787D01*
X303968Y246290D01*
X304323Y246905D01*
X304507Y247592D01*
Y248303D01*
X304323Y248990D01*
X303968Y249605D01*
X303465Y250108D01*
X302849Y250464D01*
X302163Y250647D01*
D02*
G37*
G36*
X127742Y248795D02*
Y245159D01*
X131378D01*
X131192Y245856D01*
X130528Y247006D01*
X129589Y247945D01*
X128439Y248609D01*
X127742Y248795D01*
D02*
G37*
G36*
X125242D02*
X124546Y248609D01*
X123395Y247945D01*
X122456Y247006D01*
X121792Y245856D01*
X121606Y245159D01*
X125242D01*
Y248795D01*
D02*
G37*
G36*
X184195Y248459D02*
X183484D01*
X182798Y248275D01*
X182182Y247919D01*
X181679Y247417D01*
X181324Y246801D01*
X181140Y246114D01*
Y245403D01*
X180458Y245016D01*
X179842Y244660D01*
X179340Y244158D01*
X178984Y243542D01*
X178800Y242856D01*
Y242144D01*
X178984Y241458D01*
X179340Y240842D01*
X179842Y240339D01*
X180458Y239984D01*
X181144Y239800D01*
X181855D01*
X182542Y239984D01*
X183158Y240339D01*
X183750Y240776D01*
X184342Y240339D01*
X184958Y239984D01*
X185644Y239800D01*
X186355D01*
X187042Y239984D01*
X187658Y240339D01*
X188161Y240842D01*
X188516Y241458D01*
X188700Y242144D01*
Y242856D01*
X188516Y243542D01*
X188161Y244158D01*
X187658Y244660D01*
X187042Y245016D01*
X186477Y245167D01*
X186540Y245403D01*
Y246114D01*
X186356Y246801D01*
X186000Y247417D01*
X185498Y247919D01*
X184882Y248275D01*
X184195Y248459D01*
D02*
G37*
G36*
X131378Y242659D02*
X127742D01*
Y239023D01*
X128439Y239210D01*
X129589Y239874D01*
X130528Y240812D01*
X131192Y241963D01*
X131378Y242659D01*
D02*
G37*
G36*
X125242D02*
X121606D01*
X121792Y241963D01*
X122456Y240812D01*
X123395Y239874D01*
X124546Y239210D01*
X125242Y239023D01*
Y242659D01*
D02*
G37*
G36*
X336756Y247413D02*
X328244D01*
Y238902D01*
X336756D01*
Y247413D01*
D02*
G37*
%LPD*%
D27*
X308480Y302413D02*
D03*
D64*
X199000Y268760D02*
D03*
D65*
Y278760D02*
D03*
D68*
X308480Y282413D02*
D03*
Y292413D02*
D03*
D72*
X269500Y332000D02*
D03*
X289500D02*
D03*
X279500Y342000D02*
D03*
X269500D02*
D03*
X279500Y332000D02*
D03*
D73*
X332500Y292000D02*
D03*
Y253000D02*
D03*
Y323421D02*
D03*
Y354842D02*
D03*
D74*
X127507Y355113D02*
D03*
X126492Y263909D02*
D03*
D75*
Y243909D02*
D03*
X127507Y335113D02*
D03*
D76*
X289500Y342000D02*
D03*
D77*
X332500Y243158D02*
D03*
Y345000D02*
D03*
Y313579D02*
D03*
Y282157D02*
D03*
D78*
X191134Y297000D02*
D03*
X273829Y302339D02*
D03*
X243534Y331032D02*
D03*
X276781Y292008D02*
D03*
X266036Y299500D02*
D03*
X255308Y283500D02*
D03*
X236034Y331032D02*
D03*
X229821Y324930D02*
D03*
X229034Y332230D02*
D03*
X230291Y281606D02*
D03*
X227142Y315071D02*
D03*
X223992Y281606D02*
D03*
X273500Y268760D02*
D03*
X232786Y259500D02*
D03*
X292260Y256429D02*
D03*
X290193Y240467D02*
D03*
X278634Y240500D02*
D03*
X228260Y271500D02*
D03*
X222141Y259500D02*
D03*
X211128Y332230D02*
D03*
X210316Y324930D02*
D03*
X191000Y322905D02*
D03*
X183893Y321544D02*
D03*
X163000Y361000D02*
D03*
Y354500D02*
D03*
X159322Y357804D02*
D03*
X154000Y277500D02*
D03*
X216235Y271500D02*
D03*
X172500Y245000D02*
D03*
X171000Y242500D02*
D03*
X169500Y245000D02*
D03*
X201552Y302764D02*
D03*
X149356Y252523D02*
D03*
X157093Y304126D02*
D03*
X164885Y304780D02*
D03*
X146000Y308500D02*
D03*
Y304500D02*
D03*
Y312000D02*
D03*
X194194Y289500D02*
D03*
X183840Y245759D02*
D03*
X186000Y242500D02*
D03*
X181500D02*
D03*
X292000Y317740D02*
D03*
X299740Y256429D02*
D03*
X301807Y247948D02*
D03*
X273500Y276240D02*
D03*
X276781Y282831D02*
D03*
X255308Y274500D02*
D03*
X235740Y271500D02*
D03*
X223715D02*
D03*
X233441Y281606D02*
D03*
X236591Y315071D02*
D03*
X243534Y323552D02*
D03*
X227142Y281606D02*
D03*
M02*
