G04*
G04 #@! TF.GenerationSoftware,Altium Limited,Altium Designer,25.8.1 (18)*
G04*
G04 Layer_Color=255*
%FSLAX25Y25*%
%MOIN*%
G70*
G04*
G04 #@! TF.SameCoordinates,92740163-3DE7-4DEA-950A-142008FB6929*
G04*
G04*
G04 #@! TF.FilePolarity,Positive*
G04*
G01*
G75*
%ADD27R,0.04724X0.04724*%
%ADD64C,0.06181*%
%ADD65R,0.06181X0.06181*%
%ADD68C,0.04724*%
%ADD72C,0.06102*%
%ADD73C,0.05512*%
%ADD74R,0.07087X0.07087*%
%ADD75C,0.07087*%
%ADD76R,0.06102X0.06102*%
%ADD77R,0.05512X0.05512*%
D27*
X308480Y302413D02*
D03*
D64*
X199000Y268760D02*
D03*
D65*
Y278760D02*
D03*
D68*
X308480Y282413D02*
D03*
Y292413D02*
D03*
D72*
X269500Y332000D02*
D03*
X289500D02*
D03*
X279500Y342000D02*
D03*
X269500D02*
D03*
X279500Y332000D02*
D03*
D73*
X332500Y292000D02*
D03*
Y253000D02*
D03*
Y323421D02*
D03*
Y354842D02*
D03*
D74*
X127507Y355113D02*
D03*
X126492Y263909D02*
D03*
D75*
Y243909D02*
D03*
X127507Y335113D02*
D03*
D76*
X289500Y342000D02*
D03*
D77*
X332500Y243158D02*
D03*
Y345000D02*
D03*
Y313579D02*
D03*
Y282157D02*
D03*
M02*
