M48
;Layer_Color=9474304
;FILE_FORMAT=2:4
INCH,TZ
;TYPE=PLATED
T01F00S00C0.0120
T02F00S00C0.0276
T03F00S00C0.0354
T04F00S00C0.0402
T05F00S00C0.0512
;TYPE=NON_PLATED
T06F00S00C0.0866
%
T01
X17100Y24250
X17250Y24500
X16950
X18150Y24250
X18600
X18384Y24576
X22214Y25950
X23279
X23574Y27150
X22826
X22372
X21624
X22399Y28161
X22714
X23029
X23344
X25531Y28350
X25531Y27450
X27350Y27624
Y26876
X27678Y28283
Y29201
X27383Y30234
X26604Y29950
X20155Y30276
X19113Y29700
X19419Y28950
X16489Y30478
X15709Y30413
X29226Y25643
X29974
X30181Y24795
X29019Y24047
X27863Y24050
X14936Y25252
X15400Y27750
X14600Y30450
Y30850
Y31200
X18389Y32154
X19100Y32291
X21032Y32493
X21113Y33223
X22903
X22982Y32493
X23603Y33103
X24353
Y32355
X23659Y31507
X22714
X29200Y31774
X16300Y35450
Y36100
X15932Y35780
T02
X30848Y28241
Y29241
Y30241
T03
X33250Y24316
Y25300
Y28216
Y29200
Y31358
Y32342
Y34500
Y35484
T04
X19900Y26876
Y27876
X26950Y33200
Y34200
X27950
X28950
Y33200
X27950
T05
X12649Y24391
Y26391
X12751Y33511
Y35511
T06
X13650Y28650
X19291Y36220
X30709
M30
