G04*
G04 #@! TF.GenerationSoftware,Altium Limited,Altium Designer,25.8.1 (18)*
G04*
G04 Layer_Color=16711935*
%FSLAX25Y25*%
%MOIN*%
G70*
G04*
G04 #@! TF.SameCoordinates,92740163-3DE7-4DEA-950A-142008FB6929*
G04*
G04*
G04 #@! TF.FilePolarity,Positive*
G04*
G01*
G75*
%ADD11C,0.00787*%
%ADD14C,0.00500*%
%ADD80C,0.00394*%
%ADD81R,0.24488X0.03765*%
D11*
X160105Y277123D02*
G03*
X160105Y277123I-394J0D01*
G01*
X146207Y253799D02*
X152506D01*
X146207Y241201D02*
Y253799D01*
Y241201D02*
X152506D01*
Y253799D01*
X155082Y251055D02*
X166578D01*
X155082Y232945D02*
Y251055D01*
Y232945D02*
X166578D01*
Y251055D01*
X159563Y284039D02*
X167437D01*
X159563D02*
Y288961D01*
X167437D01*
Y284039D02*
Y288961D01*
X163764Y280249D02*
X184236D01*
Y259777D02*
Y280249D01*
X163764Y259777D02*
X184236D01*
X163764D02*
Y280249D01*
X186744Y239669D02*
X192256D01*
X186744Y231008D02*
Y239669D01*
Y231008D02*
X192256D01*
Y239669D01*
X125940Y300720D02*
X143538D01*
Y320405D01*
X125940D02*
X143538D01*
X125940Y300720D02*
Y320405D01*
X193744Y284508D02*
X204256D01*
X193744Y263012D02*
Y284508D01*
Y263012D02*
X204256D01*
Y284508D01*
X182799Y247850D02*
Y254150D01*
X170201D02*
X182799D01*
X170201Y247850D02*
Y254150D01*
Y247850D02*
X182799D01*
X175330Y302334D02*
X183991D01*
X175330D02*
Y307846D01*
X183991D01*
Y302334D02*
Y307846D01*
X270744Y276732D02*
X276256D01*
X270744Y268268D02*
Y276732D01*
Y268268D02*
X276256D01*
Y276732D01*
X265741Y289342D02*
Y294657D01*
X257080D02*
X265741D01*
X257080Y289342D02*
Y294657D01*
Y289342D02*
X265741D01*
X264757Y280646D02*
Y286354D01*
X256095D02*
X264757D01*
X256095Y280646D02*
Y286354D01*
Y280646D02*
X264757D01*
X256095Y271646D02*
Y277354D01*
Y271646D02*
X264757D01*
Y277354D01*
X256095D02*
X264757D01*
X257080Y296843D02*
Y302157D01*
Y296843D02*
X265741D01*
Y302157D01*
X257080D02*
X265741D01*
X291768Y253673D02*
X300232D01*
X291768D02*
Y259185D01*
X300232D01*
Y253673D02*
Y259185D01*
X318264Y273161D02*
Y311665D01*
X298736D02*
X318264D01*
X298736Y273161D02*
Y311665D01*
Y273161D02*
X318264D01*
X271073Y290618D02*
X282490D01*
X271073Y284221D02*
Y290618D01*
Y284221D02*
X282490D01*
Y290618D01*
X278831Y245241D02*
Y250753D01*
X270169D02*
X278831D01*
X270169Y245241D02*
Y250753D01*
Y245241D02*
X278831D01*
X206080Y234701D02*
Y253796D01*
Y234701D02*
X251552D01*
Y253796D01*
X206080D02*
X251552D01*
X218289Y322174D02*
Y327686D01*
X209824D02*
X218289D01*
X209824Y322174D02*
Y327686D01*
Y322174D02*
X218289D01*
X221849D02*
Y327686D01*
Y322174D02*
X230313D01*
Y327686D01*
X221849D02*
X230313D01*
X233278Y323060D02*
Y331525D01*
X238790D01*
Y323060D02*
Y331525D01*
X233278Y323060D02*
X238790D01*
X240778D02*
Y331525D01*
X246290D01*
Y323060D02*
Y331525D01*
X240778Y323060D02*
X246290D01*
X215743Y268744D02*
X224208D01*
X215743D02*
Y274256D01*
X224208D01*
Y268744D02*
Y274256D01*
X227768Y268744D02*
X236232D01*
X227768D02*
Y274256D01*
X236232D01*
Y268744D02*
Y274256D01*
D14*
X149278Y264525D02*
Y270824D01*
Y264525D02*
X160696D01*
Y270824D01*
X149278D02*
X160696D01*
D80*
X220449Y288102D02*
G03*
X220449Y288102I-1969J0D01*
G01*
X115023Y274416D02*
X115614Y275118D01*
X115023Y273909D02*
Y274416D01*
X115613Y275118D02*
Y276154D01*
X115613Y276153D02*
X115613Y276153D01*
X112803Y276153D02*
X115613D01*
X110547Y233909D02*
X142436D01*
X110547Y273909D02*
X142436D01*
X110547Y233909D02*
Y273909D01*
X142436Y233909D02*
Y273909D01*
X112803Y275119D02*
Y276153D01*
X113393Y273909D02*
Y274416D01*
X112803Y275118D02*
X113393Y274416D01*
X171559Y332194D02*
Y360186D01*
X147070Y332194D02*
Y360186D01*
Y332194D02*
X171559D01*
X147070Y360186D02*
X171559D01*
X116037Y365620D02*
X116629Y366322D01*
X116037Y365113D02*
Y365620D01*
X116628Y366322D02*
Y367358D01*
X116628Y367357D02*
X116628Y367357D01*
X113818Y367357D02*
X116628D01*
X111561Y325114D02*
X143451D01*
X111561Y365113D02*
X143451D01*
X111561Y325114D02*
Y365113D01*
X143451Y325114D02*
Y365113D01*
X113818Y366323D02*
Y367357D01*
X114408Y365113D02*
Y365620D01*
X113818Y366322D02*
X114408Y365620D01*
X231683Y256646D02*
X240384D01*
X231683Y262354D02*
X240384D01*
Y256646D02*
Y262354D01*
X231683Y256646D02*
Y262354D01*
X214542D02*
X223243D01*
X214542Y256646D02*
X223243D01*
X214542D02*
Y262354D01*
X223243Y256646D02*
Y262354D01*
X162228Y312064D02*
X167543D01*
X162228Y303402D02*
X167543D01*
Y312064D01*
X162228Y303402D02*
Y312064D01*
X153944Y305268D02*
Y315858D01*
X160243D01*
X153944Y305268D02*
X160243D01*
Y315858D01*
X177397Y323552D02*
X182515D01*
X177397Y312056D02*
X182515D01*
X177397D02*
Y323552D01*
X182515Y312056D02*
Y323552D01*
X162720Y314541D02*
Y319856D01*
X171382Y314541D02*
Y319856D01*
X162720D02*
X171382D01*
X162720Y314541D02*
X171382D01*
X190937Y294539D02*
Y299461D01*
X183063Y294539D02*
X190937D01*
X183063D02*
Y299461D01*
X186016D01*
X183063D02*
X190937D01*
X188342Y315622D02*
X193658D01*
X188342Y324283D02*
X193658D01*
X188342Y315622D02*
Y324283D01*
X193658Y315622D02*
Y324283D01*
X263752Y327000D02*
Y347000D01*
X295248D01*
Y327000D02*
Y347000D01*
X263752Y327000D02*
X295248D01*
X198895Y295480D02*
X204210D01*
X198895Y304142D02*
X204210D01*
X198895Y295480D02*
Y304142D01*
X204210Y295480D02*
Y304142D01*
X188146Y303712D02*
X193854D01*
X188146Y312373D02*
X193854D01*
X188146Y303712D02*
Y312373D01*
X193854Y303712D02*
Y312373D01*
X292555Y238203D02*
X299445D01*
X292555Y250211D02*
X299445D01*
Y238203D02*
Y250211D01*
X292555Y238203D02*
Y250211D01*
X323445Y335354D02*
X368721D01*
X323445D02*
Y364488D01*
X368721D01*
Y335354D02*
Y364488D01*
X323445Y303933D02*
X368721D01*
X323445D02*
Y333067D01*
X368721D01*
Y303933D02*
Y333067D01*
X323445Y233512D02*
X368721D01*
X323445D02*
Y262646D01*
X368721D01*
Y233512D02*
Y262646D01*
X323445Y272512D02*
X368721D01*
X323445D02*
Y301646D01*
X368721D01*
Y272512D02*
Y301646D01*
X272844Y299485D02*
Y305194D01*
X281506Y299485D02*
Y305194D01*
X272844D02*
X281506D01*
X272844Y299485D02*
X281506D01*
X289146Y309669D02*
X294854D01*
X289146Y318331D02*
X294854D01*
X289146Y309669D02*
Y318331D01*
X294854Y309669D02*
Y318331D01*
X289146Y291567D02*
X294854D01*
X289146Y300229D02*
X294854D01*
X289146Y291567D02*
Y300229D01*
X294854Y291567D02*
Y300229D01*
X270563Y242961D02*
X278437D01*
X270563D02*
X273516D01*
X270563Y238039D02*
Y242961D01*
Y238039D02*
X278437D01*
Y242961D01*
X214937Y284559D02*
X242496D01*
X214937Y312118D02*
X242496D01*
X214937Y284559D02*
Y312118D01*
X242496Y284559D02*
Y312118D01*
X209750Y334888D02*
X218412D01*
X209750Y329573D02*
X218412D01*
X209750D02*
Y334888D01*
X218412Y329573D02*
Y334888D01*
X221750Y329573D02*
X230412D01*
X221750Y334888D02*
X230412D01*
Y329573D02*
Y334888D01*
X221750Y329573D02*
Y334888D01*
X174063Y229039D02*
Y233961D01*
X181937D01*
Y229039D02*
Y233961D01*
X178984Y229039D02*
X181937D01*
X174063D02*
X181937D01*
D81*
X159313Y334078D02*
D03*
M02*
