G04*
G04 #@! TF.GenerationSoftware,Altium Limited,Altium Designer,25.8.1 (18)*
G04*
G04 Layer_Color=32768*
%FSLAX25Y25*%
%MOIN*%
G70*
G04*
G04 #@! TF.SameCoordinates,92740163-3DE7-4DEA-950A-142008FB6929*
G04*
G04*
G04 #@! TF.FilePolarity,Positive*
G04*
G01*
G75*
%ADD11C,0.00787*%
%ADD80C,0.00394*%
%ADD82C,0.00197*%
D11*
X145419Y255189D02*
X153293D01*
X145419Y239811D02*
Y255189D01*
Y239811D02*
X153293D01*
Y255189D01*
X154688Y255189D02*
X166971D01*
X154688Y228811D02*
Y255189D01*
Y228811D02*
X166971D01*
Y255189D01*
X156980Y282834D02*
X170020D01*
X156980D02*
Y290166D01*
X170020D01*
Y282834D02*
Y290166D01*
X162779Y280643D02*
X185221D01*
Y259383D02*
Y280643D01*
X162779Y259383D02*
X185221D01*
X162779D02*
Y280643D01*
X186252Y241441D02*
X192748D01*
X186252Y229236D02*
Y241441D01*
Y229236D02*
X192748D01*
Y241441D01*
X122038Y299833D02*
X147436D01*
Y321293D01*
X122038D02*
X147436D01*
X122038Y299833D02*
Y321293D01*
X193350Y284902D02*
X204650D01*
X193350Y262618D02*
Y284902D01*
Y262618D02*
X204650D01*
Y284902D01*
X184382Y246866D02*
Y255134D01*
X168618D02*
X184382D01*
X168618Y246866D02*
Y255134D01*
Y246866D02*
X184382D01*
X173558Y301842D02*
X185763D01*
X173558D02*
Y308338D01*
X185763D01*
Y301842D02*
Y308338D01*
X270350Y278012D02*
X276650D01*
X270350Y266988D02*
Y278012D01*
Y266988D02*
X276650D01*
Y278012D01*
X268694Y288949D02*
Y295051D01*
X254127D02*
X268694D01*
X254127Y288949D02*
Y295051D01*
Y288949D02*
X268694D01*
Y279858D02*
Y287142D01*
X252158D02*
X268694D01*
X252158Y279858D02*
Y287142D01*
Y279858D02*
X268694D01*
X252158Y270858D02*
Y278142D01*
Y270858D02*
X268694D01*
Y278142D01*
X252158D02*
X268694D01*
X254127Y296449D02*
Y302551D01*
Y296449D02*
X268694D01*
Y302551D01*
X254127D02*
X268694D01*
X290488Y253279D02*
X301512D01*
X290488D02*
Y259578D01*
X301512D01*
Y253279D02*
Y259578D01*
X318657Y272768D02*
Y312059D01*
X298342D02*
X318657D01*
X298342Y272768D02*
Y312059D01*
Y272768D02*
X318657D01*
X270089Y295433D02*
X283474D01*
X270089Y279406D02*
Y295433D01*
Y279406D02*
X283474D01*
Y295433D01*
X280602Y244749D02*
Y251245D01*
X268398D02*
X280602D01*
X268398Y244749D02*
Y251245D01*
Y244749D02*
X280602D01*
X198698Y234308D02*
Y254189D01*
Y234308D02*
X258934D01*
Y254189D01*
X198698D02*
X258934D01*
X219568Y321780D02*
Y328080D01*
X208545D02*
X219568D01*
X208545Y321780D02*
Y328080D01*
Y321780D02*
X219568D01*
X220569D02*
Y328080D01*
Y321780D02*
X231593D01*
Y328080D01*
X220569D02*
X231593D01*
X232884Y321780D02*
Y332804D01*
X239183D01*
Y321780D02*
Y332804D01*
X232884Y321780D02*
X239183D01*
X240384D02*
Y332804D01*
X246684D01*
Y321780D02*
Y332804D01*
X240384Y321780D02*
X246684D01*
X214464Y268350D02*
X225487D01*
X214464D02*
Y274650D01*
X225487D01*
Y268350D02*
Y274650D01*
X226488Y268350D02*
X237512D01*
X226488D02*
Y274650D01*
X237512D01*
Y268350D02*
Y274650D01*
D80*
X124524Y253909D02*
X128461D01*
X126492Y251941D02*
Y255878D01*
X157346Y346190D02*
X161283D01*
X159315Y344221D02*
Y348159D01*
X125538Y345113D02*
X129475D01*
X127507Y343145D02*
Y347082D01*
X236034Y257531D02*
Y261469D01*
X234065Y259500D02*
X238002D01*
X218893Y257531D02*
Y261469D01*
X216924Y259500D02*
X220861D01*
X164885Y305765D02*
Y309701D01*
X162917Y307733D02*
X166854D01*
X157093Y308594D02*
Y312531D01*
X155125Y310563D02*
X159062D01*
X179956Y315835D02*
Y319772D01*
X177988Y317804D02*
X181924D01*
X165082Y317199D02*
X169019D01*
X167051Y315230D02*
Y319167D01*
X187000Y296016D02*
Y297984D01*
X186016Y297000D02*
X187984D01*
X191000Y317984D02*
Y321921D01*
X189032Y319953D02*
X192968D01*
X201552Y297843D02*
Y301780D01*
X199584Y299811D02*
X203521D01*
X191000Y306074D02*
Y310011D01*
X189032Y308043D02*
X192968D01*
X296000Y242239D02*
Y246176D01*
X294032Y244207D02*
X297969D01*
X332500Y347953D02*
Y351890D01*
X330532Y349921D02*
X334469D01*
X332500Y316531D02*
Y320468D01*
X330532Y318500D02*
X334469D01*
X332500Y246110D02*
Y250047D01*
X330532Y248079D02*
X334469D01*
X332500Y285110D02*
Y289047D01*
X330532Y287079D02*
X334469D01*
X275207Y302339D02*
X279144D01*
X277175Y300371D02*
Y304308D01*
X292000Y312032D02*
Y315968D01*
X290032Y314000D02*
X293969D01*
X292000Y293930D02*
Y297867D01*
X290032Y295898D02*
X293969D01*
X273516Y240500D02*
X275484D01*
X274500Y239516D02*
Y241484D01*
X228716Y296370D02*
Y300307D01*
X226748Y298339D02*
X230685D01*
X214081Y330262D02*
Y334199D01*
X212113Y332230D02*
X216050D01*
X226081Y330262D02*
Y334199D01*
X224113Y332230D02*
X228050D01*
X178000Y230516D02*
Y232484D01*
X177016Y231500D02*
X178984D01*
D82*
X110153Y276547D02*
X142830D01*
X110153Y233516D02*
Y276547D01*
X142830Y233516D02*
Y276547D01*
X110153Y233516D02*
X142831D01*
X173685Y326997D02*
Y365383D01*
X144944Y326997D02*
Y365383D01*
Y326997D02*
X173685D01*
X144944Y365383D02*
X173685D01*
X111168Y367751D02*
X143845D01*
X111168Y324720D02*
Y367751D01*
X143845Y324720D02*
Y367751D01*
X111168Y324720D02*
X143845D01*
X229144Y255563D02*
X242924D01*
X229144Y263437D02*
X242924D01*
Y255563D02*
Y263437D01*
X229144Y255563D02*
Y263437D01*
X212003D02*
X225782D01*
X212003Y255563D02*
X225782D01*
X212003D02*
Y263437D01*
X225782Y255563D02*
Y263437D01*
X161736Y313048D02*
X168035D01*
X161736Y302418D02*
X168035D01*
Y313048D01*
X161736Y302418D02*
Y313048D01*
X153550Y301941D02*
Y319185D01*
X160636D01*
X153550Y301941D02*
X160636D01*
Y319185D01*
X173854Y323945D02*
X186058D01*
X173854Y311662D02*
X186058D01*
X173854D02*
Y323945D01*
X186058Y311662D02*
Y323945D01*
X161736Y314049D02*
Y320348D01*
X172366Y314049D02*
Y320348D01*
X161736D02*
X172366D01*
X161736Y314049D02*
X172366D01*
X193890Y294244D02*
Y299756D01*
X180110Y294244D02*
X193890D01*
X180110D02*
Y299756D01*
X193890D01*
X187850Y314638D02*
X194150D01*
X187850Y325268D02*
X194150D01*
X187850Y314638D02*
Y325268D01*
X194150Y314638D02*
Y325268D01*
X262866Y326114D02*
Y347886D01*
X296134D01*
Y326114D02*
Y347886D01*
X262866Y326114D02*
X296134D01*
X198403Y294496D02*
X204702D01*
X198403Y305126D02*
X204702D01*
X198403Y294496D02*
Y305126D01*
X204702Y294496D02*
Y305126D01*
X187654Y302728D02*
X194346D01*
X187654Y313358D02*
X194346D01*
X187654Y302728D02*
Y313358D01*
X194346Y302728D02*
Y313358D01*
X149101Y271809D02*
Y276061D01*
X148294Y271809D02*
X149101D01*
X148294Y263541D02*
Y271809D01*
Y263541D02*
X149101D01*
Y259289D02*
Y263541D01*
Y259289D02*
X160873D01*
Y263541D01*
X161680D01*
Y271809D01*
X160873D02*
X161680D01*
X160873D02*
Y276061D01*
X149101D02*
X160873D01*
X285961Y236137D02*
X306039D01*
X285961Y252278D02*
X306039D01*
Y236137D02*
Y252278D01*
X285961Y236137D02*
Y252278D01*
X323051Y334961D02*
X369114D01*
X323051D02*
Y364882D01*
X323051D02*
X369114D01*
X369114Y334961D02*
Y364882D01*
X323051Y303539D02*
X369114D01*
X323051D02*
Y333461D01*
X323051D02*
X369114D01*
X369114Y303539D02*
Y333461D01*
X323051Y233118D02*
X369114D01*
X323051D02*
Y263039D01*
X323051D02*
X369114D01*
X369114Y233118D02*
Y263039D01*
X323051Y272118D02*
X369114D01*
X323051D02*
Y302039D01*
X323051D02*
X369114D01*
X369114Y272118D02*
Y302039D01*
X270482Y298402D02*
Y306276D01*
X283868Y298402D02*
Y306276D01*
X270482D02*
X283868D01*
X270482Y298402D02*
X283868D01*
X286882Y305535D02*
X297118D01*
X286882Y322465D02*
X297118D01*
X286882Y305535D02*
Y322465D01*
X297118Y305535D02*
Y322465D01*
X286882Y287434D02*
X297118D01*
X286882Y304363D02*
X297118D01*
X286882Y287434D02*
Y304363D01*
X297118Y287434D02*
Y304363D01*
X267610Y243256D02*
X281390D01*
X267610Y237744D02*
Y243256D01*
Y237744D02*
X281390D01*
Y243256D01*
X206276Y275898D02*
X251157D01*
X206276Y320779D02*
X251157D01*
X206276Y275898D02*
Y320779D01*
X251157Y275898D02*
Y320779D01*
X208766Y335380D02*
X219396D01*
X208766Y329081D02*
X219396D01*
X208766D02*
Y335380D01*
X219396Y329081D02*
Y335380D01*
X220766Y329081D02*
X231396D01*
X220766Y335380D02*
X231396D01*
Y329081D02*
Y335380D01*
X220766Y329081D02*
Y335380D01*
X171110Y228744D02*
Y234256D01*
X184890D01*
Y228744D02*
Y234256D01*
X171110Y228744D02*
X184890D01*
M02*
