G04*
G04 #@! TF.GenerationSoftware,Altium Limited,Altium Designer,25.8.1 (18)*
G04*
G04 Layer_Physical_Order=3*
G04 Layer_Color=1382776*
%FSLAX25Y25*%
%MOIN*%
G70*
G04*
G04 #@! TF.SameCoordinates,92740163-3DE7-4DEA-950A-142008FB6929*
G04*
G04*
G04 #@! TF.FilePolarity,Positive*
G04*
G01*
G75*
%ADD27R,0.04724X0.04724*%
%ADD64C,0.06181*%
%ADD65R,0.06181X0.06181*%
%ADD68C,0.04724*%
%ADD72C,0.06102*%
%ADD73C,0.05512*%
%ADD74R,0.07087X0.07087*%
%ADD75C,0.07087*%
%ADD76R,0.06102X0.06102*%
%ADD77R,0.05512X0.05512*%
%ADD78C,0.02400*%
G36*
X344000Y232500D02*
X116500D01*
Y254496D01*
X117363Y255054D01*
X117500Y255070D01*
X118000Y254971D01*
X132867D01*
X140919Y246919D01*
X141415Y246587D01*
X142000Y246471D01*
X155000D01*
X155585Y246587D01*
X156081Y246919D01*
X156581Y247419D01*
X156913Y247915D01*
X157029Y248500D01*
Y271000D01*
X156913Y271585D01*
X156581Y272081D01*
X156085Y272413D01*
X155500Y272529D01*
X151134D01*
X148529Y275133D01*
Y279366D01*
X168581Y299419D01*
X168913Y299915D01*
X169029Y300500D01*
Y307000D01*
X168913Y307585D01*
X168581Y308081D01*
X168085Y308413D01*
X167500Y308529D01*
X154633D01*
X147057Y316106D01*
X146827Y316259D01*
X146602Y316420D01*
X146580Y316425D01*
X146561Y316437D01*
X146290Y316491D01*
X146020Y316553D01*
X144726Y316591D01*
X144652Y316579D01*
X144578Y316588D01*
X144360Y316529D01*
X144138Y316492D01*
X144074Y316452D01*
X144002Y316432D01*
X143823Y316295D01*
X143632Y316175D01*
X143589Y316114D01*
X143529Y316068D01*
X117500Y286253D01*
X116500Y286628D01*
Y365500D01*
X186973D01*
X187553Y364500D01*
X187307Y363906D01*
X187083Y362779D01*
Y361631D01*
X187307Y360504D01*
X187746Y359443D01*
X188384Y358488D01*
X189197Y357676D01*
X190152Y357038D01*
X191213Y356598D01*
X192339Y356374D01*
X193488D01*
X194614Y356598D01*
X195675Y357038D01*
X196630Y357676D01*
X197442Y358488D01*
X198081Y359443D01*
X198520Y360504D01*
X198744Y361631D01*
Y362779D01*
X198520Y363906D01*
X198274Y364500D01*
X198854Y365500D01*
X301146D01*
X301726Y364500D01*
X301480Y363906D01*
X301256Y362779D01*
Y361631D01*
X301480Y360504D01*
X301920Y359443D01*
X302558Y358488D01*
X303370Y357676D01*
X304325Y357038D01*
X305386Y356598D01*
X306512Y356374D01*
X307661D01*
X308787Y356598D01*
X309848Y357038D01*
X310804Y357676D01*
X311616Y358488D01*
X312254Y359443D01*
X312693Y360504D01*
X312917Y361631D01*
Y362779D01*
X312693Y363906D01*
X312447Y364500D01*
X313027Y365500D01*
X344000D01*
Y232500D01*
D02*
G37*
G36*
X145825Y315029D02*
X145948Y315001D01*
X145965Y315000D01*
X145978Y314988D01*
X146082Y314918D01*
X153552Y307448D01*
X153552Y307448D01*
X154000Y307000D01*
X167349D01*
X167475Y306975D01*
X167500Y306849D01*
Y300651D01*
X167472Y300512D01*
X167394Y300394D01*
X158667Y291667D01*
X147000Y280000D01*
Y274500D01*
X150500Y271000D01*
X155349D01*
X155475Y270975D01*
X155500Y270849D01*
Y248651D01*
X155472Y248512D01*
X155394Y248394D01*
X155106Y248107D01*
X154989Y248028D01*
X154849Y248000D01*
X142151D01*
X142011Y248028D01*
X141893Y248107D01*
X133500Y256500D01*
X118151D01*
X118000Y256530D01*
Y284500D01*
X134837Y303786D01*
X144615Y314986D01*
X144635Y314999D01*
X144687Y315048D01*
X144759Y315053D01*
X144783Y315059D01*
X145825Y315029D01*
D02*
G37*
%LPC*%
G36*
X332995Y358598D02*
X332006D01*
X331050Y358343D01*
X330194Y357848D01*
X329495Y357149D01*
X329000Y356292D01*
X328813Y355592D01*
X332500D01*
X336187D01*
X336000Y356292D01*
X335506Y357149D01*
X334806Y357848D01*
X333950Y358343D01*
X332995Y358598D01*
D02*
G37*
G36*
X163356Y363700D02*
X162645D01*
X161958Y363516D01*
X161342Y363160D01*
X160839Y362658D01*
X160484Y362042D01*
X160300Y361355D01*
X159717Y360558D01*
X159350Y360504D01*
X158966D01*
X158280Y360320D01*
X157664Y359965D01*
X157161Y359462D01*
X156806Y358846D01*
X156622Y358160D01*
Y357449D01*
X156806Y356762D01*
X157161Y356146D01*
X157664Y355644D01*
X158280Y355288D01*
X158966Y355104D01*
X159335D01*
X159755Y354996D01*
X160300Y354236D01*
Y354145D01*
X160484Y353458D01*
X160839Y352842D01*
X161342Y352340D01*
X161958Y351984D01*
X162645Y351800D01*
X163356D01*
X164042Y351984D01*
X164658Y352340D01*
X165161Y352842D01*
X165516Y353458D01*
X165700Y354145D01*
Y354855D01*
X165516Y355542D01*
X165161Y356158D01*
X164658Y356661D01*
X164042Y357016D01*
X163449Y357175D01*
X163099Y357718D01*
X163522Y358345D01*
X164042Y358484D01*
X164658Y358840D01*
X165161Y359342D01*
X165516Y359958D01*
X165700Y360645D01*
Y361355D01*
X165516Y362042D01*
X165161Y362658D01*
X164658Y363160D01*
X164042Y363516D01*
X163356Y363700D01*
D02*
G37*
G36*
X336187Y354093D02*
X332500D01*
X328813D01*
X329000Y353393D01*
X329495Y352536D01*
X330194Y351837D01*
X331050Y351343D01*
X332006Y351087D01*
X332995D01*
X333950Y351343D01*
X334806Y351837D01*
X335506Y352536D01*
X336000Y353393D01*
X336187Y354093D01*
D02*
G37*
G36*
X135050Y362656D02*
X119963D01*
Y347570D01*
X135050D01*
Y362656D01*
D02*
G37*
G36*
X294051Y346551D02*
X284949D01*
Y343113D01*
X283949Y342981D01*
X283741Y343757D01*
X283142Y344795D01*
X282295Y345642D01*
X281257Y346241D01*
X280099Y346551D01*
X278901D01*
X277743Y346241D01*
X276706Y345642D01*
X275858Y344795D01*
X275259Y343757D01*
X275016Y342850D01*
X273984D01*
X273741Y343757D01*
X273142Y344795D01*
X272294Y345642D01*
X271257Y346241D01*
X270099Y346551D01*
X268901D01*
X267743Y346241D01*
X266705Y345642D01*
X265858Y344795D01*
X265259Y343757D01*
X264949Y342599D01*
Y341401D01*
X265259Y340243D01*
X265858Y339206D01*
X266705Y338358D01*
X267743Y337759D01*
X268650Y337516D01*
Y336484D01*
X267743Y336241D01*
X266705Y335642D01*
X265858Y334794D01*
X265259Y333757D01*
X264949Y332599D01*
Y331401D01*
X265259Y330243D01*
X265858Y329205D01*
X266705Y328358D01*
X267743Y327759D01*
X268901Y327449D01*
X270099D01*
X271257Y327759D01*
X272294Y328358D01*
X273142Y329205D01*
X273741Y330243D01*
X273984Y331150D01*
X275016D01*
X275259Y330243D01*
X275858Y329205D01*
X276706Y328358D01*
X277743Y327759D01*
X278901Y327449D01*
X280099D01*
X281257Y327759D01*
X282295Y328358D01*
X283142Y329205D01*
X283741Y330243D01*
X284051Y331401D01*
Y332599D01*
X283741Y333757D01*
X283142Y334794D01*
X282295Y335642D01*
X281257Y336241D01*
X280350Y336484D01*
Y337516D01*
X281257Y337759D01*
X282295Y338358D01*
X283142Y339206D01*
X283741Y340243D01*
X283949Y341019D01*
X284949Y340887D01*
Y337449D01*
X294051D01*
Y346551D01*
D02*
G37*
G36*
X336756Y349256D02*
X328244D01*
Y340744D01*
X336756D01*
Y349256D01*
D02*
G37*
G36*
X290007Y335851D02*
X290000D01*
Y332500D01*
X293351D01*
Y332507D01*
X293089Y333487D01*
X292582Y334365D01*
X291865Y335082D01*
X290986Y335589D01*
X290007Y335851D01*
D02*
G37*
G36*
X289000D02*
X288993D01*
X288014Y335589D01*
X287135Y335082D01*
X286418Y334365D01*
X285911Y333487D01*
X285649Y332507D01*
Y332500D01*
X289000D01*
Y335851D01*
D02*
G37*
G36*
X229389Y334930D02*
X228678D01*
X227992Y334746D01*
X227376Y334391D01*
X226873Y333888D01*
X226518Y333273D01*
X226334Y332586D01*
Y331875D01*
X226518Y331188D01*
X226873Y330573D01*
X227376Y330070D01*
X227992Y329714D01*
X228678Y329530D01*
X229389D01*
X230076Y329714D01*
X230692Y330070D01*
X231194Y330573D01*
X231550Y331188D01*
X231734Y331875D01*
Y332586D01*
X231550Y333273D01*
X231194Y333888D01*
X230692Y334391D01*
X230076Y334746D01*
X229389Y334930D01*
D02*
G37*
G36*
X211484D02*
X210773D01*
X210086Y334746D01*
X209471Y334391D01*
X208968Y333888D01*
X208612Y333273D01*
X208428Y332586D01*
Y331875D01*
X208612Y331188D01*
X208968Y330573D01*
X209471Y330070D01*
X210086Y329714D01*
X210773Y329530D01*
X211484D01*
X212171Y329714D01*
X212786Y330070D01*
X213289Y330573D01*
X213644Y331188D01*
X213828Y331875D01*
Y332586D01*
X213644Y333273D01*
X213289Y333888D01*
X212786Y334391D01*
X212171Y334746D01*
X211484Y334930D01*
D02*
G37*
G36*
X243889Y333733D02*
X243178D01*
X242492Y333548D01*
X241876Y333193D01*
X241373Y332690D01*
X241018Y332075D01*
X240834Y331388D01*
Y330677D01*
X241018Y329990D01*
X241373Y329375D01*
X241876Y328872D01*
X242492Y328517D01*
X243178Y328332D01*
X243889D01*
X244576Y328517D01*
X245192Y328872D01*
X245694Y329375D01*
X246050Y329990D01*
X246234Y330677D01*
Y331388D01*
X246050Y332075D01*
X245694Y332690D01*
X245192Y333193D01*
X244576Y333548D01*
X243889Y333733D01*
D02*
G37*
G36*
X236389D02*
X235678D01*
X234992Y333548D01*
X234376Y333193D01*
X233873Y332690D01*
X233518Y332075D01*
X233334Y331388D01*
Y330677D01*
X233518Y329990D01*
X233873Y329375D01*
X234376Y328872D01*
X234992Y328517D01*
X235678Y328332D01*
X236389D01*
X237076Y328517D01*
X237692Y328872D01*
X238194Y329375D01*
X238550Y329990D01*
X238734Y330677D01*
Y331388D01*
X238550Y332075D01*
X238194Y332690D01*
X237692Y333193D01*
X237076Y333548D01*
X236389Y333733D01*
D02*
G37*
G36*
X293351Y331500D02*
X290000D01*
Y328149D01*
X290007D01*
X290986Y328411D01*
X291865Y328918D01*
X292582Y329635D01*
X293089Y330514D01*
X293351Y331493D01*
Y331500D01*
D02*
G37*
G36*
X289000D02*
X285649D01*
Y331493D01*
X285911Y330514D01*
X286418Y329635D01*
X287135Y328918D01*
X288014Y328411D01*
X288993Y328149D01*
X289000D01*
Y331500D01*
D02*
G37*
G36*
X128250Y342656D02*
X126764D01*
X125306Y342367D01*
X123933Y341798D01*
X122698Y340972D01*
X121647Y339922D01*
X120822Y338686D01*
X120253Y337314D01*
X119963Y335856D01*
Y334370D01*
X120253Y332913D01*
X120822Y331540D01*
X121647Y330305D01*
X122698Y329254D01*
X123933Y328428D01*
X125306Y327860D01*
X126764Y327570D01*
X128250D01*
X129707Y327860D01*
X131080Y328428D01*
X132315Y329254D01*
X133366Y330305D01*
X134191Y331540D01*
X134760Y332913D01*
X135050Y334370D01*
Y335856D01*
X134760Y337314D01*
X134191Y338686D01*
X133366Y339922D01*
X132315Y340972D01*
X131080Y341798D01*
X129707Y342367D01*
X128250Y342656D01*
D02*
G37*
G36*
X332995Y327177D02*
X332006D01*
X331050Y326921D01*
X330194Y326427D01*
X329495Y325727D01*
X329000Y324871D01*
X328813Y324171D01*
X332500D01*
X336187D01*
X336000Y324871D01*
X335506Y325727D01*
X334806Y326427D01*
X333950Y326921D01*
X332995Y327177D01*
D02*
G37*
G36*
X230177Y327630D02*
X229466D01*
X228779Y327446D01*
X228163Y327091D01*
X227661Y326588D01*
X227305Y325972D01*
X227121Y325286D01*
Y324575D01*
X227305Y323888D01*
X227661Y323272D01*
X228163Y322770D01*
X228779Y322414D01*
X229466Y322230D01*
X230177D01*
X230863Y322414D01*
X231479Y322770D01*
X231982Y323272D01*
X232337Y323888D01*
X232521Y324575D01*
Y325286D01*
X232337Y325972D01*
X231982Y326588D01*
X231479Y327091D01*
X230863Y327446D01*
X230177Y327630D01*
D02*
G37*
G36*
X210672D02*
X209961D01*
X209274Y327446D01*
X208659Y327091D01*
X208156Y326588D01*
X207800Y325972D01*
X207616Y325286D01*
Y324575D01*
X207800Y323888D01*
X208156Y323272D01*
X208659Y322770D01*
X209274Y322414D01*
X209961Y322230D01*
X210672D01*
X211358Y322414D01*
X211974Y322770D01*
X212477Y323272D01*
X212832Y323888D01*
X213016Y324575D01*
Y325286D01*
X212832Y325972D01*
X212477Y326588D01*
X211974Y327091D01*
X211358Y327446D01*
X210672Y327630D01*
D02*
G37*
G36*
X191356Y325605D02*
X190645D01*
X189958Y325421D01*
X189342Y325066D01*
X188839Y324563D01*
X188484Y323948D01*
X188300Y323261D01*
Y322550D01*
X188484Y321863D01*
X188839Y321248D01*
X189342Y320745D01*
X189958Y320389D01*
X190645Y320205D01*
X191356D01*
X192042Y320389D01*
X192658Y320745D01*
X193160Y321248D01*
X193516Y321863D01*
X193700Y322550D01*
Y323261D01*
X193516Y323948D01*
X193160Y324563D01*
X192658Y325066D01*
X192042Y325421D01*
X191356Y325605D01*
D02*
G37*
G36*
X336187Y322671D02*
X332500D01*
X328813D01*
X329000Y321972D01*
X329495Y321115D01*
X330194Y320416D01*
X331050Y319921D01*
X332006Y319665D01*
X332995D01*
X333950Y319921D01*
X334806Y320416D01*
X335506Y321115D01*
X336000Y321972D01*
X336187Y322671D01*
D02*
G37*
G36*
X184248Y324244D02*
X183537D01*
X182851Y324060D01*
X182235Y323704D01*
X181732Y323202D01*
X181377Y322586D01*
X181193Y321899D01*
Y321188D01*
X181377Y320502D01*
X181732Y319886D01*
X182235Y319383D01*
X182851Y319028D01*
X183537Y318844D01*
X184248D01*
X184935Y319028D01*
X185551Y319383D01*
X186054Y319886D01*
X186409Y320502D01*
X186593Y321188D01*
Y321899D01*
X186409Y322586D01*
X186054Y323202D01*
X185551Y323704D01*
X184935Y324060D01*
X184248Y324244D01*
D02*
G37*
G36*
X227497Y317771D02*
X226786D01*
X226099Y317587D01*
X225484Y317231D01*
X224981Y316729D01*
X224626Y316113D01*
X224442Y315426D01*
Y314715D01*
X224626Y314029D01*
X224981Y313413D01*
X225484Y312910D01*
X226099Y312555D01*
X226786Y312371D01*
X227497D01*
X228184Y312555D01*
X228800Y312910D01*
X229302Y313413D01*
X229658Y314029D01*
X229842Y314715D01*
Y315426D01*
X229658Y316113D01*
X229302Y316729D01*
X228800Y317231D01*
X228184Y317587D01*
X227497Y317771D01*
D02*
G37*
G36*
X336756Y317835D02*
X328244D01*
Y309323D01*
X336756D01*
Y317835D01*
D02*
G37*
G36*
X274184Y305039D02*
X273473D01*
X272786Y304855D01*
X272171Y304500D01*
X271668Y303997D01*
X271313Y303382D01*
X271129Y302695D01*
Y301984D01*
X271313Y301297D01*
X271668Y300682D01*
X272171Y300179D01*
X272786Y299823D01*
X273473Y299639D01*
X274184D01*
X274871Y299823D01*
X275486Y300179D01*
X275989Y300682D01*
X276345Y301297D01*
X276529Y301984D01*
Y302695D01*
X276345Y303382D01*
X275989Y303997D01*
X275486Y304500D01*
X274871Y304855D01*
X274184Y305039D01*
D02*
G37*
G36*
X312343Y306276D02*
X304618D01*
Y298551D01*
X312343D01*
Y306276D01*
D02*
G37*
G36*
X266392Y302200D02*
X265681D01*
X264994Y302016D01*
X264378Y301660D01*
X263876Y301158D01*
X263520Y300542D01*
X263336Y299855D01*
Y299145D01*
X263520Y298458D01*
X263876Y297842D01*
X264378Y297340D01*
X264994Y296984D01*
X265681Y296800D01*
X266392D01*
X267078Y296984D01*
X267694Y297340D01*
X268197Y297842D01*
X268552Y298458D01*
X268736Y299145D01*
Y299855D01*
X268552Y300542D01*
X268197Y301158D01*
X267694Y301660D01*
X267078Y302016D01*
X266392Y302200D01*
D02*
G37*
G36*
X191489Y299700D02*
X190778D01*
X190092Y299516D01*
X189476Y299161D01*
X188973Y298658D01*
X188618Y298042D01*
X188434Y297356D01*
Y296644D01*
X188618Y295958D01*
X188973Y295342D01*
X189476Y294840D01*
X190092Y294484D01*
X190778Y294300D01*
X191489D01*
X192176Y294484D01*
X192792Y294840D01*
X193294Y295342D01*
X193650Y295958D01*
X193834Y296644D01*
Y297356D01*
X193650Y298042D01*
X193294Y298658D01*
X192792Y299161D01*
X192176Y299516D01*
X191489Y299700D01*
D02*
G37*
G36*
X277137Y294708D02*
X276426D01*
X275739Y294524D01*
X275124Y294169D01*
X274621Y293666D01*
X274265Y293051D01*
X274081Y292364D01*
Y291653D01*
X274265Y290966D01*
X274621Y290351D01*
X275124Y289848D01*
X275739Y289492D01*
X276426Y289308D01*
X277137D01*
X277824Y289492D01*
X278439Y289848D01*
X278942Y290351D01*
X279297Y290966D01*
X279481Y291653D01*
Y292364D01*
X279297Y293051D01*
X278942Y293666D01*
X278439Y294169D01*
X277824Y294524D01*
X277137Y294708D01*
D02*
G37*
G36*
X308989Y296276D02*
X307972D01*
X306990Y296012D01*
X306109Y295504D01*
X305390Y294785D01*
X304881Y293904D01*
X304618Y292922D01*
Y291905D01*
X304881Y290923D01*
X305390Y290042D01*
X306109Y289323D01*
X306990Y288814D01*
X307972Y288551D01*
X308989D01*
X309971Y288814D01*
X310852Y289323D01*
X311571Y290042D01*
X312079Y290923D01*
X312343Y291905D01*
Y292922D01*
X312079Y293904D01*
X311571Y294785D01*
X310852Y295504D01*
X309971Y296012D01*
X308989Y296276D01*
D02*
G37*
G36*
X333060Y296256D02*
X331940D01*
X330857Y295966D01*
X329887Y295406D01*
X329094Y294613D01*
X328534Y293643D01*
X328244Y292560D01*
Y291440D01*
X328534Y290357D01*
X329094Y289387D01*
X329887Y288594D01*
X330857Y288034D01*
X331940Y287744D01*
X333060D01*
X334143Y288034D01*
X335113Y288594D01*
X335906Y289387D01*
X336466Y290357D01*
X336756Y291440D01*
Y292560D01*
X336466Y293643D01*
X335906Y294613D01*
X335113Y295406D01*
X334143Y295966D01*
X333060Y296256D01*
D02*
G37*
G36*
X194549Y292200D02*
X193838D01*
X193152Y292016D01*
X192536Y291660D01*
X192033Y291158D01*
X191678Y290542D01*
X191494Y289856D01*
Y289144D01*
X191678Y288458D01*
X192033Y287842D01*
X192536Y287339D01*
X193152Y286984D01*
X193838Y286800D01*
X194549D01*
X195236Y286984D01*
X195852Y287339D01*
X196354Y287842D01*
X196710Y288458D01*
X196894Y289144D01*
Y289856D01*
X196710Y290542D01*
X196354Y291158D01*
X195852Y291660D01*
X195236Y292016D01*
X194549Y292200D01*
D02*
G37*
G36*
X230647Y284306D02*
X229936D01*
X229249Y284122D01*
X228633Y283767D01*
X228131Y283264D01*
X227775Y282648D01*
X227655Y282201D01*
X226628D01*
X226508Y282648D01*
X226153Y283264D01*
X225650Y283767D01*
X225034Y284122D01*
X224347Y284306D01*
X223637D01*
X222950Y284122D01*
X222334Y283767D01*
X221831Y283264D01*
X221476Y282648D01*
X221292Y281962D01*
Y281251D01*
X221476Y280564D01*
X221831Y279948D01*
X222334Y279446D01*
X222950Y279090D01*
X223637Y278906D01*
X224347D01*
X225034Y279090D01*
X225650Y279446D01*
X226153Y279948D01*
X226508Y280564D01*
X226628Y281011D01*
X227655D01*
X227775Y280564D01*
X228131Y279948D01*
X228633Y279446D01*
X229249Y279090D01*
X229936Y278906D01*
X230647D01*
X231333Y279090D01*
X231949Y279446D01*
X232452Y279948D01*
X232807Y280564D01*
X232991Y281251D01*
Y281962D01*
X232807Y282648D01*
X232452Y283264D01*
X231949Y283767D01*
X231333Y284122D01*
X230647Y284306D01*
D02*
G37*
G36*
X255663Y286200D02*
X254953D01*
X254266Y286016D01*
X253650Y285661D01*
X253147Y285158D01*
X252792Y284542D01*
X252608Y283856D01*
Y283144D01*
X252792Y282458D01*
X253147Y281842D01*
X253650Y281340D01*
X254266Y280984D01*
X254953Y280800D01*
X255663D01*
X256350Y280984D01*
X256966Y281340D01*
X257469Y281842D01*
X257824Y282458D01*
X258008Y283144D01*
Y283856D01*
X257824Y284542D01*
X257469Y285158D01*
X256966Y285661D01*
X256350Y286016D01*
X255663Y286200D01*
D02*
G37*
G36*
X308989Y286276D02*
X307972D01*
X306990Y286012D01*
X306109Y285504D01*
X305390Y284785D01*
X304881Y283904D01*
X304618Y282922D01*
Y281905D01*
X304881Y280923D01*
X305390Y280042D01*
X306109Y279323D01*
X306990Y278814D01*
X307972Y278551D01*
X308989D01*
X309971Y278814D01*
X310852Y279323D01*
X311571Y280042D01*
X312079Y280923D01*
X312343Y281905D01*
Y282922D01*
X312079Y283904D01*
X311571Y284785D01*
X310852Y285504D01*
X309971Y286012D01*
X308989Y286276D01*
D02*
G37*
G36*
X336756Y286413D02*
X328244D01*
Y277902D01*
X336756D01*
Y286413D01*
D02*
G37*
G36*
X154356Y280200D02*
X153645D01*
X152958Y280016D01*
X152342Y279661D01*
X151839Y279158D01*
X151484Y278542D01*
X151300Y277855D01*
Y277145D01*
X151484Y276458D01*
X151839Y275842D01*
X152342Y275340D01*
X152958Y274984D01*
X153645Y274800D01*
X154356D01*
X155042Y274984D01*
X155658Y275340D01*
X156160Y275842D01*
X156516Y276458D01*
X156700Y277145D01*
Y277855D01*
X156516Y278542D01*
X156160Y279158D01*
X155658Y279661D01*
X155042Y280016D01*
X154356Y280200D01*
D02*
G37*
G36*
X228615Y274200D02*
X227904D01*
X227218Y274016D01*
X226602Y273660D01*
X226099Y273158D01*
X225744Y272542D01*
X225560Y271855D01*
Y271145D01*
X225744Y270458D01*
X226099Y269842D01*
X226602Y269339D01*
X227218Y268984D01*
X227904Y268800D01*
X228615D01*
X229302Y268984D01*
X229918Y269339D01*
X230420Y269842D01*
X230776Y270458D01*
X230960Y271145D01*
Y271855D01*
X230776Y272542D01*
X230420Y273158D01*
X229918Y273660D01*
X229302Y274016D01*
X228615Y274200D01*
D02*
G37*
G36*
X216591D02*
X215880D01*
X215193Y274016D01*
X214577Y273660D01*
X214075Y273158D01*
X213719Y272542D01*
X213535Y271855D01*
Y271145D01*
X213719Y270458D01*
X214075Y269842D01*
X214577Y269339D01*
X215193Y268984D01*
X215880Y268800D01*
X216591D01*
X217277Y268984D01*
X217893Y269339D01*
X218396Y269842D01*
X218751Y270458D01*
X218935Y271145D01*
Y271855D01*
X218751Y272542D01*
X218396Y273158D01*
X217893Y273660D01*
X217277Y274016D01*
X216591Y274200D01*
D02*
G37*
G36*
X273855Y271460D02*
X273145D01*
X272458Y271276D01*
X271842Y270920D01*
X271340Y270418D01*
X270984Y269802D01*
X270800Y269115D01*
Y268404D01*
X270984Y267718D01*
X271340Y267102D01*
X271842Y266599D01*
X272458Y266244D01*
X273145Y266060D01*
X273855D01*
X274542Y266244D01*
X275158Y266599D01*
X275660Y267102D01*
X276016Y267718D01*
X276200Y268404D01*
Y269115D01*
X276016Y269802D01*
X275660Y270418D01*
X275158Y270920D01*
X274542Y271276D01*
X273855Y271460D01*
D02*
G37*
G36*
X203591Y283350D02*
X194409D01*
Y274169D01*
X197588D01*
X197720Y273169D01*
X197228Y273038D01*
X196181Y272433D01*
X195327Y271579D01*
X194722Y270532D01*
X194409Y269364D01*
Y268156D01*
X194722Y266988D01*
X195327Y265941D01*
X196181Y265087D01*
X197228Y264482D01*
X198396Y264169D01*
X199604D01*
X200772Y264482D01*
X201819Y265087D01*
X202673Y265941D01*
X203278Y266988D01*
X203591Y268156D01*
Y269364D01*
X203278Y270532D01*
X202673Y271579D01*
X201819Y272433D01*
X200772Y273038D01*
X200280Y273169D01*
X200412Y274169D01*
X203591D01*
Y283350D01*
D02*
G37*
G36*
X233141Y262200D02*
X232430D01*
X231744Y262016D01*
X231128Y261661D01*
X230625Y261158D01*
X230270Y260542D01*
X230086Y259856D01*
Y259144D01*
X230270Y258458D01*
X230625Y257842D01*
X231128Y257340D01*
X231744Y256984D01*
X232430Y256800D01*
X233141D01*
X233828Y256984D01*
X234444Y257340D01*
X234946Y257842D01*
X235302Y258458D01*
X235486Y259144D01*
Y259856D01*
X235302Y260542D01*
X234946Y261158D01*
X234444Y261661D01*
X233828Y262016D01*
X233141Y262200D01*
D02*
G37*
G36*
X222496D02*
X221785D01*
X221099Y262016D01*
X220483Y261661D01*
X219980Y261158D01*
X219625Y260542D01*
X219441Y259856D01*
Y259144D01*
X219625Y258458D01*
X219980Y257842D01*
X220483Y257340D01*
X221099Y256984D01*
X221785Y256800D01*
X222496D01*
X223183Y256984D01*
X223799Y257340D01*
X224301Y257842D01*
X224657Y258458D01*
X224841Y259144D01*
Y259856D01*
X224657Y260542D01*
X224301Y261158D01*
X223799Y261661D01*
X223183Y262016D01*
X222496Y262200D01*
D02*
G37*
G36*
X292615Y259129D02*
X291904D01*
X291218Y258945D01*
X290602Y258589D01*
X290099Y258087D01*
X289744Y257471D01*
X289560Y256784D01*
Y256073D01*
X289744Y255387D01*
X290099Y254771D01*
X290602Y254268D01*
X291218Y253913D01*
X291904Y253729D01*
X292615D01*
X293302Y253913D01*
X293918Y254268D01*
X294420Y254771D01*
X294776Y255387D01*
X294960Y256073D01*
Y256784D01*
X294776Y257471D01*
X294420Y258087D01*
X293918Y258589D01*
X293302Y258945D01*
X292615Y259129D01*
D02*
G37*
G36*
X333060Y257256D02*
X331940D01*
X330857Y256966D01*
X329887Y256406D01*
X329094Y255613D01*
X328534Y254643D01*
X328244Y253560D01*
Y252440D01*
X328534Y251357D01*
X329094Y250387D01*
X329887Y249594D01*
X330857Y249034D01*
X331940Y248744D01*
X333060D01*
X334143Y249034D01*
X335113Y249594D01*
X335906Y250387D01*
X336466Y251357D01*
X336756Y252440D01*
Y253560D01*
X336466Y254643D01*
X335906Y255613D01*
X335113Y256406D01*
X334143Y256966D01*
X333060Y257256D01*
D02*
G37*
G36*
X172855Y247700D02*
X172144D01*
X171458Y247516D01*
X171000Y247252D01*
X170542Y247516D01*
X169855Y247700D01*
X169144D01*
X168458Y247516D01*
X167842Y247161D01*
X167340Y246658D01*
X166984Y246042D01*
X166800Y245356D01*
Y244644D01*
X166984Y243958D01*
X167340Y243342D01*
X167842Y242840D01*
X168300Y242575D01*
Y242144D01*
X168484Y241458D01*
X168840Y240842D01*
X169342Y240339D01*
X169958Y239984D01*
X170644Y239800D01*
X171355D01*
X172042Y239984D01*
X172658Y240339D01*
X173161Y240842D01*
X173516Y241458D01*
X173700Y242144D01*
Y242575D01*
X174158Y242840D01*
X174661Y243342D01*
X175016Y243958D01*
X175200Y244644D01*
Y245356D01*
X175016Y246042D01*
X174661Y246658D01*
X174158Y247161D01*
X173542Y247516D01*
X172855Y247700D01*
D02*
G37*
G36*
X336756Y247413D02*
X328244D01*
Y238902D01*
X336756D01*
Y247413D01*
D02*
G37*
G36*
X278989Y243200D02*
X278278D01*
X277592Y243016D01*
X276976Y242660D01*
X276473Y242158D01*
X276118Y241542D01*
X275934Y240856D01*
Y240144D01*
X276118Y239458D01*
X276473Y238842D01*
X276976Y238339D01*
X277592Y237984D01*
X278278Y237800D01*
X278989D01*
X279676Y237984D01*
X280292Y238339D01*
X280794Y238842D01*
X281150Y239458D01*
X281334Y240144D01*
Y240856D01*
X281150Y241542D01*
X280794Y242158D01*
X280292Y242660D01*
X279676Y243016D01*
X278989Y243200D01*
D02*
G37*
G36*
X290548Y243167D02*
X289837D01*
X289151Y242983D01*
X288535Y242628D01*
X288032Y242125D01*
X287677Y241509D01*
X287493Y240823D01*
Y240112D01*
X287677Y239425D01*
X288032Y238809D01*
X288535Y238307D01*
X289151Y237951D01*
X289837Y237767D01*
X290548D01*
X291235Y237951D01*
X291851Y238307D01*
X292354Y238809D01*
X292709Y239425D01*
X292893Y240112D01*
Y240823D01*
X292709Y241509D01*
X292354Y242125D01*
X291851Y242628D01*
X291235Y242983D01*
X290548Y243167D01*
D02*
G37*
G36*
X127235Y251452D02*
X125749D01*
X124292Y251163D01*
X122919Y250594D01*
X121684Y249768D01*
X120633Y248718D01*
X119807Y247482D01*
X119239Y246109D01*
X118949Y244652D01*
Y243166D01*
X119239Y241709D01*
X119807Y240336D01*
X120633Y239101D01*
X121684Y238050D01*
X122919Y237224D01*
X124292Y236656D01*
X125749Y236366D01*
X127235D01*
X128692Y236656D01*
X130065Y237224D01*
X131301Y238050D01*
X132351Y239101D01*
X133177Y240336D01*
X133746Y241709D01*
X134035Y243166D01*
Y244652D01*
X133746Y246109D01*
X133177Y247482D01*
X132351Y248718D01*
X131301Y249768D01*
X130065Y250594D01*
X128692Y251163D01*
X127235Y251452D01*
D02*
G37*
G36*
X137074Y292331D02*
X135926D01*
X134799Y292107D01*
X133738Y291667D01*
X132783Y291029D01*
X131971Y290217D01*
X131333Y289262D01*
X130893Y288201D01*
X130669Y287074D01*
Y285926D01*
X130893Y284799D01*
X131333Y283738D01*
X131971Y282783D01*
X132783Y281971D01*
X133738Y281333D01*
X134799Y280893D01*
X135926Y280669D01*
X137074D01*
X138201Y280893D01*
X139262Y281333D01*
X140217Y281971D01*
X141029Y282783D01*
X141667Y283738D01*
X142107Y284799D01*
X142331Y285926D01*
Y287074D01*
X142107Y288201D01*
X141667Y289262D01*
X141029Y290217D01*
X140217Y291029D01*
X139262Y291667D01*
X138201Y292107D01*
X137074Y292331D01*
D02*
G37*
G36*
X131535Y268952D02*
X127742D01*
Y265159D01*
X131535D01*
Y268952D01*
D02*
G37*
G36*
X125242D02*
X121449D01*
Y265159D01*
X125242D01*
Y268952D01*
D02*
G37*
G36*
X131535Y262659D02*
X127742D01*
Y258866D01*
X131535D01*
Y262659D01*
D02*
G37*
G36*
X125242D02*
X121449D01*
Y258866D01*
X125242D01*
Y262659D01*
D02*
G37*
%LPD*%
D27*
X308480Y302413D02*
D03*
D64*
X199000Y268760D02*
D03*
D65*
Y278760D02*
D03*
D68*
X308480Y282413D02*
D03*
Y292413D02*
D03*
D72*
X269500Y332000D02*
D03*
X289500D02*
D03*
X279500Y342000D02*
D03*
X269500D02*
D03*
X279500Y332000D02*
D03*
D73*
X332500Y292000D02*
D03*
Y253000D02*
D03*
Y323421D02*
D03*
Y354842D02*
D03*
D74*
X127507Y355113D02*
D03*
X126492Y263909D02*
D03*
D75*
Y243909D02*
D03*
X127507Y335113D02*
D03*
D76*
X289500Y342000D02*
D03*
D77*
X332500Y243158D02*
D03*
Y345000D02*
D03*
Y313579D02*
D03*
Y282157D02*
D03*
D78*
X191134Y297000D02*
D03*
X273829Y302339D02*
D03*
X243534Y331032D02*
D03*
X276781Y292008D02*
D03*
X266036Y299500D02*
D03*
X255308Y283500D02*
D03*
X236034Y331032D02*
D03*
X229821Y324930D02*
D03*
X229034Y332230D02*
D03*
X230291Y281606D02*
D03*
X227142Y315071D02*
D03*
X223992Y281606D02*
D03*
X273500Y268760D02*
D03*
X232786Y259500D02*
D03*
X292260Y256429D02*
D03*
X290193Y240467D02*
D03*
X278634Y240500D02*
D03*
X228260Y271500D02*
D03*
X222141Y259500D02*
D03*
X211128Y332230D02*
D03*
X210316Y324930D02*
D03*
X191000Y322905D02*
D03*
X183893Y321544D02*
D03*
X163000Y361000D02*
D03*
Y354500D02*
D03*
X159322Y357804D02*
D03*
X154000Y277500D02*
D03*
X216235Y271500D02*
D03*
X172500Y245000D02*
D03*
X171000Y242500D02*
D03*
X169500Y245000D02*
D03*
X201552Y302764D02*
D03*
X149356Y252523D02*
D03*
X157093Y304126D02*
D03*
X164885Y304780D02*
D03*
X146000Y308500D02*
D03*
Y304500D02*
D03*
Y312000D02*
D03*
X194194Y289500D02*
D03*
X183840Y245759D02*
D03*
X186000Y242500D02*
D03*
X181500D02*
D03*
X292000Y317740D02*
D03*
X299740Y256429D02*
D03*
X301807Y247948D02*
D03*
X273500Y276240D02*
D03*
X276781Y282831D02*
D03*
X255308Y274500D02*
D03*
X235740Y271500D02*
D03*
X223715D02*
D03*
X233441Y281606D02*
D03*
X236591Y315071D02*
D03*
X243534Y323552D02*
D03*
X227142Y281606D02*
D03*
M02*
