G04*
G04 #@! TF.GenerationSoftware,Altium Limited,Altium Designer,25.8.1 (18)*
G04*
G04 Layer_Physical_Order=2*
G04 Layer_Color=32768*
%FSLAX25Y25*%
%MOIN*%
G70*
G04*
G04 #@! TF.SameCoordinates,FC6DE8EC-1D21-457F-8DA0-3020905E36BC*
G04*
G04*
G04 #@! TF.FilePolarity,Negative*
G04*
G01*
G75*
%ADD81C,0.04000*%
%ADD82C,0.11661*%
%ADD83C,0.15118*%
G04:AMPARAMS|DCode=84|XSize=121.181mil|YSize=121.181mil|CornerRadius=0mil|HoleSize=0mil|Usage=FLASHONLY|Rotation=0.000|XOffset=0mil|YOffset=0mil|HoleType=Round|Shape=Relief|Width=20mil|Gap=15mil|Entries=4|*
%AMTHD84*
7,0,0,0.12118,0.09118,0.02000,45*
%
%ADD84THD84*%
G04:AMPARAMS|DCode=85|XSize=80.157mil|YSize=80.157mil|CornerRadius=0mil|HoleSize=0mil|Usage=FLASHONLY|Rotation=0.000|XOffset=0mil|YOffset=0mil|HoleType=Round|Shape=Relief|Width=10mil|Gap=8mil|Entries=4|*
%AMTHD85*
7,0,0,0.08016,0.06416,0.01000,45*
%
%ADD85THD85*%
G04:AMPARAMS|DCode=86|XSize=75.433mil|YSize=75.433mil|CornerRadius=0mil|HoleSize=0mil|Usage=FLASHONLY|Rotation=0.000|XOffset=0mil|YOffset=0mil|HoleType=Round|Shape=Relief|Width=10mil|Gap=8mil|Entries=4|*
%AMTHD86*
7,0,0,0.07543,0.05943,0.01000,45*
%
%ADD86THD86*%
%ADD87C,0.07016*%
%ADD88C,0.06543*%
%ADD89C,0.05756*%
%ADD90C,0.04200*%
D81*
X108000Y222500D02*
X372500D01*
Y375500D01*
X108000D02*
X372500D01*
X108000Y222500D02*
Y375500D01*
D82*
X180500Y234000D02*
D03*
X307087Y362000D02*
D03*
X190500D02*
D03*
D03*
D83*
X127507Y335113D02*
D03*
X126492Y263909D02*
D03*
D84*
X127507Y355113D02*
D03*
X126492Y243909D02*
D03*
D85*
X269500Y332000D02*
D03*
D86*
X332500Y253000D02*
D03*
Y292000D02*
D03*
D87*
X289500Y342000D02*
D03*
X279500D02*
D03*
X269500D02*
D03*
X279500Y332000D02*
D03*
X289500D02*
D03*
X188500Y285500D02*
D03*
X198500D02*
D03*
D88*
X332500Y354842D02*
D03*
Y323421D02*
D03*
Y243158D02*
D03*
Y345000D02*
D03*
Y313579D02*
D03*
Y282157D02*
D03*
D89*
X308480Y282413D02*
D03*
Y292413D02*
D03*
Y302413D02*
D03*
D90*
X186307Y247500D02*
D03*
X149000Y305500D02*
D03*
X164885Y304780D02*
D03*
X157093Y304126D02*
D03*
X145428Y303063D02*
D03*
Y308063D02*
D03*
Y313063D02*
D03*
X148500Y263000D02*
D03*
X151000D02*
D03*
X146000D02*
D03*
X149000Y251523D02*
D03*
X146000Y266000D02*
D03*
X202107Y296764D02*
D03*
X201996Y302780D02*
D03*
X187500Y257500D02*
D03*
Y263500D02*
D03*
X187585Y270583D02*
D03*
X150760Y277047D02*
D03*
X204839Y268882D02*
D03*
X227142Y281606D02*
D03*
X243534Y323552D02*
D03*
X236591Y315071D02*
D03*
X233441Y281606D02*
D03*
X223715Y271500D02*
D03*
X235740D02*
D03*
X255308Y274500D02*
D03*
X276781Y282831D02*
D03*
X273500Y276240D02*
D03*
X301807Y247948D02*
D03*
X299740Y256429D02*
D03*
X292000Y317740D02*
D03*
M02*
