G04*
G04 #@! TF.GenerationSoftware,Altium Limited,Altium Designer,25.8.1 (18)*
G04*
G04 Layer_Color=0*
%FSLAX25Y25*%
%MOIN*%
G70*
G04*
G04 #@! TF.SameCoordinates,92740163-3DE7-4DEA-950A-142008FB6929*
G04*
G04*
G04 #@! TF.FilePolarity,Positive*
G04*
G01*
G75*
%ADD80C,0.00394*%
D80*
X147388Y247500D02*
X151325D01*
X149356Y245532D02*
Y249468D01*
X158861Y242000D02*
X162798D01*
X160830Y240032D02*
Y243969D01*
X161531Y286500D02*
X165469D01*
X163500Y284531D02*
Y288469D01*
X172031Y270013D02*
X175969D01*
X174000Y268045D02*
Y271982D01*
X187531Y235339D02*
X191469D01*
X189500Y233370D02*
Y237307D01*
X132771Y310563D02*
X136708D01*
X134739Y308594D02*
Y312531D01*
X197031Y273760D02*
X200969D01*
X199000Y271791D02*
Y275728D01*
X176500Y249031D02*
Y252969D01*
X174531Y251000D02*
X178469D01*
X177692Y305090D02*
X181629D01*
X179661Y303121D02*
Y307059D01*
X271532Y272500D02*
X275468D01*
X273500Y270532D02*
Y274468D01*
X261410Y290032D02*
Y293969D01*
X259442Y292000D02*
X263379D01*
X260426Y281532D02*
Y285469D01*
X258458Y283500D02*
X262395D01*
X260426Y272532D02*
Y276468D01*
X258458Y274500D02*
X262395D01*
X261410Y297532D02*
Y301468D01*
X259442Y299500D02*
X263379D01*
X294032Y256429D02*
X297969D01*
X296000Y254460D02*
Y258397D01*
X308500Y290445D02*
Y294382D01*
X306532Y292413D02*
X310469D01*
X274813Y287420D02*
X278750D01*
X276781Y285451D02*
Y289388D01*
X274500Y246029D02*
Y249966D01*
X272532Y247997D02*
X276468D01*
X228816Y242280D02*
Y246217D01*
X226847Y244248D02*
X230784D01*
X214056Y322962D02*
Y326899D01*
X212088Y324930D02*
X216025D01*
X226081Y322962D02*
Y326899D01*
X224113Y324930D02*
X228050D01*
X236034Y325324D02*
Y329261D01*
X234065Y327292D02*
X238002D01*
X243534Y325324D02*
Y329261D01*
X241565Y327292D02*
X245502D01*
X218007Y271500D02*
X221944D01*
X219975Y269531D02*
Y273468D01*
X230031Y271500D02*
X233968D01*
X232000Y269531D02*
Y273468D01*
M02*
