G04*
G04 #@! TF.GenerationSoftware,Altium Limited,Altium Designer,25.8.1 (18)*
G04*
G04 Layer_Physical_Order=1*
G04 Layer_Color=255*
%FSLAX25Y25*%
%MOIN*%
G70*
G04*
G04 #@! TF.SameCoordinates,FC6DE8EC-1D21-457F-8DA0-3020905E36BC*
G04*
G04*
G04 #@! TF.FilePolarity,Positive*
G04*
G01*
G75*
%ADD15R,0.03228X0.01614*%
%ADD16C,0.14389*%
%ADD17R,0.12598X0.11221*%
%ADD18R,0.04803X0.03583*%
%ADD19R,0.04921X0.03937*%
%ADD20R,0.03937X0.04921*%
%ADD21R,0.06693X0.09843*%
%ADD22R,0.06717X0.04546*%
%ADD23R,0.04724X0.04724*%
%ADD24R,0.02756X0.05118*%
%ADD25O,0.02362X0.07677*%
%ADD26R,0.04528X0.04528*%
%ADD27R,0.05512X0.06496*%
G04:AMPARAMS|DCode=28|XSize=48.81mil|YSize=20.7mil|CornerRadius=10.35mil|HoleSize=0mil|Usage=FLASHONLY|Rotation=270.000|XOffset=0mil|YOffset=0mil|HoleType=Round|Shape=RoundedRectangle|*
%AMROUNDEDRECTD28*
21,1,0.04881,0.00000,0,0,270.0*
21,1,0.02811,0.02070,0,0,270.0*
1,1,0.02070,0.00000,-0.01405*
1,1,0.02070,0.00000,0.01405*
1,1,0.02070,0.00000,0.01405*
1,1,0.02070,0.00000,-0.01405*
%
%ADD28ROUNDEDRECTD28*%
G04:AMPARAMS|DCode=29|XSize=25.59mil|YSize=47.24mil|CornerRadius=1.92mil|HoleSize=0mil|Usage=FLASHONLY|Rotation=90.000|XOffset=0mil|YOffset=0mil|HoleType=Round|Shape=RoundedRectangle|*
%AMROUNDEDRECTD29*
21,1,0.02559,0.04341,0,0,90.0*
21,1,0.02175,0.04724,0,0,90.0*
1,1,0.00384,0.02170,0.01088*
1,1,0.00384,0.02170,-0.01088*
1,1,0.00384,-0.02170,-0.01088*
1,1,0.00384,-0.02170,0.01088*
%
%ADD29ROUNDEDRECTD29*%
%ADD30R,0.05118X0.02756*%
%ADD31R,0.03543X0.03150*%
%ADD32R,0.04724X0.05709*%
%ADD33R,0.04134X0.06299*%
G04:AMPARAMS|DCode=34|XSize=57.09mil|YSize=23.23mil|CornerRadius=2.9mil|HoleSize=0mil|Usage=FLASHONLY|Rotation=270.000|XOffset=0mil|YOffset=0mil|HoleType=Round|Shape=RoundedRectangle|*
%AMROUNDEDRECTD34*
21,1,0.05709,0.01742,0,0,270.0*
21,1,0.05128,0.02323,0,0,270.0*
1,1,0.00581,-0.00871,-0.02564*
1,1,0.00581,-0.00871,0.02564*
1,1,0.00581,0.00871,0.02564*
1,1,0.00581,0.00871,-0.02564*
%
%ADD34ROUNDEDRECTD34*%
%ADD35R,0.03740X0.05709*%
%ADD36R,0.04558X0.05363*%
%ADD37R,0.07284X0.16142*%
%ADD38R,0.06102X0.05512*%
%ADD39R,0.05315X0.03937*%
%ADD40O,0.07677X0.02362*%
%ADD41R,0.02070X0.04881*%
%ADD42R,0.04528X0.05315*%
%ADD43R,0.22047X0.08268*%
%ADD64R,0.06181X0.06181*%
%ADD65C,0.06181*%
%ADD67C,0.04724*%
%ADD68C,0.05000*%
%ADD69C,0.01000*%
%ADD70C,0.02400*%
%ADD71C,0.10000*%
%ADD72C,0.01200*%
%ADD73C,0.07500*%
%ADD74C,0.07087*%
%ADD75R,0.07087X0.07087*%
%ADD76C,0.06102*%
%ADD77C,0.05512*%
%ADD78R,0.06102X0.06102*%
%ADD79R,0.05512X0.05512*%
%ADD80C,0.02400*%
G36*
X135940Y318557D02*
X138735D01*
Y310563D01*
Y302569D01*
X135940D01*
Y300226D01*
X133538D01*
Y302569D01*
X124444D01*
Y300720D01*
X122436D01*
Y320405D01*
X124444D01*
Y318557D01*
X133538D01*
Y320899D01*
X135940D01*
Y318557D01*
D02*
G37*
G36*
X153500Y307000D02*
X164000D01*
Y302500D01*
X144000D01*
Y314000D01*
X147000D01*
X153500Y307000D01*
D02*
G37*
G36*
X177000Y256500D02*
X164500Y250000D01*
X158000Y260000D01*
X157250Y270750D01*
X170500Y277000D01*
Y284000D01*
X175000D01*
X177000Y256500D01*
D02*
G37*
G36*
X155500Y249000D02*
X142000D01*
Y271000D01*
X155500D01*
Y249000D01*
D02*
G37*
G36*
X191000Y248500D02*
X190500Y248000D01*
X184500D01*
X184000Y248500D01*
Y272500D01*
X191000D01*
Y248500D01*
D02*
G37*
D15*
X145428Y303063D02*
D03*
Y308063D02*
D03*
Y313063D02*
D03*
Y318063D02*
D03*
D16*
X130563Y310563D02*
D03*
D17*
X159315Y334576D02*
D03*
Y357804D02*
D03*
D18*
X157093Y317000D02*
D03*
Y304126D02*
D03*
D19*
X164885Y310686D02*
D03*
X191000Y322905D02*
D03*
X164885Y304780D02*
D03*
X191000Y317000D02*
D03*
X201996Y296875D02*
D03*
Y302780D02*
D03*
D20*
X164098Y317199D02*
D03*
X229034Y332230D02*
D03*
X211128D02*
D03*
X170004Y317199D02*
D03*
X223128Y332230D02*
D03*
X217034D02*
D03*
D21*
X161000Y254874D02*
D03*
Y239126D02*
D03*
D22*
X149000Y251523D02*
D03*
Y241477D02*
D03*
D23*
X205134Y259500D02*
D03*
X278634Y240500D02*
D03*
X183794Y297195D02*
D03*
X175527D02*
D03*
X270366Y240500D02*
D03*
X196866Y259500D02*
D03*
X308480Y302413D02*
D03*
D24*
X292260Y256429D02*
D03*
X229821Y324930D02*
D03*
X210316D02*
D03*
X216235Y271500D02*
D03*
X228260D02*
D03*
X235740D02*
D03*
X223715D02*
D03*
X299740Y256429D02*
D03*
X222341Y324930D02*
D03*
X217797D02*
D03*
D25*
X223992Y281606D02*
D03*
X230291D02*
D03*
X227142Y315071D02*
D03*
X236591D02*
D03*
X233441Y281606D02*
D03*
X227142D02*
D03*
X220842Y315071D02*
D03*
X217693D02*
D03*
X220842Y281606D02*
D03*
X236591D02*
D03*
X239740D02*
D03*
X233441Y315071D02*
D03*
X230291D02*
D03*
X223992D02*
D03*
X217693Y281606D02*
D03*
X239740Y315071D02*
D03*
D26*
X266036Y299500D02*
D03*
X256784Y292000D02*
D03*
X266036D02*
D03*
X256784Y299500D02*
D03*
D27*
X255308Y283500D02*
D03*
X255308Y274500D02*
D03*
X265544Y283500D02*
D03*
X265544Y274500D02*
D03*
D28*
X276781Y292008D02*
D03*
Y282831D02*
D03*
X280522D02*
D03*
X273041D02*
D03*
Y292008D02*
D03*
D29*
X290193Y240467D02*
D03*
X301807Y247948D02*
D03*
Y240467D02*
D03*
X290193Y247948D02*
D03*
Y244207D02*
D03*
D30*
X273500Y268760D02*
D03*
X236034Y331032D02*
D03*
X243534D02*
D03*
X273500Y276240D02*
D03*
X243534Y323552D02*
D03*
X236034D02*
D03*
D31*
X183893Y321544D02*
D03*
X176019Y317804D02*
D03*
X183893Y314064D02*
D03*
D32*
X273829Y302339D02*
D03*
X280522D02*
D03*
D33*
X174693Y247500D02*
D03*
X186307D02*
D03*
D34*
X154500Y277047D02*
D03*
X150760Y267953D02*
D03*
X154500D02*
D03*
X158240D02*
D03*
Y277047D02*
D03*
X150760D02*
D03*
D35*
X175822Y305090D02*
D03*
X183499D02*
D03*
X204839Y268882D02*
D03*
X278339Y247997D02*
D03*
X270661D02*
D03*
X197161Y268882D02*
D03*
D36*
X166243Y280254D02*
D03*
X172757D02*
D03*
D37*
X173167Y263587D02*
D03*
X187537D02*
D03*
D38*
X292000Y317740D02*
D03*
Y310260D02*
D03*
Y299638D02*
D03*
Y292158D02*
D03*
D39*
X191000Y305090D02*
D03*
Y310996D02*
D03*
D40*
X211984Y296764D02*
D03*
X245449Y293614D02*
D03*
Y287315D02*
D03*
Y290465D02*
D03*
Y296764D02*
D03*
Y299913D02*
D03*
Y303063D02*
D03*
Y306213D02*
D03*
Y309362D02*
D03*
X211984D02*
D03*
Y306213D02*
D03*
Y303063D02*
D03*
Y299913D02*
D03*
Y293614D02*
D03*
Y290465D02*
D03*
Y287315D02*
D03*
D41*
X280522Y292008D02*
D03*
D42*
X234742Y259500D02*
D03*
X229034D02*
D03*
X216632D02*
D03*
X222341D02*
D03*
D43*
X247517Y244248D02*
D03*
X210115D02*
D03*
D64*
X188500Y285500D02*
D03*
D65*
X198500D02*
D03*
D67*
X308480Y282413D02*
D03*
Y292413D02*
D03*
D68*
X164503Y280072D02*
G03*
X159500Y278000I0J-7075D01*
G01*
X164503Y280072D02*
X166062D01*
X166243Y280254D01*
D69*
X108000Y222500D02*
X372500D01*
X108000Y375500D02*
X372500D01*
Y222500D02*
Y375500D01*
X108000Y222500D02*
Y375500D01*
D70*
X154539Y277086D02*
Y281539D01*
X154500Y277047D02*
X154539Y277086D01*
Y281539D02*
X155500Y282500D01*
D71*
X127507Y355113D02*
X135935D01*
X138015Y357194D01*
X158712D02*
X159322Y357804D01*
X138015Y357194D02*
X158712D01*
X129862Y311263D02*
Y332757D01*
X130563Y310563D02*
X131000Y311000D01*
X129862Y311263D02*
X130563Y310563D01*
X127507Y335113D02*
X129862Y332757D01*
X127507Y335113D02*
X158777D01*
X159315Y334576D01*
D72*
X170004Y317199D02*
X170609Y317804D01*
X176019D01*
X157093Y317000D02*
X163899D01*
X164098Y317199D01*
X145635Y317856D02*
X156237D01*
X145428Y318063D02*
X145635Y317856D01*
X156237D02*
X157093Y317000D01*
X164098Y317199D02*
X164885Y316411D01*
Y310686D02*
Y316411D01*
X175527Y297195D02*
Y304795D01*
X175822Y305090D01*
X183499D02*
X191000D01*
X190508Y317000D02*
X191000D01*
X183893Y314064D02*
X187572D01*
X190508Y317000D01*
X191000Y310996D02*
Y317000D01*
X199472Y306459D02*
X202376Y309362D01*
X192368Y306459D02*
X199472D01*
X191000Y305090D02*
X192368Y306459D01*
X202376Y309362D02*
X211984D01*
X205120Y293306D02*
X205428Y293614D01*
X188500Y285500D02*
X196306Y293306D01*
X205120D01*
X205428Y293614D02*
X211984D01*
X198500Y285500D02*
X203465Y290465D01*
X211984D01*
X201996Y296875D02*
X202107Y296764D01*
X211984D01*
X196866Y268586D02*
X197161Y268882D01*
X196866Y259500D02*
Y268586D01*
X234742Y259500D02*
Y259894D01*
X239740Y264891D01*
Y281606D01*
X236368Y277943D02*
Y281384D01*
X234096Y275671D02*
X236368Y277943D01*
X233712Y275671D02*
X234096D01*
X231440Y273400D02*
X233712Y275671D01*
X231440Y268480D02*
Y273400D01*
X229181Y266221D02*
X231440Y268480D01*
X236368Y281384D02*
X236591Y281606D01*
X221878Y266221D02*
X229181D01*
X218296Y262639D02*
X221878Y266221D01*
X218296Y261164D02*
Y262639D01*
X216632Y259500D02*
X218296Y261164D01*
X222341Y259500D02*
X229034D01*
X213098Y244248D02*
X216632Y247782D01*
Y259500D01*
X210115Y244248D02*
X213098D01*
X236406Y248469D02*
Y257836D01*
X240627Y244248D02*
X247517D01*
X234742Y259500D02*
X236406Y257836D01*
Y248469D02*
X240627Y244248D01*
X265544Y274500D02*
X265544Y274500D01*
X265544Y274500D02*
Y283500D01*
X272639D02*
X273041Y283098D01*
Y282831D02*
Y283098D01*
X265544Y283500D02*
X272639D01*
X256784Y292000D02*
Y299500D01*
X266036Y292000D02*
X266045Y292008D01*
X273041D01*
X217034Y332230D02*
X218402Y333599D01*
Y334196D01*
X233057Y348851D02*
X328649D01*
X332500Y345000D01*
X218402Y334196D02*
X233057Y348851D01*
X223128Y332230D02*
X224497Y333599D01*
Y334385D01*
X236763Y346651D01*
X299428D01*
X332500Y313579D01*
X245761Y315071D02*
X267341Y336651D01*
X274151D01*
X239740Y315071D02*
X245761D01*
X274151Y336651D02*
X279500Y342000D01*
X253440Y309362D02*
X274543Y330466D01*
Y333621D01*
X277660Y336738D01*
X280816D01*
X283627Y339549D01*
X287049D01*
X245449Y309362D02*
X253440D01*
X287049Y339549D02*
X289500Y342000D01*
X245449Y306213D02*
X253713D01*
X279500Y332000D01*
X308480Y292413D02*
Y302413D01*
Y282413D02*
X332244D01*
X332500Y282157D01*
X329810Y240467D02*
X332500Y243158D01*
X301807Y240467D02*
X329810D01*
X270366Y240500D02*
Y247702D01*
X270661Y247997D01*
X278339D02*
Y248981D01*
X266867Y260453D02*
X278339Y248981D01*
X261089Y260453D02*
X266867D01*
X250887Y270654D02*
X261089Y260453D01*
X250887Y270654D02*
Y291617D01*
X249112Y293392D02*
X250887Y291617D01*
X245671Y293392D02*
X249112D01*
X245449Y293614D02*
X245671Y293392D01*
X283252Y245743D02*
X284787Y244207D01*
X278339Y247013D02*
X279609Y245743D01*
X278339Y247013D02*
Y247997D01*
X284787Y244207D02*
X290193D01*
X279609Y245743D02*
X283252D01*
X289110Y247948D02*
X290193D01*
X280522Y256536D02*
Y282831D01*
Y256536D02*
X289110Y247948D01*
X289844Y297482D02*
X292000Y299638D01*
X288831Y297482D02*
X289844D01*
X283357Y292008D02*
X288831Y297482D01*
X280522Y292008D02*
X283357D01*
X291705Y299638D02*
X292000D01*
X280522Y302339D02*
X289004D01*
X291705Y299638D01*
X292000D02*
Y310260D01*
X292255Y292413D02*
X308480D01*
X292000Y292158D02*
X292255Y292413D01*
X230514Y315293D02*
Y319213D01*
X234853Y323552D02*
X236034D01*
X230291Y315071D02*
X230514Y315293D01*
Y319213D02*
X234853Y323552D01*
X222341Y320571D02*
Y324930D01*
X221065Y319295D02*
X222341Y320571D01*
X221065Y315293D02*
Y319295D01*
X220842Y315071D02*
X221065Y315293D01*
X223128Y326899D02*
Y332230D01*
X222341Y326111D02*
X223128Y326899D01*
X222341Y324930D02*
Y326111D01*
X217797Y324930D02*
Y331468D01*
X217034Y332230D02*
X217797Y331468D01*
X217745Y315123D02*
Y324878D01*
X217797Y324930D01*
X217693Y315071D02*
X217745Y315123D01*
D73*
X145091Y263909D02*
X146000Y263000D01*
X126492Y263909D02*
X145091D01*
D74*
X127507Y335113D02*
D03*
X126492Y243909D02*
D03*
D75*
X127507Y355113D02*
D03*
X126492Y263909D02*
D03*
D76*
X269500Y332000D02*
D03*
X279500Y342000D02*
D03*
X269500D02*
D03*
X279500Y332000D02*
D03*
X289500D02*
D03*
D77*
X332500Y253000D02*
D03*
Y292000D02*
D03*
Y354842D02*
D03*
Y323421D02*
D03*
D78*
X289500Y342000D02*
D03*
D79*
X332500Y243158D02*
D03*
Y345000D02*
D03*
Y313579D02*
D03*
Y282157D02*
D03*
D80*
X155500Y282500D02*
D03*
X154500Y277047D02*
D03*
X174693Y247500D02*
D03*
X186307D02*
D03*
X159322Y357804D02*
D03*
X149000Y305500D02*
D03*
X164885Y304780D02*
D03*
X157093Y304126D02*
D03*
X145428Y303063D02*
D03*
Y308063D02*
D03*
Y313063D02*
D03*
X183794Y297195D02*
D03*
X183893Y321544D02*
D03*
X191000Y322905D02*
D03*
X149000Y241477D02*
D03*
X161000Y239126D02*
D03*
X278634Y240500D02*
D03*
X290193Y240467D02*
D03*
X292260Y256429D02*
D03*
X273500Y268760D02*
D03*
X276781Y292008D02*
D03*
X255308Y283500D02*
D03*
X266036Y299500D02*
D03*
X273829Y302339D02*
D03*
X205134Y259500D02*
D03*
X216235Y271500D02*
D03*
X228260D02*
D03*
X230291Y281606D02*
D03*
X236034Y331032D02*
D03*
X243534D02*
D03*
X229034Y332230D02*
D03*
X211128D02*
D03*
X210316Y324930D02*
D03*
X229821D02*
D03*
X227142Y315071D02*
D03*
X163000Y361000D02*
D03*
Y354500D02*
D03*
X148500Y263000D02*
D03*
X151000D02*
D03*
X146000D02*
D03*
X149000Y251523D02*
D03*
X146000Y266000D02*
D03*
X202107Y296764D02*
D03*
X201996Y302780D02*
D03*
X187500Y257500D02*
D03*
Y263500D02*
D03*
X187585Y270583D02*
D03*
X150760Y277047D02*
D03*
X204839Y268882D02*
D03*
X227142Y281606D02*
D03*
X243534Y323552D02*
D03*
X236591Y315071D02*
D03*
X233441Y281606D02*
D03*
X223715Y271500D02*
D03*
X235740D02*
D03*
X255308Y274500D02*
D03*
X276781Y282831D02*
D03*
X273500Y276240D02*
D03*
X301807Y247948D02*
D03*
X299740Y256429D02*
D03*
X292000Y317740D02*
D03*
M02*
