G04*
G04 #@! TF.GenerationSoftware,Altium Limited,Altium Designer,25.8.1 (18)*
G04*
G04 Layer_Color=2752767*
%FSLAX25Y25*%
%MOIN*%
G70*
G04*
G04 #@! TF.SameCoordinates,92740163-3DE7-4DEA-950A-142008FB6929*
G04*
G04*
G04 #@! TF.FilePolarity,Positive*
G04*
G01*
G75*
%ADD14C,0.00500*%
%ADD83C,0.00667*%
D14*
X269500Y330000D02*
X267500Y334000D01*
X271500D01*
X269500Y330000D01*
X125507Y353113D02*
Y357113D01*
X129507D01*
Y353113D01*
X125507D01*
X124492Y241909D02*
Y245909D01*
X128492D01*
Y241909D01*
X124492D01*
X289500Y330000D02*
X287500Y334000D01*
X291500D01*
X289500Y330000D01*
X134500Y284500D02*
X135500D01*
X136500Y285500D01*
X137500Y284500D01*
X138500D01*
Y285500D01*
X137500Y286500D01*
X138500Y287500D01*
Y288500D01*
X137500D01*
X136500Y287500D01*
X135500Y288500D01*
X134500D01*
Y287500D01*
X135500Y286500D01*
X134500Y285500D01*
Y284500D01*
X124492Y261909D02*
Y265909D01*
X128492D01*
Y261909D01*
X124492D01*
X199000Y266760D02*
X197000Y270760D01*
X201000D01*
X199000Y266760D01*
Y276760D02*
X197000Y280760D01*
X201000D01*
X199000Y276760D01*
X125507Y333113D02*
Y337113D01*
X129507D01*
Y333113D01*
X125507D01*
X305087Y360205D02*
X306087D01*
X307087Y361205D01*
X308087Y360205D01*
X309087D01*
Y361205D01*
X308087Y362205D01*
X309087Y363205D01*
Y364205D01*
X308087D01*
X307087Y363205D01*
X306087Y364205D01*
X305087D01*
Y363205D01*
X306087Y362205D01*
X305087Y361205D01*
Y360205D01*
X190913D02*
X191913D01*
X192913Y361205D01*
X193913Y360205D01*
X194913D01*
Y361205D01*
X193913Y362205D01*
X194913Y363205D01*
Y364205D01*
X193913D01*
X192913Y363205D01*
X191913Y364205D01*
X190913D01*
Y363205D01*
X191913Y362205D01*
X190913Y361205D01*
Y360205D01*
X289500Y340000D02*
X287500Y344000D01*
X291500D01*
X289500Y340000D01*
X279500D02*
X277500Y344000D01*
X281500D01*
X279500Y340000D01*
X269500D02*
X267500Y344000D01*
X271500D01*
X269500Y340000D01*
X279500Y330000D02*
X277500Y334000D01*
X281500D01*
X279500Y330000D01*
X308480Y280413D02*
X309480Y281413D01*
X310480D01*
X309480Y282413D01*
X310480Y283413D01*
X309480D01*
X308480Y284413D01*
X307480Y283413D01*
X306480D01*
X307480Y282413D01*
X306480Y281413D01*
X307480D01*
X308480Y280413D01*
Y290413D02*
X309480Y291413D01*
X310480D01*
X309480Y292413D01*
X310480Y293413D01*
X309480D01*
X308480Y294413D01*
X307480Y293413D01*
X306480D01*
X307480Y292413D01*
X306480Y291413D01*
X307480D01*
X308480Y290413D01*
Y300413D02*
X309480Y301413D01*
X310480D01*
X309480Y302413D01*
X310480Y303413D01*
X309480D01*
X308480Y304413D01*
X307480Y303413D01*
X306480D01*
X307480Y302413D01*
X306480Y301413D01*
X307480D01*
X308480Y300413D01*
X189134Y295000D02*
X190134Y297000D01*
X189134Y299000D01*
X191134Y298000D01*
X193134Y299000D01*
X192134Y297000D01*
X193134Y295000D01*
X191134Y296000D01*
X189134Y295000D01*
X271829Y300339D02*
X272829Y302339D01*
X271829Y304339D01*
X273829Y303339D01*
X275829Y304339D01*
X274829Y302339D01*
X275829Y300339D01*
X273829Y301339D01*
X271829Y300339D01*
X241534Y329032D02*
X242534Y331032D01*
X241534Y333032D01*
X243534Y332032D01*
X245534Y333032D01*
X244534Y331032D01*
X245534Y329032D01*
X243534Y330032D01*
X241534Y329032D01*
X274781Y290008D02*
X275781Y292008D01*
X274781Y294008D01*
X276781Y293008D01*
X278781Y294008D01*
X277781Y292008D01*
X278781Y290008D01*
X276781Y291008D01*
X274781Y290008D01*
X264036Y297500D02*
X265036Y299500D01*
X264036Y301500D01*
X266036Y300500D01*
X268036Y301500D01*
X267036Y299500D01*
X268036Y297500D01*
X266036Y298500D01*
X264036Y297500D01*
X253308Y281500D02*
X254308Y283500D01*
X253308Y285500D01*
X255308Y284500D01*
X257308Y285500D01*
X256308Y283500D01*
X257308Y281500D01*
X255308Y282500D01*
X253308Y281500D01*
X234034Y329032D02*
X235034Y331032D01*
X234034Y333032D01*
X236034Y332032D01*
X238034Y333032D01*
X237034Y331032D01*
X238034Y329032D01*
X236034Y330032D01*
X234034Y329032D01*
X227821Y322930D02*
X228821Y324930D01*
X227821Y326930D01*
X229821Y325930D01*
X231821Y326930D01*
X230821Y324930D01*
X231821Y322930D01*
X229821Y323930D01*
X227821Y322930D01*
X227034Y330230D02*
X228034Y332230D01*
X227034Y334230D01*
X229034Y333230D01*
X231034Y334230D01*
X230034Y332230D01*
X231034Y330230D01*
X229034Y331230D01*
X227034Y330230D01*
X228291Y279606D02*
X229291Y281606D01*
X228291Y283606D01*
X230291Y282606D01*
X232291Y283606D01*
X231291Y281606D01*
X232291Y279606D01*
X230291Y280606D01*
X228291Y279606D01*
X225142Y313071D02*
X226142Y315071D01*
X225142Y317071D01*
X227142Y316071D01*
X229142Y317071D01*
X228142Y315071D01*
X229142Y313071D01*
X227142Y314071D01*
X225142Y313071D01*
X221992Y279606D02*
X222992Y281606D01*
X221992Y283606D01*
X223992Y282606D01*
X225992Y283606D01*
X224992Y281606D01*
X225992Y279606D01*
X223992Y280606D01*
X221992Y279606D01*
X271500Y266760D02*
X272500Y268760D01*
X271500Y270760D01*
X273500Y269760D01*
X275500Y270760D01*
X274500Y268760D01*
X275500Y266760D01*
X273500Y267760D01*
X271500Y266760D01*
X230786Y257500D02*
X231786Y259500D01*
X230786Y261500D01*
X232786Y260500D01*
X234786Y261500D01*
X233786Y259500D01*
X234786Y257500D01*
X232786Y258500D01*
X230786Y257500D01*
X290260Y254429D02*
X291260Y256429D01*
X290260Y258429D01*
X292260Y257429D01*
X294260Y258429D01*
X293260Y256429D01*
X294260Y254429D01*
X292260Y255429D01*
X290260Y254429D01*
X288193Y238467D02*
X289193Y240467D01*
X288193Y242467D01*
X290193Y241467D01*
X292193Y242467D01*
X291193Y240467D01*
X292193Y238467D01*
X290193Y239467D01*
X288193Y238467D01*
X276634Y238500D02*
X277634Y240500D01*
X276634Y242500D01*
X278634Y241500D01*
X280634Y242500D01*
X279634Y240500D01*
X280634Y238500D01*
X278634Y239500D01*
X276634Y238500D01*
X226260Y269500D02*
X227260Y271500D01*
X226260Y273500D01*
X228260Y272500D01*
X230260Y273500D01*
X229260Y271500D01*
X230260Y269500D01*
X228260Y270500D01*
X226260Y269500D01*
X220141Y257500D02*
X221141Y259500D01*
X220141Y261500D01*
X222141Y260500D01*
X224141Y261500D01*
X223141Y259500D01*
X224141Y257500D01*
X222141Y258500D01*
X220141Y257500D01*
X209128Y330230D02*
X210128Y332230D01*
X209128Y334230D01*
X211128Y333230D01*
X213128Y334230D01*
X212128Y332230D01*
X213128Y330230D01*
X211128Y331230D01*
X209128Y330230D01*
X208316Y322930D02*
X209316Y324930D01*
X208316Y326930D01*
X210316Y325930D01*
X212316Y326930D01*
X211316Y324930D01*
X212316Y322930D01*
X210316Y323930D01*
X208316Y322930D01*
X189000Y320905D02*
X190000Y322905D01*
X189000Y324905D01*
X191000Y323905D01*
X193000Y324905D01*
X192000Y322905D01*
X193000Y320905D01*
X191000Y321905D01*
X189000Y320905D01*
X181893Y319544D02*
X182893Y321544D01*
X181893Y323544D01*
X183893Y322544D01*
X185893Y323544D01*
X184893Y321544D01*
X185893Y319544D01*
X183893Y320544D01*
X181893Y319544D01*
X161000Y359000D02*
X162000Y361000D01*
X161000Y363000D01*
X163000Y362000D01*
X165000Y363000D01*
X164000Y361000D01*
X165000Y359000D01*
X163000Y360000D01*
X161000Y359000D01*
Y352500D02*
X162000Y354500D01*
X161000Y356500D01*
X163000Y355500D01*
X165000Y356500D01*
X164000Y354500D01*
X165000Y352500D01*
X163000Y353500D01*
X161000Y352500D01*
X157322Y355804D02*
X158322Y357804D01*
X157322Y359804D01*
X159322Y358804D01*
X161322Y359804D01*
X160322Y357804D01*
X161322Y355804D01*
X159322Y356804D01*
X157322Y355804D01*
X152000Y275500D02*
X153000Y277500D01*
X152000Y279500D01*
X154000Y278500D01*
X156000Y279500D01*
X155000Y277500D01*
X156000Y275500D01*
X154000Y276500D01*
X152000Y275500D01*
X214235Y269500D02*
X215235Y271500D01*
X214235Y273500D01*
X216235Y272500D01*
X218235Y273500D01*
X217235Y271500D01*
X218235Y269500D01*
X216235Y270500D01*
X214235Y269500D01*
X170500Y243000D02*
X171500Y245000D01*
X170500Y247000D01*
X172500Y246000D01*
X174500Y247000D01*
X173500Y245000D01*
X174500Y243000D01*
X172500Y244000D01*
X170500Y243000D01*
X169000Y240500D02*
X170000Y242500D01*
X169000Y244500D01*
X171000Y243500D01*
X173000Y244500D01*
X172000Y242500D01*
X173000Y240500D01*
X171000Y241500D01*
X169000Y240500D01*
X167500Y243000D02*
X168500Y245000D01*
X167500Y247000D01*
X169500Y246000D01*
X171500Y247000D01*
X170500Y245000D01*
X171500Y243000D01*
X169500Y244000D01*
X167500Y243000D01*
X199552Y300764D02*
X200552Y302764D01*
X199552Y304764D01*
X201552Y303764D01*
X203552Y304764D01*
X202552Y302764D01*
X203552Y300764D01*
X201552Y301764D01*
X199552Y300764D01*
X147356Y250523D02*
X148356Y252523D01*
X147356Y254523D01*
X149356Y253523D01*
X151356Y254523D01*
X150356Y252523D01*
X151356Y250523D01*
X149356Y251523D01*
X147356Y250523D01*
X155093Y302126D02*
X156093Y304126D01*
X155093Y306126D01*
X157093Y305126D01*
X159093Y306126D01*
X158093Y304126D01*
X159093Y302126D01*
X157093Y303126D01*
X155093Y302126D01*
X162885Y302780D02*
X163885Y304780D01*
X162885Y306780D01*
X164885Y305780D01*
X166885Y306780D01*
X165885Y304780D01*
X166885Y302780D01*
X164885Y303780D01*
X162885Y302780D01*
X144000Y306500D02*
X145000Y308500D01*
X144000Y310500D01*
X146000Y309500D01*
X148000Y310500D01*
X147000Y308500D01*
X148000Y306500D01*
X146000Y307500D01*
X144000Y306500D01*
Y302500D02*
X145000Y304500D01*
X144000Y306500D01*
X146000Y305500D01*
X148000Y306500D01*
X147000Y304500D01*
X148000Y302500D01*
X146000Y303500D01*
X144000Y302500D01*
Y310000D02*
X145000Y312000D01*
X144000Y314000D01*
X146000Y313000D01*
X148000Y314000D01*
X147000Y312000D01*
X148000Y310000D01*
X146000Y311000D01*
X144000Y310000D01*
X192194Y287500D02*
X193194Y289500D01*
X192194Y291500D01*
X194194Y290500D01*
X196194Y291500D01*
X195194Y289500D01*
X196194Y287500D01*
X194194Y288500D01*
X192194Y287500D01*
X181840Y243759D02*
X182840Y245759D01*
X181840Y247759D01*
X183840Y246759D01*
X185840Y247759D01*
X184840Y245759D01*
X185840Y243759D01*
X183840Y244759D01*
X181840Y243759D01*
X184000Y240500D02*
X185000Y242500D01*
X184000Y244500D01*
X186000Y243500D01*
X188000Y244500D01*
X187000Y242500D01*
X188000Y240500D01*
X186000Y241500D01*
X184000Y240500D01*
X179500D02*
X180500Y242500D01*
X179500Y244500D01*
X181500Y243500D01*
X183500Y244500D01*
X182500Y242500D01*
X183500Y240500D01*
X181500Y241500D01*
X179500Y240500D01*
X290000Y315740D02*
X291000Y317740D01*
X290000Y319740D01*
X292000Y318740D01*
X294000Y319740D01*
X293000Y317740D01*
X294000Y315740D01*
X292000Y316740D01*
X290000Y315740D01*
X297740Y254429D02*
X298740Y256429D01*
X297740Y258429D01*
X299740Y257429D01*
X301740Y258429D01*
X300740Y256429D01*
X301740Y254429D01*
X299740Y255429D01*
X297740Y254429D01*
X299807Y245948D02*
X300807Y247948D01*
X299807Y249948D01*
X301807Y248948D01*
X303807Y249948D01*
X302807Y247948D01*
X303807Y245948D01*
X301807Y246948D01*
X299807Y245948D01*
X271500Y274240D02*
X272500Y276240D01*
X271500Y278240D01*
X273500Y277240D01*
X275500Y278240D01*
X274500Y276240D01*
X275500Y274240D01*
X273500Y275240D01*
X271500Y274240D01*
X274781Y280831D02*
X275781Y282831D01*
X274781Y284831D01*
X276781Y283831D01*
X278781Y284831D01*
X277781Y282831D01*
X278781Y280831D01*
X276781Y281831D01*
X274781Y280831D01*
X253308Y272500D02*
X254308Y274500D01*
X253308Y276500D01*
X255308Y275500D01*
X257308Y276500D01*
X256308Y274500D01*
X257308Y272500D01*
X255308Y273500D01*
X253308Y272500D01*
X233740Y269500D02*
X234740Y271500D01*
X233740Y273500D01*
X235740Y272500D01*
X237740Y273500D01*
X236740Y271500D01*
X237740Y269500D01*
X235740Y270500D01*
X233740Y269500D01*
X221715D02*
X222715Y271500D01*
X221715Y273500D01*
X223715Y272500D01*
X225715Y273500D01*
X224715Y271500D01*
X225715Y269500D01*
X223715Y270500D01*
X221715Y269500D01*
X231441Y279606D02*
X232441Y281606D01*
X231441Y283606D01*
X233441Y282606D01*
X235441Y283606D01*
X234441Y281606D01*
X235441Y279606D01*
X233441Y280606D01*
X231441Y279606D01*
X234591Y313071D02*
X235591Y315071D01*
X234591Y317071D01*
X236591Y316071D01*
X238591Y317071D01*
X237591Y315071D01*
X238591Y313071D01*
X236591Y314071D01*
X234591Y313071D01*
X241534Y321552D02*
X242534Y323552D01*
X241534Y325552D01*
X243534Y324552D01*
X245534Y325552D01*
X244534Y323552D01*
X245534Y321552D01*
X243534Y322552D01*
X241534Y321552D01*
X225142Y279606D02*
X226142Y281606D01*
X225142Y283606D01*
X227142Y282606D01*
X229142Y283606D01*
X228142Y281606D01*
X229142Y279606D01*
X227142Y280606D01*
X225142Y279606D01*
D83*
X334500Y292000D02*
G03*
X334500Y292000I-2000J0D01*
G01*
Y253000D02*
G03*
X334500Y253000I-2000J0D01*
G01*
Y323421D02*
G03*
X334500Y323421I-2000J0D01*
G01*
Y354842D02*
G03*
X334500Y354842I-2000J0D01*
G01*
Y243158D02*
G03*
X334500Y243158I-2000J0D01*
G01*
Y345000D02*
G03*
X334500Y345000I-2000J0D01*
G01*
Y313579D02*
G03*
X334500Y313579I-2000J0D01*
G01*
Y282157D02*
G03*
X334500Y282157I-2000J0D01*
G01*
M02*
