G04*
G04 #@! TF.GenerationSoftware,Altium Limited,Altium Designer,25.8.1 (18)*
G04*
G04 Layer_Physical_Order=1*
G04 Layer_Color=255*
%FSLAX25Y25*%
%MOIN*%
G70*
G04*
G04 #@! TF.SameCoordinates,92740163-3DE7-4DEA-950A-142008FB6929*
G04*
G04*
G04 #@! TF.FilePolarity,Positive*
G04*
G01*
G75*
%ADD15R,0.06717X0.04546*%
%ADD16R,0.06693X0.09843*%
%ADD17R,0.04724X0.05709*%
%ADD18R,0.05118X0.02756*%
%ADD19R,0.04528X0.04528*%
G04:AMPARAMS|DCode=20|XSize=48.81mil|YSize=20.7mil|CornerRadius=10.35mil|HoleSize=0mil|Usage=FLASHONLY|Rotation=270.000|XOffset=0mil|YOffset=0mil|HoleType=Round|Shape=RoundedRectangle|*
%AMROUNDEDRECTD20*
21,1,0.04881,0.00000,0,0,270.0*
21,1,0.02811,0.02070,0,0,270.0*
1,1,0.02070,0.00000,-0.01405*
1,1,0.02070,0.00000,0.01405*
1,1,0.02070,0.00000,0.01405*
1,1,0.02070,0.00000,-0.01405*
%
%ADD20ROUNDEDRECTD20*%
%ADD21R,0.05512X0.06496*%
%ADD22R,0.03937X0.04921*%
%ADD23R,0.02756X0.05118*%
%ADD24O,0.02362X0.07677*%
%ADD25R,0.05315X0.05709*%
G04:AMPARAMS|DCode=26|XSize=25.59mil|YSize=47.24mil|CornerRadius=1.92mil|HoleSize=0mil|Usage=FLASHONLY|Rotation=90.000|XOffset=0mil|YOffset=0mil|HoleType=Round|Shape=RoundedRectangle|*
%AMROUNDEDRECTD26*
21,1,0.02559,0.04341,0,0,90.0*
21,1,0.02175,0.04724,0,0,90.0*
1,1,0.00384,0.02170,0.01088*
1,1,0.00384,0.02170,-0.01088*
1,1,0.00384,-0.02170,-0.01088*
1,1,0.00384,-0.02170,0.01088*
%
%ADD26ROUNDEDRECTD26*%
%ADD27R,0.04724X0.04724*%
%ADD28R,0.04921X0.03937*%
%ADD29R,0.03543X0.03150*%
%ADD30R,0.12598X0.11221*%
%ADD31R,0.04935X0.07103*%
G04:AMPARAMS|DCode=32|XSize=57.09mil|YSize=23.23mil|CornerRadius=2.9mil|HoleSize=0mil|Usage=FLASHONLY|Rotation=270.000|XOffset=0mil|YOffset=0mil|HoleType=Round|Shape=RoundedRectangle|*
%AMROUNDEDRECTD32*
21,1,0.05709,0.01742,0,0,270.0*
21,1,0.05128,0.02323,0,0,270.0*
1,1,0.00581,-0.00871,-0.02564*
1,1,0.00581,-0.00871,0.02564*
1,1,0.00581,0.00871,0.02564*
1,1,0.00581,0.00871,-0.02564*
%
%ADD32ROUNDEDRECTD32*%
%ADD33R,0.07284X0.16142*%
%ADD34R,0.04558X0.05363*%
%ADD35R,0.05709X0.03740*%
%ADD36R,0.06102X0.05512*%
%ADD37C,0.14389*%
%ADD38R,0.03228X0.01614*%
%ADD39R,0.04803X0.03583*%
%ADD40R,0.03740X0.05709*%
%ADD41R,0.05315X0.03937*%
%ADD42O,0.07677X0.02362*%
%ADD43R,0.02070X0.04881*%
%ADD44R,0.22047X0.08268*%
%ADD64C,0.06181*%
%ADD65R,0.06181X0.06181*%
%ADD68C,0.04724*%
%ADD69C,0.01200*%
%ADD70C,0.10000*%
%ADD71C,0.02200*%
%ADD72C,0.06102*%
%ADD73C,0.05512*%
%ADD74R,0.07087X0.07087*%
%ADD75C,0.07087*%
%ADD76R,0.06102X0.06102*%
%ADD77R,0.05512X0.05512*%
%ADD78C,0.02400*%
G36*
X135940Y318557D02*
X138735D01*
Y310563D01*
Y302569D01*
X135940D01*
Y300226D01*
X133538D01*
Y302569D01*
X124444D01*
Y300720D01*
X122436D01*
Y320405D01*
X124444D01*
Y318557D01*
X133538D01*
Y320899D01*
X135940D01*
Y318557D01*
D02*
G37*
G36*
X153500Y307000D02*
X164000D01*
Y302500D01*
X144000D01*
Y314000D01*
X147000D01*
X153500Y307000D01*
D02*
G37*
G36*
X145500Y255000D02*
X146000Y255500D01*
X150125Y261000D01*
X155620D01*
X155830Y260660D01*
X154500Y258000D01*
X152500Y254500D01*
Y250000D01*
X140500D01*
X130000Y260500D01*
X129500D01*
Y267500D01*
X133000D01*
X145500Y255000D01*
D02*
G37*
G36*
X170500Y262500D02*
X164000Y260423D01*
X164000Y245000D01*
X157500D01*
Y266000D01*
X163000D01*
Y278000D01*
X164500Y279500D01*
Y289500D01*
X170500D01*
Y262500D01*
D02*
G37*
G36*
X188500Y240000D02*
X179000D01*
Y260500D01*
X177500Y262000D01*
Y278000D01*
X188500D01*
Y240000D01*
D02*
G37*
G36*
X174000Y239500D02*
X164000Y229500D01*
X157500D01*
X146000Y240000D01*
X126500Y240500D01*
Y247196D01*
X126801Y247459D01*
X148500Y244500D01*
X152500D01*
X157500Y239000D01*
X164000D01*
X168000Y243000D01*
Y254500D01*
X174000D01*
Y239500D01*
D02*
G37*
D15*
X149356Y242477D02*
D03*
Y252523D02*
D03*
D16*
X160830Y234126D02*
D03*
Y249874D02*
D03*
D17*
X273829Y302339D02*
D03*
X280522D02*
D03*
D18*
X243534Y331032D02*
D03*
X236034D02*
D03*
X273500Y268760D02*
D03*
X243534Y323552D02*
D03*
X273500Y276240D02*
D03*
X236034Y323552D02*
D03*
D19*
X266036Y299500D02*
D03*
X256784Y292000D02*
D03*
X266036D02*
D03*
X256784Y299500D02*
D03*
D20*
X276781Y292008D02*
D03*
Y282831D02*
D03*
X280522D02*
D03*
X273041D02*
D03*
Y292008D02*
D03*
D21*
X255308Y283500D02*
D03*
X255308Y274500D02*
D03*
X265544Y283500D02*
D03*
X265544Y274500D02*
D03*
D22*
X229034Y332230D02*
D03*
X211128D02*
D03*
X164098Y317199D02*
D03*
X170004D02*
D03*
X223128Y332230D02*
D03*
X217034D02*
D03*
D23*
X229821Y324930D02*
D03*
X292260Y256429D02*
D03*
X228260Y271500D02*
D03*
X210316Y324930D02*
D03*
X216235Y271500D02*
D03*
X299740Y256429D02*
D03*
X223715Y271500D02*
D03*
X235740D02*
D03*
X222341Y324930D02*
D03*
X217797D02*
D03*
D24*
X230291Y281606D02*
D03*
X227142Y315071D02*
D03*
X223992Y281606D02*
D03*
X227142D02*
D03*
X233441D02*
D03*
X236591Y315071D02*
D03*
X220842D02*
D03*
X217693D02*
D03*
X220842Y281606D02*
D03*
X236591D02*
D03*
X239740D02*
D03*
X233441Y315071D02*
D03*
X230291D02*
D03*
X223992D02*
D03*
X217693Y281606D02*
D03*
X239740Y315071D02*
D03*
D25*
X232786Y259500D02*
D03*
X222141D02*
D03*
X239282D02*
D03*
X215645D02*
D03*
D26*
X290193Y240467D02*
D03*
X301807Y247948D02*
D03*
Y240467D02*
D03*
X290193Y247948D02*
D03*
Y244207D02*
D03*
D27*
X278634Y240500D02*
D03*
X191134Y297000D02*
D03*
X173866Y231500D02*
D03*
X182866Y297000D02*
D03*
X270366Y240500D02*
D03*
X182134Y231500D02*
D03*
X308480Y302413D02*
D03*
D28*
X191000Y322905D02*
D03*
X201552Y302764D02*
D03*
X164885Y310686D02*
D03*
Y304780D02*
D03*
X191000Y317000D02*
D03*
X201552Y296858D02*
D03*
D29*
X183893Y321544D02*
D03*
X176019Y317804D02*
D03*
X183893Y314064D02*
D03*
D30*
X159315Y357804D02*
D03*
Y334576D02*
D03*
D31*
X171479Y251000D02*
D03*
X181521D02*
D03*
D32*
X154987Y272222D02*
D03*
X158727Y263127D02*
D03*
X151247Y272222D02*
D03*
Y263127D02*
D03*
X154987D02*
D03*
X158727Y272222D02*
D03*
D33*
X166815Y270013D02*
D03*
X181185D02*
D03*
D34*
X166757Y286500D02*
D03*
X160243D02*
D03*
D35*
X189500Y239177D02*
D03*
Y231500D02*
D03*
D36*
X292000Y317740D02*
D03*
Y310260D02*
D03*
Y299638D02*
D03*
Y292158D02*
D03*
D37*
X130563Y310563D02*
D03*
D38*
X145428Y318063D02*
D03*
Y313063D02*
D03*
Y308063D02*
D03*
Y303063D02*
D03*
D39*
X157093Y317000D02*
D03*
Y304126D02*
D03*
D40*
X175822Y305090D02*
D03*
X183499D02*
D03*
X278339Y247997D02*
D03*
X270661D02*
D03*
D41*
X191000Y305090D02*
D03*
Y310996D02*
D03*
D42*
X211984Y296764D02*
D03*
X245449Y293614D02*
D03*
Y287315D02*
D03*
Y290465D02*
D03*
Y296764D02*
D03*
Y299913D02*
D03*
Y303063D02*
D03*
Y306213D02*
D03*
Y309362D02*
D03*
X211984D02*
D03*
Y306213D02*
D03*
Y303063D02*
D03*
Y299913D02*
D03*
Y293614D02*
D03*
Y290465D02*
D03*
Y287315D02*
D03*
D43*
X280522Y292008D02*
D03*
D44*
X247517Y244248D02*
D03*
X210115D02*
D03*
D64*
X199000Y268760D02*
D03*
D65*
Y278760D02*
D03*
D68*
X308480Y282413D02*
D03*
Y292413D02*
D03*
D69*
X221676Y275676D02*
G03*
X219514Y274778I0J-3053D01*
G01*
X186364Y285136D02*
G03*
X171000Y291500I-15364J-15364D01*
G01*
X219648Y265648D02*
X236088D01*
X217702Y263702D02*
X219648Y265648D01*
X217702Y261558D02*
Y263702D01*
X168272Y233262D02*
X172104D01*
X160830Y234126D02*
X167408D01*
X172104Y233262D02*
X173866Y231500D01*
X167408Y234126D02*
X168272Y233262D01*
X223770Y281384D02*
X223992Y281606D01*
X222141Y259500D02*
X232786D01*
X229588Y273459D02*
X230291Y274162D01*
Y281606D01*
X228260Y272681D02*
X229038Y273459D01*
X223770Y277770D02*
Y281384D01*
X221676Y275676D02*
X223770Y277770D01*
X229038Y273459D02*
X229588D01*
X228260Y271500D02*
Y272681D01*
X217013Y273459D02*
X218194D01*
X154000Y277230D02*
X154987Y276243D01*
X154000Y277230D02*
Y277500D01*
X218194Y273459D02*
X219514Y274778D01*
X216235Y271500D02*
Y272681D01*
X217013Y273459D01*
X154987Y272222D02*
Y276243D01*
X218402Y334196D02*
X233706Y349500D01*
X328000D02*
X332500Y345000D01*
X233706Y349500D02*
X328000D01*
X181104Y298762D02*
Y298824D01*
Y298762D02*
X182866Y297000D01*
X175822Y304106D02*
Y305090D01*
Y304106D02*
X181104Y298824D01*
X194194Y289500D02*
X194423Y289730D01*
Y290222D01*
X201060Y296858D01*
X201552D01*
X201647Y296764D02*
X211984D01*
X201552Y296858D02*
X201647Y296764D01*
X201491Y288491D02*
X206562Y293563D01*
X201491Y281250D02*
Y288491D01*
X206562Y293563D02*
X211932D01*
X206742Y290242D02*
X211762D01*
X204466Y287966D02*
X206742Y290242D01*
X204466Y274226D02*
Y287966D01*
X211762Y290242D02*
X211984Y290465D01*
X211932Y293563D02*
X211984Y293614D01*
X199000Y268760D02*
X204466Y274226D01*
X199000Y278760D02*
X201491Y281250D01*
X186230Y241463D02*
X188516Y239177D01*
X186230Y241463D02*
Y242270D01*
X188516Y239177D02*
X189500D01*
X186000Y242500D02*
X186230Y242270D01*
X182134Y231500D02*
X189500D01*
X227137Y281602D02*
X227142Y281606D01*
X224494Y274494D02*
X227137Y277137D01*
X224494Y272278D02*
Y274494D01*
X227137Y277137D02*
Y281602D01*
X223715Y271500D02*
X224494Y272278D01*
X233441Y274162D02*
X234144Y273459D01*
X234962D02*
X235740Y272681D01*
Y271500D02*
Y272681D01*
X234144Y273459D02*
X234962D01*
X233441Y274162D02*
Y281606D01*
X191000Y252500D02*
Y280500D01*
X186369Y285131D02*
X191000Y280500D01*
X189500Y251000D02*
X191000Y252500D01*
X181521Y251000D02*
X189500D01*
X171000Y291500D02*
X171000D01*
X156000D02*
X171000D01*
X186364Y285136D02*
X186369Y285131D01*
X151247Y286747D02*
X156000Y291500D01*
X151247Y272222D02*
Y286747D01*
X192368Y306459D02*
X195958D01*
X198862Y309362D02*
X211984D01*
X195958Y306459D02*
X198862Y309362D01*
X239282Y247782D02*
X242816Y244248D01*
X239282Y247782D02*
Y259500D01*
X242816Y244248D02*
X247517D01*
X239962Y276589D02*
X240918Y275633D01*
X239282Y259500D02*
X240918Y261136D01*
X239740Y281606D02*
X239962Y281384D01*
Y276589D02*
Y281384D01*
X240918Y261136D02*
Y275633D01*
X212111Y244248D02*
X215645Y247782D01*
Y259500D01*
X210115Y244248D02*
X212111D01*
X215645Y259500D02*
X217702Y261558D01*
X236088Y265648D02*
X238718Y268278D01*
Y274722D01*
X237781Y275659D02*
X238718Y274722D01*
X236591Y276410D02*
X237341Y275659D01*
X236591Y276410D02*
Y281606D01*
X237341Y275659D02*
X237781D01*
X170004Y317199D02*
X170609Y317804D01*
X176019D01*
X157093Y317000D02*
X163899D01*
X164098Y317199D01*
X145635Y317856D02*
X156237D01*
X145428Y318063D02*
X145635Y317856D01*
X156237D02*
X157093Y317000D01*
X164098Y317199D02*
X164885Y316411D01*
Y310686D02*
Y316411D01*
X183499Y305090D02*
X191000D01*
X190508Y317000D02*
X191000D01*
X183893Y314064D02*
X187572D01*
X190508Y317000D01*
X191000Y310996D02*
Y317000D01*
Y305090D02*
X192368Y306459D01*
X265544Y274500D02*
X265544Y274500D01*
X265544Y274500D02*
Y283500D01*
X272639D02*
X273041Y283098D01*
Y282831D02*
Y283098D01*
X265544Y283500D02*
X272639D01*
X256784Y292000D02*
Y299500D01*
X266036Y292000D02*
X266045Y292008D01*
X273041D01*
X217034Y332230D02*
X218402Y333599D01*
Y334196D01*
X223128Y332230D02*
X224497Y333599D01*
Y334385D01*
X236763Y346651D01*
X299428D01*
X332500Y313579D01*
X245761Y315071D02*
X267341Y336651D01*
X274151D01*
X239740Y315071D02*
X245761D01*
X274151Y336651D02*
X279500Y342000D01*
X253440Y309362D02*
X274543Y330466D01*
Y333621D01*
X277660Y336738D01*
X280816D01*
X283627Y339549D01*
X287049D01*
X245449Y309362D02*
X253440D01*
X287049Y339549D02*
X289500Y342000D01*
X245449Y306213D02*
X253713D01*
X279500Y332000D01*
X308480Y292413D02*
Y302413D01*
Y282413D02*
X332244D01*
X332500Y282157D01*
X329810Y240467D02*
X332500Y243158D01*
X301807Y240467D02*
X329810D01*
X270366Y240500D02*
Y247702D01*
X270661Y247997D01*
X278339D02*
Y248981D01*
X266867Y260453D02*
X278339Y248981D01*
X261089Y260453D02*
X266867D01*
X250887Y270654D02*
X261089Y260453D01*
X250887Y270654D02*
Y291617D01*
X249112Y293392D02*
X250887Y291617D01*
X245671Y293392D02*
X249112D01*
X245449Y293614D02*
X245671Y293392D01*
X283252Y245743D02*
X284787Y244207D01*
X278339Y247013D02*
X279609Y245743D01*
X278339Y247013D02*
Y247997D01*
X284787Y244207D02*
X290193D01*
X279609Y245743D02*
X283252D01*
X289110Y247948D02*
X290193D01*
X280522Y256536D02*
Y282831D01*
Y256536D02*
X289110Y247948D01*
X289844Y297482D02*
X292000Y299638D01*
X288831Y297482D02*
X289844D01*
X283357Y292008D02*
X288831Y297482D01*
X280522Y292008D02*
X283357D01*
X291705Y299638D02*
X292000D01*
X280522Y302339D02*
X289004D01*
X291705Y299638D01*
X292000D02*
Y310260D01*
X292255Y292413D02*
X308480D01*
X292000Y292158D02*
X292255Y292413D01*
X230514Y315293D02*
Y319213D01*
X234853Y323552D02*
X236034D01*
X230291Y315071D02*
X230514Y315293D01*
Y319213D02*
X234853Y323552D01*
X222341Y320571D02*
Y324930D01*
X221065Y319295D02*
X222341Y320571D01*
X221065Y315293D02*
Y319295D01*
X220842Y315071D02*
X221065Y315293D01*
X223128Y326899D02*
Y332230D01*
X222341Y326111D02*
X223128Y326899D01*
X222341Y324930D02*
Y326111D01*
X217797Y324930D02*
Y331468D01*
X217034Y332230D02*
X217797Y331468D01*
X217745Y315123D02*
Y324878D01*
X217797Y324930D01*
X217693Y315071D02*
X217745Y315123D01*
D70*
X158712Y357194D02*
X159322Y357804D01*
X138015Y357194D02*
X158712D01*
X127507Y355113D02*
X135935D01*
X138015Y357194D01*
X129862Y311263D02*
Y332757D01*
X130563Y310563D02*
X131000Y311000D01*
X129862Y311263D02*
X130563Y310563D01*
X127507Y335113D02*
X129862Y332757D01*
X127507Y335113D02*
X158777D01*
X159315Y334576D01*
D71*
X158727Y279711D02*
X160824Y281807D01*
X160243Y286500D02*
X160824Y285920D01*
Y281807D02*
Y285920D01*
X158727Y272222D02*
Y279711D01*
D72*
X269500Y332000D02*
D03*
X289500D02*
D03*
X279500Y342000D02*
D03*
X269500D02*
D03*
X279500Y332000D02*
D03*
D73*
X332500Y292000D02*
D03*
Y253000D02*
D03*
Y323421D02*
D03*
Y354842D02*
D03*
D74*
X127507Y355113D02*
D03*
X126492Y263909D02*
D03*
D75*
Y243909D02*
D03*
X127507Y335113D02*
D03*
D76*
X289500Y342000D02*
D03*
D77*
X332500Y243158D02*
D03*
Y345000D02*
D03*
Y313579D02*
D03*
Y282157D02*
D03*
D78*
X191134Y297000D02*
D03*
X273829Y302339D02*
D03*
X243534Y331032D02*
D03*
X276781Y292008D02*
D03*
X266036Y299500D02*
D03*
X255308Y283500D02*
D03*
X236034Y331032D02*
D03*
X229821Y324930D02*
D03*
X229034Y332230D02*
D03*
X230291Y281606D02*
D03*
X227142Y315071D02*
D03*
X223992Y281606D02*
D03*
X273500Y268760D02*
D03*
X232786Y259500D02*
D03*
X292260Y256429D02*
D03*
X290193Y240467D02*
D03*
X278634Y240500D02*
D03*
X228260Y271500D02*
D03*
X222141Y259500D02*
D03*
X211128Y332230D02*
D03*
X210316Y324930D02*
D03*
X191000Y322905D02*
D03*
X183893Y321544D02*
D03*
X163000Y361000D02*
D03*
Y354500D02*
D03*
X159322Y357804D02*
D03*
X154000Y277500D02*
D03*
X216235Y271500D02*
D03*
X172500Y245000D02*
D03*
X171000Y242500D02*
D03*
X169500Y245000D02*
D03*
X201552Y302764D02*
D03*
X149356Y252523D02*
D03*
X157093Y304126D02*
D03*
X164885Y304780D02*
D03*
X146000Y308500D02*
D03*
Y304500D02*
D03*
Y312000D02*
D03*
X194194Y289500D02*
D03*
X183840Y245759D02*
D03*
X186000Y242500D02*
D03*
X181500D02*
D03*
X292000Y317740D02*
D03*
X299740Y256429D02*
D03*
X301807Y247948D02*
D03*
X273500Y276240D02*
D03*
X276781Y282831D02*
D03*
X255308Y274500D02*
D03*
X235740Y271500D02*
D03*
X223715D02*
D03*
X233441Y281606D02*
D03*
X236591Y315071D02*
D03*
X243534Y323552D02*
D03*
X227142Y281606D02*
D03*
M02*
