G04*
G04 #@! TF.GenerationSoftware,Altium Limited,Altium Designer,25.8.1 (18)*
G04*
G04 Layer_Physical_Order=4*
G04 Layer_Color=16711680*
%FSLAX25Y25*%
%MOIN*%
G70*
G04*
G04 #@! TF.SameCoordinates,92740163-3DE7-4DEA-950A-142008FB6929*
G04*
G04*
G04 #@! TF.FilePolarity,Positive*
G04*
G01*
G75*
%ADD27R,0.04724X0.04724*%
%ADD64C,0.06181*%
%ADD65R,0.06181X0.06181*%
%ADD68C,0.04724*%
%ADD69C,0.01200*%
%ADD72C,0.06102*%
%ADD73C,0.05512*%
%ADD74R,0.07087X0.07087*%
%ADD75C,0.07087*%
%ADD76R,0.06102X0.06102*%
%ADD77R,0.05512X0.05512*%
%ADD78C,0.02400*%
D27*
X308480Y302413D02*
D03*
D64*
X199000Y268760D02*
D03*
D65*
Y278760D02*
D03*
D68*
X308480Y282413D02*
D03*
Y292413D02*
D03*
D69*
X163885Y253615D02*
X172500Y245000D01*
X162385Y253615D02*
X163885D01*
X154000Y262000D02*
X162385Y253615D01*
X154000Y262000D02*
Y277500D01*
X196500Y327500D02*
X211000Y342000D01*
X196500Y291806D02*
Y327500D01*
X194194Y289500D02*
X196500Y291806D01*
X211000Y342000D02*
X269500D01*
D72*
Y332000D02*
D03*
X289500D02*
D03*
X279500Y342000D02*
D03*
X269500D02*
D03*
X279500Y332000D02*
D03*
D73*
X332500Y292000D02*
D03*
Y253000D02*
D03*
Y323421D02*
D03*
Y354842D02*
D03*
D74*
X127507Y355113D02*
D03*
X126492Y263909D02*
D03*
D75*
Y243909D02*
D03*
X127507Y335113D02*
D03*
D76*
X289500Y342000D02*
D03*
D77*
X332500Y243158D02*
D03*
Y345000D02*
D03*
Y313579D02*
D03*
Y282157D02*
D03*
D78*
X191134Y297000D02*
D03*
X273829Y302339D02*
D03*
X243534Y331032D02*
D03*
X276781Y292008D02*
D03*
X266036Y299500D02*
D03*
X255308Y283500D02*
D03*
X236034Y331032D02*
D03*
X229821Y324930D02*
D03*
X229034Y332230D02*
D03*
X230291Y281606D02*
D03*
X227142Y315071D02*
D03*
X223992Y281606D02*
D03*
X273500Y268760D02*
D03*
X232786Y259500D02*
D03*
X292260Y256429D02*
D03*
X290193Y240467D02*
D03*
X278634Y240500D02*
D03*
X228260Y271500D02*
D03*
X222141Y259500D02*
D03*
X211128Y332230D02*
D03*
X210316Y324930D02*
D03*
X191000Y322905D02*
D03*
X183893Y321544D02*
D03*
X163000Y361000D02*
D03*
Y354500D02*
D03*
X159322Y357804D02*
D03*
X154000Y277500D02*
D03*
X216235Y271500D02*
D03*
X172500Y245000D02*
D03*
X171000Y242500D02*
D03*
X169500Y245000D02*
D03*
X201552Y302764D02*
D03*
X149356Y252523D02*
D03*
X157093Y304126D02*
D03*
X164885Y304780D02*
D03*
X146000Y308500D02*
D03*
Y304500D02*
D03*
Y312000D02*
D03*
X194194Y289500D02*
D03*
X183840Y245759D02*
D03*
X186000Y242500D02*
D03*
X181500D02*
D03*
X292000Y317740D02*
D03*
X299740Y256429D02*
D03*
X301807Y247948D02*
D03*
X273500Y276240D02*
D03*
X276781Y282831D02*
D03*
X255308Y274500D02*
D03*
X235740Y271500D02*
D03*
X223715D02*
D03*
X233441Y281606D02*
D03*
X236591Y315071D02*
D03*
X243534Y323552D02*
D03*
X227142Y281606D02*
D03*
M02*
