G04*
G04 #@! TF.GenerationSoftware,Altium Limited,Altium Designer,25.8.1 (18)*
G04*
G04 Layer_Color=65535*
%FSLAX25Y25*%
%MOIN*%
G70*
G04*
G04 #@! TF.SameCoordinates,92740163-3DE7-4DEA-950A-142008FB6929*
G04*
G04*
G04 #@! TF.FilePolarity,Positive*
G04*
G01*
G75*
%ADD10C,0.00984*%
%ADD11C,0.00787*%
%ADD12C,0.02362*%
%ADD13C,0.01575*%
%ADD14C,0.00500*%
D10*
X161322Y256961D02*
G03*
X161322Y256961I-492J0D01*
G01*
X149956Y303082D02*
G03*
X149956Y303082I-492J0D01*
G01*
X199492Y286260D02*
G03*
X199492Y286260I-492J0D01*
G01*
X153018Y304126D02*
G03*
X153018Y304126I-492J0D01*
G01*
X184385Y310323D02*
G03*
X184385Y310323I-492J0D01*
G01*
X290685Y251392D02*
G03*
X290685Y251392I-492J0D01*
G01*
X321377Y345000D02*
G03*
X321377Y345000I-492J0D01*
G01*
Y313579D02*
G03*
X321377Y313579I-492J0D01*
G01*
Y243158D02*
G03*
X321377Y243158I-492J0D01*
G01*
Y282157D02*
G03*
X321377Y282157I-492J0D01*
G01*
X281014Y296417D02*
G03*
X281014Y296417I-492J0D01*
G01*
X214839Y281606D02*
G03*
X214839Y281606I-492J0D01*
G01*
D11*
X160105Y277123D02*
G03*
X160105Y277123I-394J0D01*
G01*
X152900Y245931D02*
Y249069D01*
X145813Y245931D02*
Y249069D01*
X165653Y251055D02*
X166578D01*
X155082D02*
X156007D01*
X155082Y232945D02*
Y251055D01*
X165653Y232945D02*
X166578D01*
X155082D02*
X156007D01*
X166578D02*
Y251055D01*
X157964Y290756D02*
X169036D01*
X157964Y282244D02*
X169036D01*
X163764Y280249D02*
X184236D01*
Y259777D02*
Y260466D01*
Y279560D02*
Y280249D01*
X163764Y259777D02*
X184236D01*
X163764D02*
Y260466D01*
Y279560D02*
Y280249D01*
X186744Y234846D02*
Y235831D01*
X192256Y234846D02*
Y235831D01*
X125940Y298358D02*
X143538D01*
Y315346D02*
Y315779D01*
Y310346D02*
Y310779D01*
Y305346D02*
Y305779D01*
X125940Y322767D02*
X143538D01*
X110547Y233909D02*
X142436D01*
X110547Y273909D02*
X142436D01*
X110547Y233909D02*
Y273909D01*
X142436Y233909D02*
Y273909D01*
X167189Y332017D02*
X171716D01*
X167189Y360363D02*
X171716D01*
X146913Y332017D02*
X151441D01*
X146913Y360363D02*
X151441D01*
X171716Y332017D02*
Y360363D01*
X146913Y332017D02*
Y360363D01*
X193744Y284508D02*
X204256D01*
X193744Y263012D02*
Y284508D01*
Y263012D02*
X204256D01*
Y284508D01*
X111561Y325114D02*
X143451D01*
X111561Y365113D02*
X143451D01*
X111561Y325114D02*
Y365113D01*
X143451Y325114D02*
Y365113D01*
X175127Y247260D02*
X177873D01*
X175127Y254740D02*
X177873D01*
X153944Y307492D02*
X160243D01*
X153944D02*
Y313634D01*
X160243Y307492D02*
Y313634D01*
X153944D02*
X160243D01*
X177397Y320953D02*
Y323552D01*
X180606D01*
X177397Y312056D02*
Y314654D01*
Y312056D02*
X180606D01*
X179169Y302334D02*
X180153D01*
X179169Y307846D02*
X180153D01*
X263752Y327000D02*
Y347000D01*
X295248D01*
Y327000D02*
Y347000D01*
X263752Y327000D02*
X295248D01*
X270744Y271614D02*
Y273386D01*
X276256Y271614D02*
Y273386D01*
X260525Y294657D02*
X262296D01*
X260525Y289342D02*
X262296D01*
X259540Y286354D02*
X261312D01*
X259540Y280646D02*
X261312D01*
X259540Y271646D02*
X261312D01*
X259540Y277354D02*
X261312D01*
X260525Y296843D02*
X262296D01*
X260525Y302157D02*
X262296D01*
X295114Y253673D02*
X296886D01*
X295114Y259185D02*
X296886D01*
X297969Y238105D02*
Y250310D01*
X294032Y238105D02*
Y250310D01*
Y238105D02*
X297969D01*
X294032Y250310D02*
X297969D01*
X323445Y335354D02*
Y335366D01*
Y335354D02*
X368721D01*
X323445D02*
Y364488D01*
X368721D01*
Y335354D02*
Y364488D01*
X323445Y303933D02*
Y303945D01*
Y303933D02*
X368721D01*
X323445D02*
Y333067D01*
X368721D01*
Y303933D02*
Y333067D01*
X318264Y273161D02*
Y311665D01*
X298736D02*
X318264D01*
X298736Y273161D02*
Y311665D01*
Y273161D02*
X318264D01*
X323445Y233512D02*
Y233524D01*
Y233512D02*
X368721D01*
X323445D02*
Y262646D01*
X368721D01*
Y233512D02*
Y262646D01*
X323445Y272512D02*
Y272524D01*
Y272512D02*
X368721D01*
X323445D02*
Y301646D01*
X368721D01*
Y272512D02*
Y301646D01*
X271073Y287599D02*
X282490D01*
X271073Y287240D02*
Y287599D01*
Y287240D02*
X282490D01*
Y287599D01*
X274008Y250753D02*
X274992D01*
X274008Y245241D02*
X274992D01*
X217496Y287118D02*
X239937D01*
X217496Y309559D02*
X239937D01*
X217496Y287118D02*
Y309559D01*
X239937Y287118D02*
Y309559D01*
X206080Y249859D02*
Y253796D01*
Y234701D02*
Y238638D01*
Y234701D02*
X251552D01*
Y249859D02*
Y253796D01*
Y234701D02*
Y238638D01*
X206080Y253796D02*
X251552D01*
X213171Y327686D02*
X214942D01*
X213171Y322174D02*
X214942D01*
X225195D02*
X226967D01*
X225195Y327686D02*
X226967D01*
X233278Y326407D02*
Y328178D01*
X238790Y326407D02*
Y328178D01*
X240778Y326407D02*
Y328178D01*
X246290Y326407D02*
Y328178D01*
X219090Y268744D02*
X220861D01*
X219090Y274256D02*
X220861D01*
X231114Y268744D02*
X232886D01*
X231114Y274256D02*
X232886D01*
X115616Y276378D02*
X112992D01*
X115616Y279002D01*
Y279658D01*
X114960Y280314D01*
X113648D01*
X112992Y279658D01*
X118896Y276378D02*
Y280314D01*
X116928Y278346D01*
X119552D01*
X120864Y280314D02*
Y277690D01*
X122176Y276378D01*
X123487Y277690D01*
Y280314D01*
X290252Y326223D02*
Y323599D01*
X291564Y322287D01*
X292876Y323599D01*
Y326223D01*
X294188D02*
Y322287D01*
X296156D01*
X296812Y322943D01*
Y325567D01*
X296156Y326223D01*
X294188D01*
X298124D02*
Y322287D01*
X300092D01*
X300748Y322943D01*
Y325567D01*
X300092Y326223D01*
X298124D01*
X272940Y322287D02*
Y326223D01*
X274252Y324911D01*
X275564Y326223D01*
Y322287D01*
X278844Y326223D02*
X277532D01*
X276876Y325567D01*
Y322943D01*
X277532Y322287D01*
X278844D01*
X279500Y322943D01*
Y325567D01*
X278844Y326223D01*
X283436Y325567D02*
X282780Y326223D01*
X281468D01*
X280812Y325567D01*
Y324911D01*
X281468Y324255D01*
X282780D01*
X283436Y323599D01*
Y322943D01*
X282780Y322287D01*
X281468D01*
X280812Y322943D01*
X284748Y326223D02*
X286060D01*
X285404D01*
Y322287D01*
X284748D01*
X286060D01*
X260876Y325567D02*
X260220Y326223D01*
X258908D01*
X258252Y325567D01*
Y322943D01*
X258908Y322287D01*
X260220D01*
X260876Y322943D01*
Y324255D01*
X259564D01*
X262188Y322287D02*
Y326223D01*
X264812Y322287D01*
Y326223D01*
X266124D02*
Y322287D01*
X268092D01*
X268748Y322943D01*
Y325567D01*
X268092Y326223D01*
X266124D01*
X311683Y325723D02*
X314307D01*
X312995D01*
Y321787D01*
X315618Y325723D02*
Y321787D01*
Y323755D01*
X318242D01*
Y325723D01*
Y321787D01*
X319554D02*
X320866D01*
X320210D01*
Y325723D01*
X319554Y325067D01*
X258252Y349287D02*
Y353223D01*
X260220D01*
X260876Y352567D01*
Y351255D01*
X260220Y350599D01*
X258252D01*
X259564D02*
X260876Y349287D01*
X264812Y352567D02*
X264156Y353223D01*
X262844D01*
X262188Y352567D01*
Y351911D01*
X262844Y351255D01*
X264156D01*
X264812Y350599D01*
Y349943D01*
X264156Y349287D01*
X262844D01*
X262188Y349943D01*
X266124Y353223D02*
X268748D01*
X267436D01*
Y349287D01*
X276876Y352567D02*
X276220Y353223D01*
X274908D01*
X274252Y352567D01*
Y351911D01*
X274908Y351255D01*
X276220D01*
X276876Y350599D01*
Y349943D01*
X276220Y349287D01*
X274908D01*
X274252Y349943D01*
X280812Y352567D02*
X280156Y353223D01*
X278844D01*
X278188Y352567D01*
Y349943D01*
X278844Y349287D01*
X280156D01*
X280812Y349943D01*
X282124Y353223D02*
Y349287D01*
Y350599D01*
X284748Y353223D01*
X282780Y351255D01*
X284748Y349287D01*
X288613D02*
Y353223D01*
X289924Y351911D01*
X291236Y353223D01*
Y349287D01*
X292548Y353223D02*
X293860D01*
X293204D01*
Y349287D01*
X292548D01*
X293860D01*
X298452Y352567D02*
X297796Y353223D01*
X296484D01*
X295828Y352567D01*
Y351911D01*
X296484Y351255D01*
X297796D01*
X298452Y350599D01*
Y349943D01*
X297796Y349287D01*
X296484D01*
X295828Y349943D01*
X301732Y353223D02*
X300420D01*
X299764Y352567D01*
Y349943D01*
X300420Y349287D01*
X301732D01*
X302387Y349943D01*
Y352567D01*
X301732Y353223D01*
X195720Y260723D02*
X198344D01*
X197032D01*
Y256787D01*
X199656Y260723D02*
X202280Y256787D01*
Y260723D02*
X199656Y256787D01*
X195720Y287787D02*
Y291723D01*
X197688D01*
X198344Y291067D01*
Y289755D01*
X197688Y289099D01*
X195720D01*
X197032D02*
X198344Y287787D01*
X199656Y291723D02*
X202280Y287787D01*
Y291723D02*
X199656Y287787D01*
X163768Y298567D02*
X163112Y299223D01*
X161801D01*
X161145Y298567D01*
Y295943D01*
X161801Y295287D01*
X163112D01*
X163768Y295943D01*
Y297255D01*
X162457D01*
X165736Y297911D02*
X167048D01*
X167704Y297255D01*
Y295287D01*
X165736D01*
X165080Y295943D01*
X165736Y296599D01*
X167704D01*
X169016Y295287D02*
X170328D01*
X169672D01*
Y299223D01*
X169016D01*
X172296Y297911D02*
X173608Y295287D01*
X174920Y297911D01*
X176888Y295287D02*
X178200D01*
X178855Y295943D01*
Y297255D01*
X178200Y297911D01*
X176888D01*
X176232Y297255D01*
Y295943D01*
X176888Y295287D01*
X265645Y234723D02*
Y230787D01*
X268268D01*
X270236Y233411D02*
X271548D01*
X272204Y232755D01*
Y230787D01*
X270236D01*
X269580Y231443D01*
X270236Y232099D01*
X272204D01*
X273516Y230787D02*
X275484D01*
X276140Y231443D01*
X275484Y232099D01*
X274172D01*
X273516Y232755D01*
X274172Y233411D01*
X276140D01*
X279420Y230787D02*
X278108D01*
X277452Y231443D01*
Y232755D01*
X278108Y233411D01*
X279420D01*
X280076Y232755D01*
Y232099D01*
X277452D01*
X281388Y233411D02*
Y230787D01*
Y232099D01*
X282044Y232755D01*
X282699Y233411D01*
X283355D01*
X310371Y353223D02*
X312995D01*
X311683D01*
Y349287D01*
X314307Y353223D02*
Y349287D01*
Y351255D01*
X316930D01*
Y353223D01*
Y349287D01*
X320866D02*
X318242D01*
X320866Y351911D01*
Y352567D01*
X320210Y353223D01*
X318898D01*
X318242Y352567D01*
X311027Y267287D02*
Y269911D01*
X312339Y271223D01*
X313651Y269911D01*
Y267287D01*
Y269255D01*
X311027D01*
X314963Y271223D02*
X316274D01*
X315618D01*
Y267287D01*
X314963D01*
X316274D01*
X318242D02*
Y271223D01*
X320866Y267287D01*
Y271223D01*
X312995Y259185D02*
X312339Y259841D01*
X311027D01*
X310371Y259185D01*
Y256561D01*
X311027Y255906D01*
X312339D01*
X312995Y256561D01*
Y257873D01*
X311683D01*
X314307Y255906D02*
Y259841D01*
X316930Y255906D01*
Y259841D01*
X318242D02*
Y255906D01*
X320210D01*
X320866Y256561D01*
Y259185D01*
X320210Y259841D01*
X318242D01*
X310371Y235433D02*
Y239369D01*
X312339D01*
X312995Y238713D01*
Y237401D01*
X312339Y236745D01*
X310371D01*
X314307Y239369D02*
Y235433D01*
X315618Y236745D01*
X316930Y235433D01*
Y239369D01*
X318242Y235433D02*
Y239369D01*
X319554Y238057D01*
X320866Y239369D01*
Y235433D01*
X115616Y370996D02*
X114960Y371652D01*
X113648D01*
X112992Y370996D01*
Y368373D01*
X113648Y367717D01*
X114960D01*
X115616Y368373D01*
Y369684D01*
X114304D01*
X116928Y367717D02*
Y371652D01*
X119552Y367717D01*
Y371652D01*
X120864D02*
Y367717D01*
X122831D01*
X123487Y368373D01*
Y370996D01*
X122831Y371652D01*
X120864D01*
X115616Y321784D02*
X114960Y322440D01*
X113648D01*
X112992Y321784D01*
Y319160D01*
X113648Y318504D01*
X114960D01*
X115616Y319160D01*
Y320472D01*
X114304D01*
X116928Y322440D02*
Y318504D01*
X119552D01*
X120864Y322440D02*
Y319816D01*
X122176Y318504D01*
X123487Y319816D01*
Y322440D01*
X115616Y230445D02*
X114960Y231101D01*
X113648D01*
X112992Y230445D01*
Y227821D01*
X113648Y227165D01*
X114960D01*
X115616Y227821D01*
Y229133D01*
X114304D01*
X116928Y227165D02*
Y231101D01*
X119552Y227165D01*
Y231101D01*
X120864D02*
Y227165D01*
X122831D01*
X123487Y227821D01*
Y230445D01*
X122831Y231101D01*
X120864D01*
D12*
X222614Y291055D02*
G03*
X222614Y291055I-1181J0D01*
G01*
D13*
X147070Y326997D02*
X171559D01*
X195465Y294539D02*
Y299461D01*
X282965Y238039D02*
Y242961D01*
X169535Y229039D02*
Y233961D01*
D14*
X161149Y264525D02*
Y270824D01*
X148826Y264525D02*
Y270824D01*
M02*
