G04*
G04 #@! TF.GenerationSoftware,Altium Limited,Altium Designer,25.8.1 (18)*
G04*
G04 Layer_Color=16711935*
%FSLAX25Y25*%
%MOIN*%
G70*
G04*
G04 #@! TF.SameCoordinates,FC6DE8EC-1D21-457F-8DA0-3020905E36BC*
G04*
G04*
G04 #@! TF.FilePolarity,Positive*
G04*
G01*
G75*
%ADD11C,0.00787*%
%ADD14C,0.00500*%
%ADD92C,0.00394*%
%ADD93R,0.24488X0.03765*%
D11*
X159618Y281949D02*
G03*
X159618Y281949I-394J0D01*
G01*
X125940Y300720D02*
Y320405D01*
X143538D01*
Y300720D02*
Y320405D01*
X125940Y300720D02*
X143538D01*
X166748Y237945D02*
Y256055D01*
X155252Y237945D02*
X166748D01*
X155252D02*
Y256055D01*
X166748D01*
X152150Y240201D02*
Y252799D01*
X145850Y240201D02*
X152150D01*
X145850D02*
Y252799D01*
X152150D01*
X175330Y302334D02*
X183991D01*
X175330D02*
Y307846D01*
X183991D01*
Y302334D02*
Y307846D01*
X182752Y290756D02*
X204248D01*
Y280244D02*
Y290756D01*
X182752Y280244D02*
X204248D01*
X182752D02*
Y290756D01*
X173437Y277793D02*
Y282714D01*
X165563D02*
X173437D01*
X165563Y277793D02*
Y282714D01*
Y277793D02*
X173437D01*
X270744Y276732D02*
X276256D01*
X270744Y268268D02*
Y276732D01*
Y268268D02*
X276256D01*
Y276732D01*
X265741Y289342D02*
Y294657D01*
X257080D02*
X265741D01*
X257080Y289342D02*
Y294657D01*
Y289342D02*
X265741D01*
X170116Y253351D02*
Y273824D01*
Y253351D02*
X190588D01*
Y273824D01*
X170116D02*
X190588D01*
X264757Y280646D02*
Y286354D01*
X256095D02*
X264757D01*
X256095Y280646D02*
Y286354D01*
Y280646D02*
X264757D01*
X256095Y271646D02*
Y277354D01*
Y271646D02*
X264757D01*
Y277354D01*
X256095D02*
X264757D01*
X257080Y296843D02*
Y302157D01*
Y296843D02*
X265741D01*
Y302157D01*
X257080D02*
X265741D01*
X291768Y253673D02*
X300232D01*
X291768D02*
Y259185D01*
X300232D01*
Y253673D02*
Y259185D01*
X318264Y273161D02*
Y311665D01*
X298736D02*
X318264D01*
X298736Y273161D02*
Y311665D01*
Y273161D02*
X318264D01*
X271073Y290618D02*
X282490D01*
X271073Y284221D02*
Y290618D01*
Y284221D02*
X282490D01*
Y290618D01*
X278831Y245241D02*
Y250753D01*
X270169D02*
X278831D01*
X270169Y245241D02*
Y250753D01*
Y245241D02*
X278831D01*
X206080Y234701D02*
Y253796D01*
Y234701D02*
X251552D01*
Y253796D01*
X206080D02*
X251552D01*
X218289Y322174D02*
Y327686D01*
X209824D02*
X218289D01*
X209824Y322174D02*
Y327686D01*
Y322174D02*
X218289D01*
X221849D02*
Y327686D01*
Y322174D02*
X230313D01*
Y327686D01*
X221849D02*
X230313D01*
X233278Y323060D02*
Y331525D01*
X238790D01*
Y323060D02*
Y331525D01*
X233278Y323060D02*
X238790D01*
X240778D02*
Y331525D01*
X246290D01*
Y323060D02*
Y331525D01*
X240778Y323060D02*
X246290D01*
X215743Y268744D02*
X224208D01*
X215743D02*
Y274256D01*
X224208D01*
Y268744D02*
Y274256D01*
X227768Y268744D02*
X236232D01*
X227768D02*
Y274256D01*
X236232D01*
Y268744D02*
Y274256D01*
X187193Y243957D02*
Y251043D01*
X173807D02*
X187193D01*
X173807Y243957D02*
Y251043D01*
Y243957D02*
X187193D01*
X196669Y266126D02*
X205331D01*
X196669D02*
Y271637D01*
X205331D01*
Y266126D02*
Y271637D01*
D14*
X148791Y269350D02*
Y275650D01*
Y269350D02*
X160209D01*
Y275650D01*
X148791D02*
X160209D01*
D92*
X220449Y288102D02*
G03*
X220449Y288102I-1969J0D01*
G01*
X113818Y366322D02*
X114408Y365620D01*
Y365113D02*
Y365620D01*
X113818Y366323D02*
Y367357D01*
X143451Y325114D02*
Y365113D01*
X111561Y325114D02*
Y365113D01*
X143451D01*
X111561Y325114D02*
X143451D01*
X113818Y367357D02*
X116628D01*
X116628Y367357D01*
Y366322D02*
Y367358D01*
X116037Y365113D02*
Y365620D01*
X116629Y366322D01*
X112803Y275118D02*
X113393Y274416D01*
Y273909D02*
Y274416D01*
X112803Y275119D02*
Y276153D01*
X142436Y233909D02*
Y273909D01*
X110547Y233909D02*
Y273909D01*
X142436D01*
X110547Y233909D02*
X142436D01*
X112803Y276153D02*
X115613D01*
X115613Y276153D01*
Y275118D02*
Y276154D01*
X115023Y273909D02*
Y274416D01*
X115614Y275118D01*
X162228Y312064D02*
X167543D01*
X162228Y303402D02*
X167543D01*
Y312064D01*
X162228Y303402D02*
Y312064D01*
X153944Y305268D02*
Y315858D01*
X160243D01*
X153944Y305268D02*
X160243D01*
Y315858D01*
X177397Y323552D02*
X182515D01*
X177397Y312056D02*
X182515D01*
X177397D02*
Y323552D01*
X182515Y312056D02*
Y323552D01*
X162720Y314541D02*
Y319856D01*
X171382Y314541D02*
Y319856D01*
X162720D02*
X171382D01*
X162720Y314541D02*
X171382D01*
X147070Y360186D02*
X171559D01*
X147070Y332194D02*
X171559D01*
X147070D02*
Y360186D01*
X171559Y332194D02*
Y360186D01*
X183598Y294735D02*
Y299656D01*
X175724Y294735D02*
X183598D01*
X175724D02*
Y299656D01*
X178676D01*
X175724D02*
X183598D01*
X188342Y315622D02*
X193658D01*
X188342Y324283D02*
X193658D01*
X188342Y315622D02*
Y324283D01*
X193658Y315622D02*
Y324283D01*
X263752Y327000D02*
Y347000D01*
X295248D01*
Y327000D02*
Y347000D01*
X263752Y327000D02*
X295248D01*
X199339Y295497D02*
X204654D01*
X199339Y304158D02*
X204654D01*
X199339Y295497D02*
Y304158D01*
X204654Y295497D02*
Y304158D01*
X188146Y303712D02*
X193854D01*
X188146Y312373D02*
X193854D01*
X188146Y303712D02*
Y312373D01*
X193854Y303712D02*
Y312373D01*
X292555Y238203D02*
X299445D01*
X292555Y250211D02*
X299445D01*
Y238203D02*
Y250211D01*
X292555Y238203D02*
Y250211D01*
X323445Y335354D02*
X368721D01*
X323445D02*
Y364488D01*
X368721D01*
Y335354D02*
Y364488D01*
X323445Y303933D02*
X368721D01*
X323445D02*
Y333067D01*
X368721D01*
Y303933D02*
Y333067D01*
X323445Y233512D02*
X368721D01*
X323445D02*
Y262646D01*
X368721D01*
Y233512D02*
Y262646D01*
X323445Y272512D02*
X368721D01*
X323445D02*
Y301646D01*
X368721D01*
Y272512D02*
Y301646D01*
X272844Y299485D02*
Y305194D01*
X281506Y299485D02*
Y305194D01*
X272844D02*
X281506D01*
X272844Y299485D02*
X281506D01*
X289146Y309669D02*
X294854D01*
X289146Y318331D02*
X294854D01*
X289146Y309669D02*
Y318331D01*
X294854Y309669D02*
Y318331D01*
X289146Y291567D02*
X294854D01*
X289146Y300229D02*
X294854D01*
X289146Y291567D02*
Y300229D01*
X294854Y291567D02*
Y300229D01*
X270563Y242961D02*
X278437D01*
X270563D02*
X273516D01*
X270563Y238039D02*
Y242961D01*
Y238039D02*
X278437D01*
Y242961D01*
X214937Y284559D02*
X242496D01*
X214937Y312118D02*
X242496D01*
X214937Y284559D02*
Y312118D01*
X242496Y284559D02*
Y312118D01*
X236239Y256646D02*
Y262354D01*
X227538Y256646D02*
Y262354D01*
Y256646D02*
X236239D01*
X227538Y262354D02*
X236239D01*
X215136Y256646D02*
Y262354D01*
X223837Y256646D02*
Y262354D01*
X215136D02*
X223837D01*
X215136Y256646D02*
X223837D01*
X209750Y334888D02*
X218412D01*
X209750Y329573D02*
X218412D01*
X209750D02*
Y334888D01*
X218412Y329573D02*
Y334888D01*
X221750Y329573D02*
X230412D01*
X221750Y334888D02*
X230412D01*
Y329573D02*
Y334888D01*
X221750Y329573D02*
Y334888D01*
X204937Y257039D02*
Y261961D01*
X197063Y257039D02*
X204937D01*
X197063D02*
Y261961D01*
X200016D01*
X197063D02*
X204937D01*
D93*
X159313Y334078D02*
D03*
M02*
