G04*
G04 #@! TF.GenerationSoftware,Altium Limited,Altium Designer,25.8.1 (18)*
G04*
G04 Layer_Color=128*
%FSLAX25Y25*%
%MOIN*%
G70*
G04*
G04 #@! TF.SameCoordinates,92740163-3DE7-4DEA-950A-142008FB6929*
G04*
G04*
G04 #@! TF.FilePolarity,Positive*
G04*
G01*
G75*
%ADD14C,0.00500*%
D14*
X267492Y332000D02*
X271508D01*
X269500Y329992D02*
Y334008D01*
X330728Y292000D02*
X334272D01*
X332500Y290228D02*
Y293772D01*
X330728Y253000D02*
X334272D01*
X332500Y251228D02*
Y254772D01*
X124948Y355113D02*
X130066D01*
X127507Y352554D02*
Y357672D01*
X123933Y243909D02*
X129051D01*
X126492Y241350D02*
Y246468D01*
X330728Y323421D02*
X334272D01*
X332500Y321650D02*
Y325193D01*
X330728Y354842D02*
X334272D01*
X332500Y353071D02*
Y356614D01*
X287492Y332000D02*
X291508D01*
X289500Y329992D02*
Y334008D01*
X132169Y286500D02*
X140831D01*
X136500Y282169D02*
Y290831D01*
X123933Y263909D02*
X129051D01*
X126492Y261350D02*
Y266468D01*
X196992Y268760D02*
X201008D01*
X199000Y266752D02*
Y270768D01*
X196992Y278760D02*
X201008D01*
X199000Y276752D02*
Y280768D01*
X124948Y335113D02*
X130066D01*
X127507Y332554D02*
Y337672D01*
X302756Y362205D02*
X311417D01*
X307087Y357874D02*
Y366535D01*
X188583Y362205D02*
X197244D01*
X192913Y357874D02*
Y366535D01*
X287492Y342000D02*
X291508D01*
X289500Y339992D02*
Y344008D01*
X277492Y342000D02*
X281508D01*
X279500Y339992D02*
Y344008D01*
X267492Y342000D02*
X271508D01*
X269500Y339992D02*
Y344008D01*
X277492Y332000D02*
X281508D01*
X279500Y329992D02*
Y334008D01*
X330728Y243158D02*
X334272D01*
X332500Y241386D02*
Y244929D01*
X330728Y345000D02*
X334272D01*
X332500Y343228D02*
Y346772D01*
X330728Y313579D02*
X334272D01*
X332500Y311807D02*
Y315350D01*
X307102Y282413D02*
X309858D01*
X308480Y281035D02*
Y283791D01*
X307102Y292413D02*
X309858D01*
X308480Y291035D02*
Y293791D01*
X307102Y302413D02*
X309858D01*
X308480Y301035D02*
Y303791D01*
X330728Y282157D02*
X334272D01*
X332500Y280386D02*
Y283929D01*
X190534Y297000D02*
X191734D01*
X191134Y296400D02*
Y297600D01*
X273229Y302339D02*
X274429D01*
X273829Y301739D02*
Y302939D01*
X242934Y331032D02*
X244134D01*
X243534Y330433D02*
Y331632D01*
X276181Y292008D02*
X277381D01*
X276781Y291408D02*
Y292608D01*
X265436Y299500D02*
X266636D01*
X266036Y298900D02*
Y300100D01*
X254708Y283500D02*
X255908D01*
X255308Y282900D02*
Y284100D01*
X235434Y331032D02*
X236634D01*
X236034Y330433D02*
Y331632D01*
X229221Y324930D02*
X230421D01*
X229821Y324330D02*
Y325530D01*
X228434Y332230D02*
X229634D01*
X229034Y331630D02*
Y332830D01*
X229691Y281606D02*
X230891D01*
X230291Y281006D02*
Y282206D01*
X226542Y315071D02*
X227742D01*
X227142Y314471D02*
Y315671D01*
X223392Y281606D02*
X224592D01*
X223992Y281006D02*
Y282206D01*
X272900Y268760D02*
X274100D01*
X273500Y268160D02*
Y269360D01*
X232186Y259500D02*
X233386D01*
X232786Y258900D02*
Y260100D01*
X291660Y256429D02*
X292860D01*
X292260Y255829D02*
Y257029D01*
X289593Y240467D02*
X290793D01*
X290193Y239867D02*
Y241067D01*
X278034Y240500D02*
X279234D01*
X278634Y239900D02*
Y241100D01*
X227660Y271500D02*
X228860D01*
X228260Y270900D02*
Y272100D01*
X221541Y259500D02*
X222741D01*
X222141Y258900D02*
Y260100D01*
X210528Y332230D02*
X211728D01*
X211128Y331630D02*
Y332830D01*
X209716Y324930D02*
X210916D01*
X210316Y324330D02*
Y325530D01*
X190400Y322905D02*
X191600D01*
X191000Y322305D02*
Y323505D01*
X183293Y321544D02*
X184493D01*
X183893Y320944D02*
Y322144D01*
X162400Y361000D02*
X163600D01*
X163000Y360400D02*
Y361600D01*
X162400Y354500D02*
X163600D01*
X163000Y353900D02*
Y355100D01*
X158722Y357804D02*
X159922D01*
X159322Y357204D02*
Y358404D01*
X153400Y277500D02*
X154600D01*
X154000Y276900D02*
Y278100D01*
X215635Y271500D02*
X216835D01*
X216235Y270900D02*
Y272100D01*
X171900Y245000D02*
X173100D01*
X172500Y244400D02*
Y245600D01*
X170400Y242500D02*
X171600D01*
X171000Y241900D02*
Y243100D01*
X168900Y245000D02*
X170100D01*
X169500Y244400D02*
Y245600D01*
X200952Y302764D02*
X202152D01*
X201552Y302164D02*
Y303364D01*
X148756Y252523D02*
X149956D01*
X149356Y251923D02*
Y253123D01*
X156493Y304126D02*
X157693D01*
X157093Y303526D02*
Y304726D01*
X164286Y304780D02*
X165486D01*
X164885Y304180D02*
Y305380D01*
X145400Y308500D02*
X146600D01*
X146000Y307900D02*
Y309100D01*
X145400Y304500D02*
X146600D01*
X146000Y303900D02*
Y305100D01*
X145400Y312000D02*
X146600D01*
X146000Y311400D02*
Y312600D01*
X193594Y289500D02*
X194794D01*
X194194Y288900D02*
Y290100D01*
X183240Y245759D02*
X184440D01*
X183840Y245159D02*
Y246359D01*
X185400Y242500D02*
X186600D01*
X186000Y241900D02*
Y243100D01*
X180900Y242500D02*
X182100D01*
X181500Y241900D02*
Y243100D01*
X291400Y317740D02*
X292600D01*
X292000Y317140D02*
Y318340D01*
X299140Y256429D02*
X300340D01*
X299740Y255829D02*
Y257029D01*
X301207Y247948D02*
X302407D01*
X301807Y247347D02*
Y248548D01*
X272900Y276240D02*
X274100D01*
X273500Y275640D02*
Y276840D01*
X276181Y282831D02*
X277381D01*
X276781Y282231D02*
Y283431D01*
X254708Y274500D02*
X255908D01*
X255308Y273900D02*
Y275100D01*
X235140Y271500D02*
X236340D01*
X235740Y270900D02*
Y272100D01*
X223115Y271500D02*
X224316D01*
X223715Y270900D02*
Y272100D01*
X232841Y281606D02*
X234041D01*
X233441Y281006D02*
Y282206D01*
X235991Y315071D02*
X237191D01*
X236591Y314471D02*
Y315671D01*
X242934Y323552D02*
X244134D01*
X243534Y322952D02*
Y324152D01*
X226542Y281606D02*
X227742D01*
X227142Y281006D02*
Y282206D01*
M02*
