G04*
G04 #@! TF.GenerationSoftware,Altium Limited,Altium Designer,25.8.1 (18)*
G04*
G04 Layer_Physical_Order=3*
G04 Layer_Color=128*
%FSLAX25Y25*%
%MOIN*%
G70*
G04*
G04 #@! TF.SameCoordinates,FC6DE8EC-1D21-457F-8DA0-3020905E36BC*
G04*
G04*
G04 #@! TF.FilePolarity,Negative*
G04*
G01*
G75*
%ADD68C,0.05000*%
%ADD81C,0.04000*%
%ADD82C,0.11661*%
%ADD83C,0.15118*%
G04:AMPARAMS|DCode=84|XSize=121.181mil|YSize=121.181mil|CornerRadius=0mil|HoleSize=0mil|Usage=FLASHONLY|Rotation=0.000|XOffset=0mil|YOffset=0mil|HoleType=Round|Shape=Relief|Width=20mil|Gap=15mil|Entries=4|*
%AMTHD84*
7,0,0,0.12118,0.09118,0.02000,45*
%
%ADD84THD84*%
G04:AMPARAMS|DCode=85|XSize=80.157mil|YSize=80.157mil|CornerRadius=0mil|HoleSize=0mil|Usage=FLASHONLY|Rotation=0.000|XOffset=0mil|YOffset=0mil|HoleType=Round|Shape=Relief|Width=10mil|Gap=8mil|Entries=4|*
%AMTHD85*
7,0,0,0.08016,0.06416,0.01000,45*
%
%ADD85THD85*%
G04:AMPARAMS|DCode=86|XSize=75.433mil|YSize=75.433mil|CornerRadius=0mil|HoleSize=0mil|Usage=FLASHONLY|Rotation=0.000|XOffset=0mil|YOffset=0mil|HoleType=Round|Shape=Relief|Width=10mil|Gap=8mil|Entries=4|*
%AMTHD86*
7,0,0,0.07543,0.05943,0.01000,45*
%
%ADD86THD86*%
%ADD87C,0.07016*%
%ADD88C,0.06543*%
%ADD89C,0.05756*%
%ADD90C,0.04200*%
D68*
X113000Y254000D02*
Y282383D01*
X139061Y318000D01*
X173500D01*
Y290000D02*
Y318000D01*
X113000Y254000D02*
X117000D01*
X146000Y274000D02*
X155000Y265000D01*
Y248000D02*
Y265000D01*
X152500Y290000D02*
X173500D01*
X139500Y246500D02*
X153500D01*
X132000Y254000D02*
X139500Y246500D01*
X117000Y254000D02*
X132000D01*
X146000Y274000D02*
Y283500D01*
X152500Y290000D01*
X153500Y246500D02*
X155000Y248000D01*
D81*
X108000Y222500D02*
X372500D01*
Y375500D01*
X108000D02*
X372500D01*
X108000Y222500D02*
Y375500D01*
D82*
X180500Y234000D02*
D03*
X307087Y362000D02*
D03*
X190500D02*
D03*
D03*
D83*
X127507Y335113D02*
D03*
Y355113D02*
D03*
X126492Y243909D02*
D03*
D84*
Y263909D02*
D03*
D85*
X289500Y332000D02*
D03*
D86*
X332500Y354842D02*
D03*
Y323421D02*
D03*
D87*
X269500Y332000D02*
D03*
X289500Y342000D02*
D03*
X279500D02*
D03*
X269500D02*
D03*
X279500Y332000D02*
D03*
X188500Y285500D02*
D03*
X198500D02*
D03*
D88*
X332500Y253000D02*
D03*
Y292000D02*
D03*
Y243158D02*
D03*
Y345000D02*
D03*
Y313579D02*
D03*
Y282157D02*
D03*
D89*
X308480Y282413D02*
D03*
Y292413D02*
D03*
Y302413D02*
D03*
D90*
X155500Y282500D02*
D03*
X154500Y277047D02*
D03*
X174693Y247500D02*
D03*
X159322Y357804D02*
D03*
X183794Y297195D02*
D03*
X183893Y321544D02*
D03*
X191000Y322905D02*
D03*
X149000Y241477D02*
D03*
X161000Y239126D02*
D03*
X278634Y240500D02*
D03*
X290193Y240467D02*
D03*
X292260Y256429D02*
D03*
X273500Y268760D02*
D03*
X276781Y292008D02*
D03*
X255308Y283500D02*
D03*
X266036Y299500D02*
D03*
X273829Y302339D02*
D03*
X205134Y259500D02*
D03*
X216235Y271500D02*
D03*
X228260D02*
D03*
X230291Y281606D02*
D03*
X236034Y331032D02*
D03*
X243534D02*
D03*
X229034Y332230D02*
D03*
X211128D02*
D03*
X210316Y324930D02*
D03*
X229821D02*
D03*
X227142Y315071D02*
D03*
X163000Y361000D02*
D03*
Y354500D02*
D03*
X202107Y296764D02*
D03*
M02*
