G04*
G04 #@! TF.GenerationSoftware,Altium Limited,Altium Designer,25.8.1 (18)*
G04*
G04 Layer_Color=128*
%FSLAX25Y25*%
%MOIN*%
G70*
G04*
G04 #@! TF.SameCoordinates,FC6DE8EC-1D21-457F-8DA0-3020905E36BC*
G04*
G04*
G04 #@! TF.FilePolarity,Positive*
G04*
G01*
G75*
%ADD14C,0.00500*%
D14*
X176169Y234000D02*
X184831D01*
X180500Y229669D02*
Y238331D01*
X302756Y362000D02*
X311417D01*
X307087Y357669D02*
Y366331D01*
X186169Y362000D02*
X194831D01*
X190500Y357669D02*
Y366331D01*
X186169Y362000D02*
X194831D01*
X190500Y357669D02*
Y366331D01*
X124948Y335113D02*
X130066D01*
X127507Y332554D02*
Y337672D01*
X124948Y355113D02*
X130066D01*
X127507Y352554D02*
Y357672D01*
X123933Y263909D02*
X129051D01*
X126492Y261350D02*
Y266468D01*
X123933Y243909D02*
X129051D01*
X126492Y241350D02*
Y246468D01*
X267492Y332000D02*
X271508D01*
X269500Y329992D02*
Y334008D01*
X330728Y253000D02*
X334272D01*
X332500Y251228D02*
Y254772D01*
X330728Y292000D02*
X334272D01*
X332500Y290228D02*
Y293772D01*
X287492Y342000D02*
X291508D01*
X289500Y339992D02*
Y344008D01*
X277492Y342000D02*
X281508D01*
X279500Y339992D02*
Y344008D01*
X267492Y342000D02*
X271508D01*
X269500Y339992D02*
Y344008D01*
X277492Y332000D02*
X281508D01*
X279500Y329992D02*
Y334008D01*
X287492Y332000D02*
X291508D01*
X289500Y329992D02*
Y334008D01*
X186492Y285500D02*
X190508D01*
X188500Y283492D02*
Y287508D01*
X196492Y285500D02*
X200508D01*
X198500Y283492D02*
Y287508D01*
X330728Y354842D02*
X334272D01*
X332500Y353071D02*
Y356614D01*
X330728Y323421D02*
X334272D01*
X332500Y321650D02*
Y325193D01*
X330728Y243158D02*
X334272D01*
X332500Y241386D02*
Y244929D01*
X330728Y345000D02*
X334272D01*
X332500Y343228D02*
Y346772D01*
X330728Y313579D02*
X334272D01*
X332500Y311807D02*
Y315350D01*
X307102Y282413D02*
X309858D01*
X308480Y281035D02*
Y283791D01*
X307102Y292413D02*
X309858D01*
X308480Y291035D02*
Y293791D01*
X307102Y302413D02*
X309858D01*
X308480Y301035D02*
Y303791D01*
X330728Y282157D02*
X334272D01*
X332500Y280386D02*
Y283929D01*
X154900Y282500D02*
X156100D01*
X155500Y281900D02*
Y283100D01*
X153900Y277047D02*
X155100D01*
X154500Y276447D02*
Y277647D01*
X174093Y247500D02*
X175293D01*
X174693Y246900D02*
Y248100D01*
X185707Y247500D02*
X186907D01*
X186307Y246900D02*
Y248100D01*
X158722Y357804D02*
X159922D01*
X159322Y357204D02*
Y358404D01*
X148400Y305500D02*
X149600D01*
X149000Y304900D02*
Y306100D01*
X164286Y304780D02*
X165486D01*
X164885Y304180D02*
Y305380D01*
X156493Y304126D02*
X157693D01*
X157093Y303526D02*
Y304726D01*
X144828Y303063D02*
X146028D01*
X145428Y302463D02*
Y303663D01*
X144828Y308063D02*
X146028D01*
X145428Y307463D02*
Y308663D01*
X144828Y313063D02*
X146028D01*
X145428Y312463D02*
Y313663D01*
X183194Y297195D02*
X184395D01*
X183794Y296595D02*
Y297795D01*
X183293Y321544D02*
X184493D01*
X183893Y320944D02*
Y322144D01*
X190400Y322905D02*
X191600D01*
X191000Y322305D02*
Y323505D01*
X148400Y241477D02*
X149600D01*
X149000Y240877D02*
Y242077D01*
X160400Y239126D02*
X161600D01*
X161000Y238526D02*
Y239726D01*
X278034Y240500D02*
X279234D01*
X278634Y239900D02*
Y241100D01*
X289593Y240467D02*
X290793D01*
X290193Y239867D02*
Y241067D01*
X291660Y256429D02*
X292860D01*
X292260Y255829D02*
Y257029D01*
X272900Y268760D02*
X274100D01*
X273500Y268160D02*
Y269360D01*
X276181Y292008D02*
X277381D01*
X276781Y291408D02*
Y292608D01*
X254708Y283500D02*
X255908D01*
X255308Y282900D02*
Y284100D01*
X265436Y299500D02*
X266636D01*
X266036Y298900D02*
Y300100D01*
X273229Y302339D02*
X274429D01*
X273829Y301739D02*
Y302939D01*
X204534Y259500D02*
X205734D01*
X205134Y258900D02*
Y260100D01*
X215635Y271500D02*
X216835D01*
X216235Y270900D02*
Y272100D01*
X227660Y271500D02*
X228860D01*
X228260Y270900D02*
Y272100D01*
X229691Y281606D02*
X230891D01*
X230291Y281006D02*
Y282206D01*
X235434Y331032D02*
X236634D01*
X236034Y330433D02*
Y331632D01*
X242934Y331032D02*
X244134D01*
X243534Y330433D02*
Y331632D01*
X228434Y332230D02*
X229634D01*
X229034Y331630D02*
Y332830D01*
X210528Y332230D02*
X211728D01*
X211128Y331630D02*
Y332830D01*
X209716Y324930D02*
X210916D01*
X210316Y324330D02*
Y325530D01*
X229221Y324930D02*
X230421D01*
X229821Y324330D02*
Y325530D01*
X226542Y315071D02*
X227742D01*
X227142Y314471D02*
Y315671D01*
X162400Y361000D02*
X163600D01*
X163000Y360400D02*
Y361600D01*
X162400Y354500D02*
X163600D01*
X163000Y353900D02*
Y355100D01*
X147900Y263000D02*
X149100D01*
X148500Y262400D02*
Y263600D01*
X150400Y263000D02*
X151600D01*
X151000Y262400D02*
Y263600D01*
X145400Y263000D02*
X146600D01*
X146000Y262400D02*
Y263600D01*
X148400Y251523D02*
X149600D01*
X149000Y250923D02*
Y252123D01*
X145400Y266000D02*
X146600D01*
X146000Y265400D02*
Y266600D01*
X201507Y296764D02*
X202707D01*
X202107Y296164D02*
Y297364D01*
X201396Y302780D02*
X202596D01*
X201996Y302180D02*
Y303380D01*
X186900Y257500D02*
X188100D01*
X187500Y256900D02*
Y258100D01*
X186900Y263500D02*
X188100D01*
X187500Y262900D02*
Y264100D01*
X186985Y270583D02*
X188185D01*
X187585Y269983D02*
Y271183D01*
X150160Y277047D02*
X151360D01*
X150760Y276447D02*
Y277647D01*
X204239Y268882D02*
X205439D01*
X204839Y268282D02*
Y269481D01*
X226542Y281606D02*
X227742D01*
X227142Y281006D02*
Y282206D01*
X242934Y323552D02*
X244134D01*
X243534Y322952D02*
Y324152D01*
X235991Y315071D02*
X237191D01*
X236591Y314471D02*
Y315671D01*
X232841Y281606D02*
X234041D01*
X233441Y281006D02*
Y282206D01*
X223115Y271500D02*
X224316D01*
X223715Y270900D02*
Y272100D01*
X235140Y271500D02*
X236340D01*
X235740Y270900D02*
Y272100D01*
X254708Y274500D02*
X255908D01*
X255308Y273900D02*
Y275100D01*
X276181Y282831D02*
X277381D01*
X276781Y282231D02*
Y283431D01*
X272900Y276240D02*
X274100D01*
X273500Y275640D02*
Y276840D01*
X301207Y247948D02*
X302407D01*
X301807Y247347D02*
Y248548D01*
X299140Y256429D02*
X300340D01*
X299740Y255829D02*
Y257029D01*
X291400Y317740D02*
X292600D01*
X292000Y317140D02*
Y318340D01*
M02*
