G04*
G04 #@! TF.GenerationSoftware,Altium Limited,Altium Designer,25.8.1 (18)*
G04*
G04 Layer_Color=255*
%FSLAX25Y25*%
%MOIN*%
G70*
G04*
G04 #@! TF.SameCoordinates,92740163-3DE7-4DEA-950A-142008FB6929*
G04*
G04*
G04 #@! TF.FilePolarity,Positive*
G04*
G01*
G75*
%ADD15R,0.06717X0.04546*%
%ADD16R,0.06693X0.09843*%
%ADD17R,0.04724X0.05709*%
%ADD18R,0.05118X0.02756*%
%ADD19R,0.04528X0.04528*%
G04:AMPARAMS|DCode=20|XSize=48.81mil|YSize=20.7mil|CornerRadius=10.35mil|HoleSize=0mil|Usage=FLASHONLY|Rotation=270.000|XOffset=0mil|YOffset=0mil|HoleType=Round|Shape=RoundedRectangle|*
%AMROUNDEDRECTD20*
21,1,0.04881,0.00000,0,0,270.0*
21,1,0.02811,0.02070,0,0,270.0*
1,1,0.02070,0.00000,-0.01405*
1,1,0.02070,0.00000,0.01405*
1,1,0.02070,0.00000,0.01405*
1,1,0.02070,0.00000,-0.01405*
%
%ADD20ROUNDEDRECTD20*%
%ADD21R,0.05512X0.06496*%
%ADD22R,0.03937X0.04921*%
%ADD23R,0.02756X0.05118*%
%ADD24O,0.02362X0.07677*%
%ADD25R,0.05315X0.05709*%
G04:AMPARAMS|DCode=26|XSize=25.59mil|YSize=47.24mil|CornerRadius=1.92mil|HoleSize=0mil|Usage=FLASHONLY|Rotation=90.000|XOffset=0mil|YOffset=0mil|HoleType=Round|Shape=RoundedRectangle|*
%AMROUNDEDRECTD26*
21,1,0.02559,0.04341,0,0,90.0*
21,1,0.02175,0.04724,0,0,90.0*
1,1,0.00384,0.02170,0.01088*
1,1,0.00384,0.02170,-0.01088*
1,1,0.00384,-0.02170,-0.01088*
1,1,0.00384,-0.02170,0.01088*
%
%ADD26ROUNDEDRECTD26*%
%ADD27R,0.04724X0.04724*%
%ADD28R,0.04921X0.03937*%
%ADD29R,0.03543X0.03150*%
%ADD30R,0.12598X0.11221*%
%ADD31R,0.04935X0.07103*%
G04:AMPARAMS|DCode=32|XSize=57.09mil|YSize=23.23mil|CornerRadius=2.9mil|HoleSize=0mil|Usage=FLASHONLY|Rotation=270.000|XOffset=0mil|YOffset=0mil|HoleType=Round|Shape=RoundedRectangle|*
%AMROUNDEDRECTD32*
21,1,0.05709,0.01742,0,0,270.0*
21,1,0.05128,0.02323,0,0,270.0*
1,1,0.00581,-0.00871,-0.02564*
1,1,0.00581,-0.00871,0.02564*
1,1,0.00581,0.00871,0.02564*
1,1,0.00581,0.00871,-0.02564*
%
%ADD32ROUNDEDRECTD32*%
%ADD33R,0.07284X0.16142*%
%ADD34R,0.04558X0.05363*%
%ADD35R,0.05709X0.03740*%
%ADD36R,0.06102X0.05512*%
%ADD37C,0.14389*%
%ADD38R,0.03228X0.01614*%
%ADD39R,0.04803X0.03583*%
%ADD40R,0.03740X0.05709*%
%ADD41R,0.05315X0.03937*%
%ADD42O,0.07677X0.02362*%
%ADD43R,0.02070X0.04881*%
%ADD44R,0.22047X0.08268*%
%ADD64C,0.06181*%
%ADD65R,0.06181X0.06181*%
%ADD68C,0.04724*%
%ADD72C,0.06102*%
%ADD73C,0.05512*%
%ADD74R,0.07087X0.07087*%
%ADD75C,0.07087*%
%ADD76R,0.06102X0.06102*%
%ADD77R,0.05512X0.05512*%
D15*
X149356Y242477D02*
D03*
Y252523D02*
D03*
D16*
X160830Y234126D02*
D03*
Y249874D02*
D03*
D17*
X273829Y302339D02*
D03*
X280522D02*
D03*
D18*
X243534Y331032D02*
D03*
X236034D02*
D03*
X273500Y268760D02*
D03*
X243534Y323552D02*
D03*
X273500Y276240D02*
D03*
X236034Y323552D02*
D03*
D19*
X266036Y299500D02*
D03*
X256784Y292000D02*
D03*
X266036D02*
D03*
X256784Y299500D02*
D03*
D20*
X276781Y292008D02*
D03*
Y282831D02*
D03*
X280522D02*
D03*
X273041D02*
D03*
Y292008D02*
D03*
D21*
X255308Y283500D02*
D03*
X255308Y274500D02*
D03*
X265544Y283500D02*
D03*
X265544Y274500D02*
D03*
D22*
X229034Y332230D02*
D03*
X211128D02*
D03*
X164098Y317199D02*
D03*
X170004D02*
D03*
X223128Y332230D02*
D03*
X217034D02*
D03*
D23*
X229821Y324930D02*
D03*
X292260Y256429D02*
D03*
X228260Y271500D02*
D03*
X210316Y324930D02*
D03*
X216235Y271500D02*
D03*
X299740Y256429D02*
D03*
X223715Y271500D02*
D03*
X235740D02*
D03*
X222341Y324930D02*
D03*
X217797D02*
D03*
D24*
X230291Y281606D02*
D03*
X227142Y315071D02*
D03*
X223992Y281606D02*
D03*
X227142D02*
D03*
X233441D02*
D03*
X236591Y315071D02*
D03*
X220842D02*
D03*
X217693D02*
D03*
X220842Y281606D02*
D03*
X236591D02*
D03*
X239740D02*
D03*
X233441Y315071D02*
D03*
X230291D02*
D03*
X223992D02*
D03*
X217693Y281606D02*
D03*
X239740Y315071D02*
D03*
D25*
X232786Y259500D02*
D03*
X222141D02*
D03*
X239282D02*
D03*
X215645D02*
D03*
D26*
X290193Y240467D02*
D03*
X301807Y247948D02*
D03*
Y240467D02*
D03*
X290193Y247948D02*
D03*
Y244207D02*
D03*
D27*
X278634Y240500D02*
D03*
X191134Y297000D02*
D03*
X173866Y231500D02*
D03*
X182866Y297000D02*
D03*
X270366Y240500D02*
D03*
X182134Y231500D02*
D03*
X308480Y302413D02*
D03*
D28*
X191000Y322905D02*
D03*
X201552Y302764D02*
D03*
X164885Y310686D02*
D03*
Y304780D02*
D03*
X191000Y317000D02*
D03*
X201552Y296858D02*
D03*
D29*
X183893Y321544D02*
D03*
X176019Y317804D02*
D03*
X183893Y314064D02*
D03*
D30*
X159315Y357804D02*
D03*
Y334576D02*
D03*
D31*
X171479Y251000D02*
D03*
X181521D02*
D03*
D32*
X154987Y272222D02*
D03*
X158727Y263127D02*
D03*
X151247Y272222D02*
D03*
Y263127D02*
D03*
X154987D02*
D03*
X158727Y272222D02*
D03*
D33*
X166815Y270013D02*
D03*
X181185D02*
D03*
D34*
X166757Y286500D02*
D03*
X160243D02*
D03*
D35*
X189500Y239177D02*
D03*
Y231500D02*
D03*
D36*
X292000Y317740D02*
D03*
Y310260D02*
D03*
Y299638D02*
D03*
Y292158D02*
D03*
D37*
X130563Y310563D02*
D03*
D38*
X145428Y318063D02*
D03*
Y313063D02*
D03*
Y308063D02*
D03*
Y303063D02*
D03*
D39*
X157093Y317000D02*
D03*
Y304126D02*
D03*
D40*
X175822Y305090D02*
D03*
X183499D02*
D03*
X278339Y247997D02*
D03*
X270661D02*
D03*
D41*
X191000Y305090D02*
D03*
Y310996D02*
D03*
D42*
X211984Y296764D02*
D03*
X245449Y293614D02*
D03*
Y287315D02*
D03*
Y290465D02*
D03*
Y296764D02*
D03*
Y299913D02*
D03*
Y303063D02*
D03*
Y306213D02*
D03*
Y309362D02*
D03*
X211984D02*
D03*
Y306213D02*
D03*
Y303063D02*
D03*
Y299913D02*
D03*
Y293614D02*
D03*
Y290465D02*
D03*
Y287315D02*
D03*
D43*
X280522Y292008D02*
D03*
D44*
X247517Y244248D02*
D03*
X210115D02*
D03*
D64*
X199000Y268760D02*
D03*
D65*
Y278760D02*
D03*
D68*
X308480Y282413D02*
D03*
Y292413D02*
D03*
D72*
X269500Y332000D02*
D03*
X289500D02*
D03*
X279500Y342000D02*
D03*
X269500D02*
D03*
X279500Y332000D02*
D03*
D73*
X332500Y292000D02*
D03*
Y253000D02*
D03*
Y323421D02*
D03*
Y354842D02*
D03*
D74*
X127507Y355113D02*
D03*
X126492Y263909D02*
D03*
D75*
Y243909D02*
D03*
X127507Y335113D02*
D03*
D76*
X289500Y342000D02*
D03*
D77*
X332500Y243158D02*
D03*
Y345000D02*
D03*
Y313579D02*
D03*
Y282157D02*
D03*
M02*
