M48
;Layer_Color=9474304
;FILE_FORMAT=2:4
INCH,TZ
;TYPE=PLATED
T01F00S00C0.0120
T02F00S00C0.0276
T03F00S00C0.0354
T04F00S00C0.0402
T05F00S00C0.0512
;TYPE=NON_PLATED
T06F00S00C0.0866
%
T01
X16100Y23913
X17469Y24750
X18631
X18750Y25750
Y26350
X18758Y27058
X20484Y26888
X20513Y25950
X21624Y27150
X22372
X22826
X23574
X23344Y28161
X23029
X22714
X25531Y28350
X25531Y27450
X27350Y27624
Y26876
X27678Y28283
Y29201
X27383Y30234
X26604Y29950
X20211Y29676
X20200Y30278
X18379Y29720
X16489Y30478
X15709Y30413
X29226Y25643
X29974
X30181Y24795
X29019Y24047
X27863Y24050
X14900Y24148
Y25152
X14850Y26300
X15100
X14600
Y26600
X15076Y27705
X15450
X15550Y28250
X14900Y30550
X14543Y30306
Y30806
Y31306
X18389Y32154
X19100Y32291
X21032Y32493
X21113Y33223
X22903
X22982Y32493
X23603Y33103
X24353
Y32355
X23659Y31507
X22714
X29200Y31774
X16300Y35450
Y36100
X15932Y35780
T02
X30848Y28241
Y29241
Y30241
T03
X33250Y24316
Y25300
Y28216
Y29200
Y31358
Y32342
Y34500
Y35484
T04
X18850Y28550
X19850
X26950Y33200
Y34200
X27950
X28950
Y33200
X27950
T05
X12649Y24391
Y26391
X12751Y33511
Y35511
T06
X18050Y23400
X19050Y36200
X30709
M30
