G04*
G04 #@! TF.GenerationSoftware,Altium Limited,Altium Designer,25.8.1 (18)*
G04*
G04 Layer_Color=2752767*
%FSLAX25Y25*%
%MOIN*%
G70*
G04*
G04 #@! TF.SameCoordinates,FC6DE8EC-1D21-457F-8DA0-3020905E36BC*
G04*
G04*
G04 #@! TF.FilePolarity,Positive*
G04*
G01*
G75*
%ADD14C,0.00500*%
%ADD95C,0.00667*%
D14*
X178500Y232000D02*
X179500D01*
X180500Y233000D01*
X181500Y232000D01*
X182500D01*
Y233000D01*
X181500Y234000D01*
X182500Y235000D01*
Y236000D01*
X181500D01*
X180500Y235000D01*
X179500Y236000D01*
X178500D01*
Y235000D01*
X179500Y234000D01*
X178500Y233000D01*
Y232000D01*
X305087Y360000D02*
X306087D01*
X307087Y361000D01*
X308087Y360000D01*
X309087D01*
Y361000D01*
X308087Y362000D01*
X309087Y363000D01*
Y364000D01*
X308087D01*
X307087Y363000D01*
X306087Y364000D01*
X305087D01*
Y363000D01*
X306087Y362000D01*
X305087Y361000D01*
Y360000D01*
X188500D02*
X189500D01*
X190500Y361000D01*
X191500Y360000D01*
X192500D01*
Y361000D01*
X191500Y362000D01*
X192500Y363000D01*
Y364000D01*
X191500D01*
X190500Y363000D01*
X189500Y364000D01*
X188500D01*
Y363000D01*
X189500Y362000D01*
X188500Y361000D01*
Y360000D01*
X125507Y333113D02*
Y337113D01*
X129507D01*
Y333113D01*
X125507D01*
Y353113D02*
Y357113D01*
X129507D01*
Y353113D01*
X125507D01*
X124492Y261909D02*
Y265909D01*
X128492D01*
Y261909D01*
X124492D01*
Y241909D02*
Y245909D01*
X128492D01*
Y241909D01*
X124492D01*
X269500Y330000D02*
X267500Y334000D01*
X271500D01*
X269500Y330000D01*
X289500Y340000D02*
X287500Y344000D01*
X291500D01*
X289500Y340000D01*
X279500D02*
X277500Y344000D01*
X281500D01*
X279500Y340000D01*
X269500D02*
X267500Y344000D01*
X271500D01*
X269500Y340000D01*
X279500Y330000D02*
X277500Y334000D01*
X281500D01*
X279500Y330000D01*
X289500D02*
X287500Y334000D01*
X291500D01*
X289500Y330000D01*
X188500Y283500D02*
X186500Y287500D01*
X190500D01*
X188500Y283500D01*
X198500D02*
X196500Y287500D01*
X200500D01*
X198500Y283500D01*
X308480Y280413D02*
X309480Y281413D01*
X310480D01*
X309480Y282413D01*
X310480Y283413D01*
X309480D01*
X308480Y284413D01*
X307480Y283413D01*
X306480D01*
X307480Y282413D01*
X306480Y281413D01*
X307480D01*
X308480Y280413D01*
Y290413D02*
X309480Y291413D01*
X310480D01*
X309480Y292413D01*
X310480Y293413D01*
X309480D01*
X308480Y294413D01*
X307480Y293413D01*
X306480D01*
X307480Y292413D01*
X306480Y291413D01*
X307480D01*
X308480Y290413D01*
Y300413D02*
X309480Y301413D01*
X310480D01*
X309480Y302413D01*
X310480Y303413D01*
X309480D01*
X308480Y304413D01*
X307480Y303413D01*
X306480D01*
X307480Y302413D01*
X306480Y301413D01*
X307480D01*
X308480Y300413D01*
X153500Y280500D02*
X154500Y282500D01*
X153500Y284500D01*
X155500Y283500D01*
X157500Y284500D01*
X156500Y282500D01*
X157500Y280500D01*
X155500Y281500D01*
X153500Y280500D01*
X152500Y275047D02*
X153500Y277047D01*
X152500Y279047D01*
X154500Y278047D01*
X156500Y279047D01*
X155500Y277047D01*
X156500Y275047D01*
X154500Y276047D01*
X152500Y275047D01*
X172693Y245500D02*
X173693Y247500D01*
X172693Y249500D01*
X174693Y248500D01*
X176693Y249500D01*
X175693Y247500D01*
X176693Y245500D01*
X174693Y246500D01*
X172693Y245500D01*
X184307D02*
X185307Y247500D01*
X184307Y249500D01*
X186307Y248500D01*
X188307Y249500D01*
X187307Y247500D01*
X188307Y245500D01*
X186307Y246500D01*
X184307Y245500D01*
X157322Y355804D02*
X158322Y357804D01*
X157322Y359804D01*
X159322Y358804D01*
X161322Y359804D01*
X160322Y357804D01*
X161322Y355804D01*
X159322Y356804D01*
X157322Y355804D01*
X147000Y303500D02*
X148000Y305500D01*
X147000Y307500D01*
X149000Y306500D01*
X151000Y307500D01*
X150000Y305500D01*
X151000Y303500D01*
X149000Y304500D01*
X147000Y303500D01*
X162885Y302780D02*
X163885Y304780D01*
X162885Y306780D01*
X164885Y305780D01*
X166885Y306780D01*
X165885Y304780D01*
X166885Y302780D01*
X164885Y303780D01*
X162885Y302780D01*
X155093Y302126D02*
X156093Y304126D01*
X155093Y306126D01*
X157093Y305126D01*
X159093Y306126D01*
X158093Y304126D01*
X159093Y302126D01*
X157093Y303126D01*
X155093Y302126D01*
X143428Y301063D02*
X144428Y303063D01*
X143428Y305063D01*
X145428Y304063D01*
X147428Y305063D01*
X146428Y303063D01*
X147428Y301063D01*
X145428Y302063D01*
X143428Y301063D01*
Y306063D02*
X144428Y308063D01*
X143428Y310063D01*
X145428Y309063D01*
X147428Y310063D01*
X146428Y308063D01*
X147428Y306063D01*
X145428Y307063D01*
X143428Y306063D01*
Y311063D02*
X144428Y313063D01*
X143428Y315063D01*
X145428Y314063D01*
X147428Y315063D01*
X146428Y313063D01*
X147428Y311063D01*
X145428Y312063D01*
X143428Y311063D01*
X181795Y295195D02*
X182794Y297195D01*
X181795Y299195D01*
X183794Y298195D01*
X185794Y299195D01*
X184794Y297195D01*
X185794Y295195D01*
X183794Y296195D01*
X181795Y295195D01*
X181893Y319544D02*
X182893Y321544D01*
X181893Y323544D01*
X183893Y322544D01*
X185893Y323544D01*
X184893Y321544D01*
X185893Y319544D01*
X183893Y320544D01*
X181893Y319544D01*
X189000Y320905D02*
X190000Y322905D01*
X189000Y324905D01*
X191000Y323905D01*
X193000Y324905D01*
X192000Y322905D01*
X193000Y320905D01*
X191000Y321905D01*
X189000Y320905D01*
X147000Y239477D02*
X148000Y241477D01*
X147000Y243477D01*
X149000Y242477D01*
X151000Y243477D01*
X150000Y241477D01*
X151000Y239477D01*
X149000Y240477D01*
X147000Y239477D01*
X159000Y237126D02*
X160000Y239126D01*
X159000Y241126D01*
X161000Y240126D01*
X163000Y241126D01*
X162000Y239126D01*
X163000Y237126D01*
X161000Y238126D01*
X159000Y237126D01*
X276634Y238500D02*
X277634Y240500D01*
X276634Y242500D01*
X278634Y241500D01*
X280634Y242500D01*
X279634Y240500D01*
X280634Y238500D01*
X278634Y239500D01*
X276634Y238500D01*
X288193Y238467D02*
X289193Y240467D01*
X288193Y242467D01*
X290193Y241467D01*
X292193Y242467D01*
X291193Y240467D01*
X292193Y238467D01*
X290193Y239467D01*
X288193Y238467D01*
X290260Y254429D02*
X291260Y256429D01*
X290260Y258429D01*
X292260Y257429D01*
X294260Y258429D01*
X293260Y256429D01*
X294260Y254429D01*
X292260Y255429D01*
X290260Y254429D01*
X271500Y266760D02*
X272500Y268760D01*
X271500Y270760D01*
X273500Y269760D01*
X275500Y270760D01*
X274500Y268760D01*
X275500Y266760D01*
X273500Y267760D01*
X271500Y266760D01*
X274781Y290008D02*
X275781Y292008D01*
X274781Y294008D01*
X276781Y293008D01*
X278781Y294008D01*
X277781Y292008D01*
X278781Y290008D01*
X276781Y291008D01*
X274781Y290008D01*
X253308Y281500D02*
X254308Y283500D01*
X253308Y285500D01*
X255308Y284500D01*
X257308Y285500D01*
X256308Y283500D01*
X257308Y281500D01*
X255308Y282500D01*
X253308Y281500D01*
X264036Y297500D02*
X265036Y299500D01*
X264036Y301500D01*
X266036Y300500D01*
X268036Y301500D01*
X267036Y299500D01*
X268036Y297500D01*
X266036Y298500D01*
X264036Y297500D01*
X271829Y300339D02*
X272829Y302339D01*
X271829Y304339D01*
X273829Y303339D01*
X275829Y304339D01*
X274829Y302339D01*
X275829Y300339D01*
X273829Y301339D01*
X271829Y300339D01*
X203134Y257500D02*
X204134Y259500D01*
X203134Y261500D01*
X205134Y260500D01*
X207134Y261500D01*
X206134Y259500D01*
X207134Y257500D01*
X205134Y258500D01*
X203134Y257500D01*
X214235Y269500D02*
X215235Y271500D01*
X214235Y273500D01*
X216235Y272500D01*
X218235Y273500D01*
X217235Y271500D01*
X218235Y269500D01*
X216235Y270500D01*
X214235Y269500D01*
X226260D02*
X227260Y271500D01*
X226260Y273500D01*
X228260Y272500D01*
X230260Y273500D01*
X229260Y271500D01*
X230260Y269500D01*
X228260Y270500D01*
X226260Y269500D01*
X228291Y279606D02*
X229291Y281606D01*
X228291Y283606D01*
X230291Y282606D01*
X232291Y283606D01*
X231291Y281606D01*
X232291Y279606D01*
X230291Y280606D01*
X228291Y279606D01*
X234034Y329032D02*
X235034Y331032D01*
X234034Y333032D01*
X236034Y332032D01*
X238034Y333032D01*
X237034Y331032D01*
X238034Y329032D01*
X236034Y330032D01*
X234034Y329032D01*
X241534D02*
X242534Y331032D01*
X241534Y333032D01*
X243534Y332032D01*
X245534Y333032D01*
X244534Y331032D01*
X245534Y329032D01*
X243534Y330032D01*
X241534Y329032D01*
X227034Y330230D02*
X228034Y332230D01*
X227034Y334230D01*
X229034Y333230D01*
X231034Y334230D01*
X230034Y332230D01*
X231034Y330230D01*
X229034Y331230D01*
X227034Y330230D01*
X209128D02*
X210128Y332230D01*
X209128Y334230D01*
X211128Y333230D01*
X213128Y334230D01*
X212128Y332230D01*
X213128Y330230D01*
X211128Y331230D01*
X209128Y330230D01*
X208316Y322930D02*
X209316Y324930D01*
X208316Y326930D01*
X210316Y325930D01*
X212316Y326930D01*
X211316Y324930D01*
X212316Y322930D01*
X210316Y323930D01*
X208316Y322930D01*
X227821D02*
X228821Y324930D01*
X227821Y326930D01*
X229821Y325930D01*
X231821Y326930D01*
X230821Y324930D01*
X231821Y322930D01*
X229821Y323930D01*
X227821Y322930D01*
X225142Y313071D02*
X226142Y315071D01*
X225142Y317071D01*
X227142Y316071D01*
X229142Y317071D01*
X228142Y315071D01*
X229142Y313071D01*
X227142Y314071D01*
X225142Y313071D01*
X161000Y359000D02*
X162000Y361000D01*
X161000Y363000D01*
X163000Y362000D01*
X165000Y363000D01*
X164000Y361000D01*
X165000Y359000D01*
X163000Y360000D01*
X161000Y359000D01*
Y352500D02*
X162000Y354500D01*
X161000Y356500D01*
X163000Y355500D01*
X165000Y356500D01*
X164000Y354500D01*
X165000Y352500D01*
X163000Y353500D01*
X161000Y352500D01*
X146500Y261000D02*
X147500Y263000D01*
X146500Y265000D01*
X148500Y264000D01*
X150500Y265000D01*
X149500Y263000D01*
X150500Y261000D01*
X148500Y262000D01*
X146500Y261000D01*
X149000D02*
X150000Y263000D01*
X149000Y265000D01*
X151000Y264000D01*
X153000Y265000D01*
X152000Y263000D01*
X153000Y261000D01*
X151000Y262000D01*
X149000Y261000D01*
X144000D02*
X145000Y263000D01*
X144000Y265000D01*
X146000Y264000D01*
X148000Y265000D01*
X147000Y263000D01*
X148000Y261000D01*
X146000Y262000D01*
X144000Y261000D01*
X147000Y249523D02*
X148000Y251523D01*
X147000Y253523D01*
X149000Y252523D01*
X151000Y253523D01*
X150000Y251523D01*
X151000Y249523D01*
X149000Y250523D01*
X147000Y249523D01*
X144000Y264000D02*
X145000Y266000D01*
X144000Y268000D01*
X146000Y267000D01*
X148000Y268000D01*
X147000Y266000D01*
X148000Y264000D01*
X146000Y265000D01*
X144000Y264000D01*
X200107Y294764D02*
X201107Y296764D01*
X200107Y298764D01*
X202107Y297764D01*
X204107Y298764D01*
X203107Y296764D01*
X204107Y294764D01*
X202107Y295764D01*
X200107Y294764D01*
X199996Y300780D02*
X200996Y302780D01*
X199996Y304780D01*
X201996Y303780D01*
X203996Y304780D01*
X202996Y302780D01*
X203996Y300780D01*
X201996Y301780D01*
X199996Y300780D01*
X185500Y255500D02*
X186500Y257500D01*
X185500Y259500D01*
X187500Y258500D01*
X189500Y259500D01*
X188500Y257500D01*
X189500Y255500D01*
X187500Y256500D01*
X185500Y255500D01*
Y261500D02*
X186500Y263500D01*
X185500Y265500D01*
X187500Y264500D01*
X189500Y265500D01*
X188500Y263500D01*
X189500Y261500D01*
X187500Y262500D01*
X185500Y261500D01*
X185585Y268583D02*
X186585Y270583D01*
X185585Y272583D01*
X187585Y271583D01*
X189585Y272583D01*
X188585Y270583D01*
X189585Y268583D01*
X187585Y269583D01*
X185585Y268583D01*
X148760Y275047D02*
X149760Y277047D01*
X148760Y279047D01*
X150760Y278047D01*
X152760Y279047D01*
X151760Y277047D01*
X152760Y275047D01*
X150760Y276047D01*
X148760Y275047D01*
X202839Y266881D02*
X203839Y268882D01*
X202839Y270882D01*
X204839Y269882D01*
X206839Y270882D01*
X205839Y268882D01*
X206839Y266881D01*
X204839Y267881D01*
X202839Y266881D01*
X225142Y279606D02*
X226142Y281606D01*
X225142Y283606D01*
X227142Y282606D01*
X229142Y283606D01*
X228142Y281606D01*
X229142Y279606D01*
X227142Y280606D01*
X225142Y279606D01*
X241534Y321552D02*
X242534Y323552D01*
X241534Y325552D01*
X243534Y324552D01*
X245534Y325552D01*
X244534Y323552D01*
X245534Y321552D01*
X243534Y322552D01*
X241534Y321552D01*
X234591Y313071D02*
X235591Y315071D01*
X234591Y317071D01*
X236591Y316071D01*
X238591Y317071D01*
X237591Y315071D01*
X238591Y313071D01*
X236591Y314071D01*
X234591Y313071D01*
X231441Y279606D02*
X232441Y281606D01*
X231441Y283606D01*
X233441Y282606D01*
X235441Y283606D01*
X234441Y281606D01*
X235441Y279606D01*
X233441Y280606D01*
X231441Y279606D01*
X221715Y269500D02*
X222715Y271500D01*
X221715Y273500D01*
X223715Y272500D01*
X225715Y273500D01*
X224715Y271500D01*
X225715Y269500D01*
X223715Y270500D01*
X221715Y269500D01*
X233740D02*
X234740Y271500D01*
X233740Y273500D01*
X235740Y272500D01*
X237740Y273500D01*
X236740Y271500D01*
X237740Y269500D01*
X235740Y270500D01*
X233740Y269500D01*
X253308Y272500D02*
X254308Y274500D01*
X253308Y276500D01*
X255308Y275500D01*
X257308Y276500D01*
X256308Y274500D01*
X257308Y272500D01*
X255308Y273500D01*
X253308Y272500D01*
X274781Y280831D02*
X275781Y282831D01*
X274781Y284831D01*
X276781Y283831D01*
X278781Y284831D01*
X277781Y282831D01*
X278781Y280831D01*
X276781Y281831D01*
X274781Y280831D01*
X271500Y274240D02*
X272500Y276240D01*
X271500Y278240D01*
X273500Y277240D01*
X275500Y278240D01*
X274500Y276240D01*
X275500Y274240D01*
X273500Y275240D01*
X271500Y274240D01*
X299807Y245948D02*
X300807Y247948D01*
X299807Y249948D01*
X301807Y248948D01*
X303807Y249948D01*
X302807Y247948D01*
X303807Y245948D01*
X301807Y246948D01*
X299807Y245948D01*
X297740Y254429D02*
X298740Y256429D01*
X297740Y258429D01*
X299740Y257429D01*
X301740Y258429D01*
X300740Y256429D01*
X301740Y254429D01*
X299740Y255429D01*
X297740Y254429D01*
X290000Y315740D02*
X291000Y317740D01*
X290000Y319740D01*
X292000Y318740D01*
X294000Y319740D01*
X293000Y317740D01*
X294000Y315740D01*
X292000Y316740D01*
X290000Y315740D01*
D95*
X334500Y253000D02*
G03*
X334500Y253000I-2000J0D01*
G01*
Y292000D02*
G03*
X334500Y292000I-2000J0D01*
G01*
Y354842D02*
G03*
X334500Y354842I-2000J0D01*
G01*
Y323421D02*
G03*
X334500Y323421I-2000J0D01*
G01*
Y243158D02*
G03*
X334500Y243158I-2000J0D01*
G01*
Y345000D02*
G03*
X334500Y345000I-2000J0D01*
G01*
Y313579D02*
G03*
X334500Y313579I-2000J0D01*
G01*
Y282157D02*
G03*
X334500Y282157I-2000J0D01*
G01*
M02*
