G04*
G04 #@! TF.GenerationSoftware,Altium Limited,Altium Designer,25.8.1 (18)*
G04*
G04 Layer_Physical_Order=4*
G04 Layer_Color=16711680*
%FSLAX25Y25*%
%MOIN*%
G70*
G04*
G04 #@! TF.SameCoordinates,FC6DE8EC-1D21-457F-8DA0-3020905E36BC*
G04*
G04*
G04 #@! TF.FilePolarity,Positive*
G04*
G01*
G75*
%ADD23R,0.04724X0.04724*%
%ADD64R,0.06181X0.06181*%
%ADD65C,0.06181*%
%ADD67C,0.04724*%
%ADD72C,0.01200*%
%ADD74C,0.07087*%
%ADD75R,0.07087X0.07087*%
%ADD76C,0.06102*%
%ADD77C,0.05512*%
%ADD78R,0.06102X0.06102*%
%ADD79R,0.05512X0.05512*%
%ADD80C,0.02400*%
D23*
X308480Y302413D02*
D03*
D64*
X188500Y285500D02*
D03*
D65*
X198500D02*
D03*
D67*
X308480Y282413D02*
D03*
Y292413D02*
D03*
D72*
X224264Y296764D02*
X269500Y342000D01*
X202107Y296764D02*
X224264D01*
D74*
X127507Y335113D02*
D03*
X126492Y243909D02*
D03*
D75*
X127507Y355113D02*
D03*
X126492Y263909D02*
D03*
D76*
X269500Y332000D02*
D03*
X279500Y342000D02*
D03*
X269500D02*
D03*
X279500Y332000D02*
D03*
X289500D02*
D03*
D77*
X332500Y253000D02*
D03*
Y292000D02*
D03*
Y354842D02*
D03*
Y323421D02*
D03*
D78*
X289500Y342000D02*
D03*
D79*
X332500Y243158D02*
D03*
Y345000D02*
D03*
Y313579D02*
D03*
Y282157D02*
D03*
D80*
X155500Y282500D02*
D03*
X154500Y277047D02*
D03*
X174693Y247500D02*
D03*
X186307D02*
D03*
X159322Y357804D02*
D03*
X149000Y305500D02*
D03*
X164885Y304780D02*
D03*
X157093Y304126D02*
D03*
X145428Y303063D02*
D03*
Y308063D02*
D03*
Y313063D02*
D03*
X183794Y297195D02*
D03*
X183893Y321544D02*
D03*
X191000Y322905D02*
D03*
X149000Y241477D02*
D03*
X161000Y239126D02*
D03*
X278634Y240500D02*
D03*
X290193Y240467D02*
D03*
X292260Y256429D02*
D03*
X273500Y268760D02*
D03*
X276781Y292008D02*
D03*
X255308Y283500D02*
D03*
X266036Y299500D02*
D03*
X273829Y302339D02*
D03*
X205134Y259500D02*
D03*
X216235Y271500D02*
D03*
X228260D02*
D03*
X230291Y281606D02*
D03*
X236034Y331032D02*
D03*
X243534D02*
D03*
X229034Y332230D02*
D03*
X211128D02*
D03*
X210316Y324930D02*
D03*
X229821D02*
D03*
X227142Y315071D02*
D03*
X163000Y361000D02*
D03*
Y354500D02*
D03*
X148500Y263000D02*
D03*
X151000D02*
D03*
X146000D02*
D03*
X149000Y251523D02*
D03*
X146000Y266000D02*
D03*
X202107Y296764D02*
D03*
X201996Y302780D02*
D03*
X187500Y257500D02*
D03*
Y263500D02*
D03*
X187585Y270583D02*
D03*
X150760Y277047D02*
D03*
X204839Y268882D02*
D03*
X227142Y281606D02*
D03*
X243534Y323552D02*
D03*
X236591Y315071D02*
D03*
X233441Y281606D02*
D03*
X223715Y271500D02*
D03*
X235740D02*
D03*
X255308Y274500D02*
D03*
X276781Y282831D02*
D03*
X273500Y276240D02*
D03*
X301807Y247948D02*
D03*
X299740Y256429D02*
D03*
X292000Y317740D02*
D03*
M02*
