G04*
G04 #@! TF.GenerationSoftware,Altium Limited,Altium Designer,25.8.1 (18)*
G04*
G04 Layer_Color=16711935*
%FSLAX25Y25*%
%MOIN*%
G70*
G04*
G04 #@! TF.SameCoordinates,92740163-3DE7-4DEA-950A-142008FB6929*
G04*
G04*
G04 #@! TF.FilePolarity,Negative*
G04*
G01*
G75*
%ADD27R,0.04724X0.04724*%
%ADD59C,0.06902*%
%ADD60C,0.06312*%
%ADD61R,0.07887X0.07887*%
%ADD62C,0.07887*%
%ADD63C,0.00800*%
%ADD64C,0.06181*%
%ADD65R,0.06181X0.06181*%
%ADD66R,0.06902X0.06902*%
%ADD67R,0.06312X0.06312*%
%ADD68C,0.04724*%
D27*
X308480Y302413D02*
D03*
D59*
X269500Y332000D02*
D03*
X289500D02*
D03*
X279500Y342000D02*
D03*
X269500D02*
D03*
X279500Y332000D02*
D03*
D60*
X332500Y292000D02*
D03*
Y253000D02*
D03*
Y323421D02*
D03*
Y354842D02*
D03*
D61*
X127507Y355113D02*
D03*
X126492Y263909D02*
D03*
D62*
Y243909D02*
D03*
X127507Y335113D02*
D03*
D63*
X136500Y286500D02*
D03*
X307087Y362205D02*
D03*
X192913D02*
D03*
D64*
X199000Y268760D02*
D03*
D65*
Y278760D02*
D03*
D66*
X289500Y342000D02*
D03*
D67*
X332500Y243158D02*
D03*
Y345000D02*
D03*
Y313579D02*
D03*
Y282157D02*
D03*
D68*
X308480Y282413D02*
D03*
Y292413D02*
D03*
M02*
