G04*
G04 #@! TF.GenerationSoftware,Altium Limited,Altium Designer,25.8.1 (18)*
G04*
G04 Layer_Color=8388736*
%FSLAX25Y25*%
%MOIN*%
G70*
G04*
G04 #@! TF.SameCoordinates,FC6DE8EC-1D21-457F-8DA0-3020905E36BC*
G04*
G04*
G04 #@! TF.FilePolarity,Negative*
G04*
G01*
G75*
%ADD15R,0.03228X0.01614*%
%ADD16C,0.14389*%
%ADD21R,0.06693X0.09843*%
%ADD22R,0.06717X0.04546*%
%ADD23R,0.04724X0.04724*%
%ADD24R,0.02756X0.05118*%
%ADD26R,0.04528X0.04528*%
%ADD27R,0.05512X0.06496*%
G04:AMPARAMS|DCode=28|XSize=48.81mil|YSize=20.7mil|CornerRadius=10.35mil|HoleSize=0mil|Usage=FLASHONLY|Rotation=270.000|XOffset=0mil|YOffset=0mil|HoleType=Round|Shape=RoundedRectangle|*
%AMROUNDEDRECTD28*
21,1,0.04881,0.00000,0,0,270.0*
21,1,0.02811,0.02070,0,0,270.0*
1,1,0.02070,0.00000,-0.01405*
1,1,0.02070,0.00000,0.01405*
1,1,0.02070,0.00000,0.01405*
1,1,0.02070,0.00000,-0.01405*
%
%ADD28ROUNDEDRECTD28*%
%ADD30R,0.05118X0.02756*%
%ADD33R,0.04134X0.06299*%
%ADD35R,0.03740X0.05709*%
%ADD36R,0.04558X0.05363*%
%ADD37R,0.07284X0.16142*%
%ADD41R,0.02070X0.04881*%
%ADD43R,0.22047X0.08268*%
%ADD44R,0.13398X0.12020*%
%ADD45R,0.05603X0.04383*%
%ADD46R,0.05721X0.04737*%
%ADD47R,0.04737X0.05721*%
%ADD48R,0.05524X0.05524*%
%ADD49O,0.03162X0.08477*%
G04:AMPARAMS|DCode=50|XSize=33.59mil|YSize=55.24mil|CornerRadius=5.92mil|HoleSize=0mil|Usage=FLASHONLY|Rotation=90.000|XOffset=0mil|YOffset=0mil|HoleType=Round|Shape=RoundedRectangle|*
%AMROUNDEDRECTD50*
21,1,0.03359,0.04341,0,0,90.0*
21,1,0.02175,0.05524,0,0,90.0*
1,1,0.01184,0.02170,0.01088*
1,1,0.01184,0.02170,-0.01088*
1,1,0.01184,-0.02170,-0.01088*
1,1,0.01184,-0.02170,0.01088*
%
%ADD50ROUNDEDRECTD50*%
%ADD51R,0.04343X0.03950*%
%ADD52R,0.05524X0.06509*%
G04:AMPARAMS|DCode=53|XSize=65.09mil|YSize=31.23mil|CornerRadius=6.9mil|HoleSize=0mil|Usage=FLASHONLY|Rotation=270.000|XOffset=0mil|YOffset=0mil|HoleType=Round|Shape=RoundedRectangle|*
%AMROUNDEDRECTD53*
21,1,0.06509,0.01742,0,0,270.0*
21,1,0.05128,0.03123,0,0,270.0*
1,1,0.01381,-0.00871,-0.02564*
1,1,0.01381,-0.00871,0.02564*
1,1,0.01381,0.00871,0.02564*
1,1,0.01381,0.00871,-0.02564*
%
%ADD53ROUNDEDRECTD53*%
%ADD54R,0.06902X0.06312*%
%ADD55R,0.06115X0.04737*%
%ADD56O,0.08477X0.03162*%
%ADD57R,0.05328X0.06115*%
%ADD58C,0.00800*%
%ADD59C,0.07887*%
%ADD60R,0.07887X0.07887*%
%ADD61C,0.06902*%
%ADD62C,0.06312*%
%ADD63R,0.06902X0.06902*%
%ADD64R,0.06181X0.06181*%
%ADD65C,0.06181*%
%ADD66R,0.06312X0.06312*%
%ADD67C,0.04724*%
G36*
X135940Y318557D02*
X138735D01*
Y310563D01*
Y302569D01*
X135940D01*
Y300226D01*
X133538D01*
Y302569D01*
X124444D01*
Y300720D01*
X122436D01*
Y320405D01*
X124444D01*
Y318557D01*
X133538D01*
Y320899D01*
X135940D01*
Y318557D01*
D02*
G37*
D15*
X145428Y303063D02*
D03*
Y308063D02*
D03*
Y313063D02*
D03*
Y318063D02*
D03*
D16*
X130563Y310563D02*
D03*
D21*
X161000Y254874D02*
D03*
Y239126D02*
D03*
D22*
X149000Y251523D02*
D03*
Y241477D02*
D03*
D23*
X308480Y302413D02*
D03*
D24*
X292260Y256429D02*
D03*
X229821Y324930D02*
D03*
X210316D02*
D03*
X216235Y271500D02*
D03*
X228260D02*
D03*
X235740D02*
D03*
X223715D02*
D03*
X299740Y256429D02*
D03*
X222341Y324930D02*
D03*
X217797D02*
D03*
D26*
X266036Y299500D02*
D03*
X256784Y292000D02*
D03*
X266036D02*
D03*
X256784Y299500D02*
D03*
D27*
X255308Y283500D02*
D03*
X255308Y274500D02*
D03*
X265544Y283500D02*
D03*
X265544Y274500D02*
D03*
D28*
X276781Y292008D02*
D03*
Y282831D02*
D03*
X280522D02*
D03*
X273041D02*
D03*
Y292008D02*
D03*
D30*
X273500Y268760D02*
D03*
X236034Y331032D02*
D03*
X243534D02*
D03*
X273500Y276240D02*
D03*
X243534Y323552D02*
D03*
X236034D02*
D03*
D33*
X174693Y247500D02*
D03*
X186307D02*
D03*
D35*
X175822Y305090D02*
D03*
X183499D02*
D03*
X204839Y268882D02*
D03*
X278339Y247997D02*
D03*
X270661D02*
D03*
X197161Y268882D02*
D03*
D36*
X166243Y280254D02*
D03*
X172757D02*
D03*
D37*
X173167Y263587D02*
D03*
X187537D02*
D03*
D41*
X280522Y292008D02*
D03*
D43*
X247517Y244248D02*
D03*
X210115D02*
D03*
D44*
X159315Y334576D02*
D03*
Y357804D02*
D03*
D45*
X157093Y317000D02*
D03*
Y304126D02*
D03*
D46*
X164885Y310686D02*
D03*
X191000Y322905D02*
D03*
X164885Y304780D02*
D03*
X191000Y317000D02*
D03*
X201996Y296875D02*
D03*
Y302780D02*
D03*
D47*
X164098Y317199D02*
D03*
X229034Y332230D02*
D03*
X211128D02*
D03*
X170004Y317199D02*
D03*
X223128Y332230D02*
D03*
X217034D02*
D03*
D48*
X205134Y259500D02*
D03*
X278634Y240500D02*
D03*
X183794Y297195D02*
D03*
X175527D02*
D03*
X270366Y240500D02*
D03*
X196866Y259500D02*
D03*
D49*
X223992Y281606D02*
D03*
X230291D02*
D03*
X227142Y315071D02*
D03*
X236591D02*
D03*
X233441Y281606D02*
D03*
X227142D02*
D03*
X220842Y315071D02*
D03*
X217693D02*
D03*
X220842Y281606D02*
D03*
X236591D02*
D03*
X239740D02*
D03*
X233441Y315071D02*
D03*
X230291D02*
D03*
X223992D02*
D03*
X217693Y281606D02*
D03*
X239740Y315071D02*
D03*
D50*
X290193Y240467D02*
D03*
X301807Y247948D02*
D03*
Y240467D02*
D03*
X290193Y247948D02*
D03*
Y244207D02*
D03*
D51*
X183893Y321544D02*
D03*
X176019Y317804D02*
D03*
X183893Y314064D02*
D03*
D52*
X273829Y302339D02*
D03*
X280522D02*
D03*
D53*
X154500Y277047D02*
D03*
X150760Y267953D02*
D03*
X154500D02*
D03*
X158240D02*
D03*
Y277047D02*
D03*
X150760D02*
D03*
D54*
X292000Y317740D02*
D03*
Y310260D02*
D03*
Y299638D02*
D03*
Y292158D02*
D03*
D55*
X191000Y305090D02*
D03*
Y310996D02*
D03*
D56*
X211984Y296764D02*
D03*
X245449Y293614D02*
D03*
Y287315D02*
D03*
Y290465D02*
D03*
Y296764D02*
D03*
Y299913D02*
D03*
Y303063D02*
D03*
Y306213D02*
D03*
Y309362D02*
D03*
X211984D02*
D03*
Y306213D02*
D03*
Y303063D02*
D03*
Y299913D02*
D03*
Y293614D02*
D03*
Y290465D02*
D03*
Y287315D02*
D03*
D57*
X234742Y259500D02*
D03*
X229034D02*
D03*
X216632D02*
D03*
X222341D02*
D03*
D58*
X180500Y234000D02*
D03*
X307087Y362000D02*
D03*
X190500D02*
D03*
D03*
D59*
X127507Y335113D02*
D03*
X126492Y243909D02*
D03*
D60*
X127507Y355113D02*
D03*
X126492Y263909D02*
D03*
D61*
X269500Y332000D02*
D03*
X279500Y342000D02*
D03*
X269500D02*
D03*
X279500Y332000D02*
D03*
X289500D02*
D03*
D62*
X332500Y253000D02*
D03*
Y292000D02*
D03*
Y354842D02*
D03*
Y323421D02*
D03*
D63*
X289500Y342000D02*
D03*
D64*
X188500Y285500D02*
D03*
D65*
X198500D02*
D03*
D66*
X332500Y243158D02*
D03*
Y345000D02*
D03*
Y313579D02*
D03*
Y282157D02*
D03*
D67*
X308480Y282413D02*
D03*
Y292413D02*
D03*
M02*
